<svg width="40" height="40" viewBox="0 0 40 40" fill="none" xmlns="http://www.w3.org/2000/svg">
<path d="M40 20C40 31.0457 31.0457 40 20 40C8.95431 40 0 31.0457 0 20C0 8.95431 8.95431 0 20 0C31.0457 0 40 8.95431 40 20Z" fill="#A5CBE0"/>
<path d="M27.0045 12.9062C25.1339 11.0312 22.6429 10 19.9955 10C14.5312 10 10.0848 14.4464 10.0848 19.9107C10.0848 21.6562 10.5402 23.3616 11.4062 24.8661L10 30L15.2545 28.6205C16.7009 29.4107 18.3304 29.8259 19.9911 29.8259H19.9955C25.4554 29.8259 30 25.3795 30 19.9152C30 17.2679 28.875 14.7812 27.0045 12.9062ZM19.9955 28.1563C18.5134 28.1563 17.0625 27.7589 15.7991 27.0089L15.5 26.8304L12.3839 27.6473L13.2143 24.6071L13.0179 24.2946C12.192 22.9821 11.7589 21.4688 11.7589 19.9107C11.7589 15.3705 15.4554 11.6741 20 11.6741C22.2009 11.6741 24.2679 12.5312 25.8214 14.0893C27.375 15.6473 28.3304 17.7143 28.3259 19.9152C28.3259 24.4598 24.5357 28.1563 19.9955 28.1563ZM24.5134 21.9866C24.2679 21.8616 23.0491 21.2634 22.8214 21.183C22.5938 21.0982 22.4286 21.058 22.2634 21.308C22.0982 21.558 21.625 22.1116 21.4777 22.2813C21.3348 22.4464 21.1875 22.4688 20.942 22.3438C19.4866 21.6161 18.5312 21.0446 17.5714 19.3973C17.317 18.9598 17.8259 18.9911 18.2991 18.0446C18.3795 17.8795 18.3393 17.7366 18.2768 17.6116C18.2143 17.4866 17.7188 16.2679 17.5134 15.7723C17.3125 15.2902 17.1071 15.3571 16.9554 15.3482C16.8125 15.3393 16.6473 15.3393 16.4821 15.3393C16.317 15.3393 16.0491 15.4018 15.8214 15.6473C15.5938 15.8973 14.9554 16.4955 14.9554 17.7143C14.9554 18.933 15.8438 20.1116 15.9643 20.2768C16.0893 20.442 17.7098 22.942 20.1964 24.0179C21.7679 24.6964 22.3839 24.7545 23.1696 24.6384C23.6473 24.567 24.6339 24.0402 24.8393 23.4598C25.0446 22.8795 25.0446 22.3839 24.9821 22.2813C24.9241 22.1696 24.7589 22.1071 24.5134 21.9866Z" fill="white"/>
</svg>
