<svg width="40" height="40" viewBox="0 0 40 40" fill="none" xmlns="http://www.w3.org/2000/svg">
<path d="M40 20C40 31.0457 31.0457 40 20 40C8.95431 40 0 31.0457 0 20C0 8.95431 8.95431 0 20 0C31.0457 0 40 8.95431 40 20Z" fill="#A5CBE0"/>
<path d="M20.0022 14.8712C17.1645 14.8712 14.8756 17.1601 14.8756 19.9978C14.8756 22.8355 17.1645 25.1244 20.0022 25.1244C22.8399 25.1244 25.1288 22.8355 25.1288 19.9978C25.1288 17.1601 22.8399 14.8712 20.0022 14.8712ZM20.0022 23.3307C18.1684 23.3307 16.6693 21.836 16.6693 19.9978C16.6693 18.1595 18.164 16.6648 20.0022 16.6648C21.8405 16.6648 23.3352 18.1595 23.3352 19.9978C23.3352 21.836 21.836 23.3307 20.0022 23.3307ZM26.5343 14.6615C26.5343 15.3263 25.9989 15.8572 25.3385 15.8572C24.6737 15.8572 24.1428 15.3218 24.1428 14.6615C24.1428 14.0011 24.6782 13.4657 25.3385 13.4657C25.9989 13.4657 26.5343 14.0011 26.5343 14.6615ZM29.9297 15.8751C29.8539 14.2733 29.488 12.8544 28.3146 11.6854C27.1456 10.5165 25.7267 10.1506 24.1249 10.0703C22.4741 9.97658 17.5259 9.97658 15.8751 10.0703C14.2777 10.1461 12.8589 10.512 11.6854 11.681C10.512 12.85 10.1506 14.2688 10.0703 15.8706C9.97658 17.5215 9.97658 22.4696 10.0703 24.1205C10.1461 25.7223 10.512 27.1411 11.6854 28.3101C12.8589 29.4791 14.2733 29.845 15.8751 29.9253C17.5259 30.019 22.4741 30.019 24.1249 29.9253C25.7267 29.8494 27.1456 29.4835 28.3146 28.3101C29.4835 27.1411 29.8494 25.7223 29.9297 24.1205C30.0234 22.4696 30.0234 17.5259 29.9297 15.8751ZM27.797 25.8918C27.449 26.7663 26.7752 27.44 25.8963 27.7925C24.58 28.3146 21.4568 28.1941 20.0022 28.1941C18.5477 28.1941 15.42 28.3101 14.1082 27.7925C13.2337 27.4445 12.56 26.7708 12.2075 25.8918C11.6854 24.5756 11.8059 21.4523 11.8059 19.9978C11.8059 18.5432 11.6899 15.4155 12.2075 14.1037C12.5555 13.2292 13.2292 12.5555 14.1082 12.203C15.4244 11.681 18.5477 11.8015 20.0022 11.8015C21.4568 11.8015 24.5845 11.6854 25.8963 12.203C26.7708 12.551 27.4445 13.2248 27.797 14.1037C28.319 15.42 28.1985 18.5432 28.1985 19.9978C28.1985 21.4523 28.319 24.58 27.797 25.8918Z" fill="white"/>
</svg>
