<svg width="40" height="40" viewBox="0 0 40 40" fill="none" xmlns="http://www.w3.org/2000/svg">
<path d="M40 20C40 31.0457 31.0457 40 20 40C8.95431 40 0 31.0457 0 20C0 8.95431 8.95431 0 20 0C31.0457 0 40 8.95431 40 20Z" fill="#A5CBE0"/>
<path d="M29.6211 16.9531C29.7734 16.832 30 16.9453 30 17.1367V25.125C30 26.1602 29.1602 27 28.125 27H11.875C10.8398 27 10 26.1602 10 25.125V17.1406C10 16.9453 10.2227 16.8359 10.3789 16.957C11.2539 17.6367 12.4141 18.5 16.3984 21.3945C17.2227 21.9961 18.6133 23.2617 20 23.2539C21.3945 23.2656 22.8125 21.9727 23.6055 21.3945C27.5898 18.5 28.7461 17.6328 29.6211 16.9531ZM20 22C20.9062 22.0156 22.2109 20.8594 22.8672 20.3828C28.0508 16.6211 28.4453 16.293 29.6406 15.3555C29.8672 15.1797 30 14.9062 30 14.6172V13.875C30 12.8398 29.1602 12 28.125 12H11.875C10.8398 12 10 12.8398 10 13.875V14.6172C10 14.9062 10.1328 15.1758 10.3594 15.3555C11.5547 16.2891 11.9492 16.6211 17.1328 20.3828C17.7891 20.8594 19.0938 22.0156 20 22Z" fill="white"/>
</svg>
