<svg width="30" height="30" viewBox="0 0 30 30" fill="none" xmlns="http://www.w3.org/2000/svg">
  <circle cx="15" cy="15" r="15" fill="#323F8D" />
  <path
    d="M10.539 23.0769H7.18993V12.2918H10.539V23.0769ZM8.86268 10.8206C7.79175 10.8206 6.9231 9.9336 6.9231 8.86267C6.9231 8.34826 7.12744 7.85492 7.49119 7.49117C7.85493 7.12743 8.34827 6.92308 8.86268 6.92308C9.37709 6.92308 9.87043 7.12743 10.2342 7.49117C10.5979 7.85492 10.8023 8.34826 10.8023 8.86267C10.8023 9.9336 9.93326 10.8206 8.86268 10.8206ZM23.0737 23.0769H19.7318V17.8268C19.7318 16.5756 19.7066 14.971 17.9905 14.971C16.2493 14.971 15.9824 16.3304 15.9824 17.7367V23.0769H12.6369V12.2918H15.849V13.763H15.8959C16.343 12.9156 17.4352 12.0214 19.0647 12.0214C22.4542 12.0214 23.0773 14.2534 23.0773 17.1525V23.0769H23.0737Z"
    fill="white" />
</svg>