<svg width="400" height="212" viewBox="0 0 400 212" fill="none" xmlns="http://www.w3.org/2000/svg">
<g clip-path="url(#clip0_67_487)">
<path d="M349.815 185.231C339.372 185.14 328.946 184.375 318.601 182.941C318.238 182.891 317.875 182.836 317.511 182.786L318.058 84.9879C318.419 84.7008 318.784 84.4182 319.153 84.1443C320.376 83.2313 321.634 82.3755 322.934 81.5899C329.202 77.8141 336.539 76.0855 341.602 77.8177L341.681 77.8488C342.789 78.2227 343.813 78.8119 344.693 79.5826C349.139 83.5321 348.398 91.5175 344.81 98.7642C351.924 92.2644 360.902 87.0889 368.916 86.6957C376.732 86.3101 382.316 90.3973 387.061 94.8303C387.218 94.9757 387.37 95.1212 387.523 95.2666C387.601 95.3372 387.675 95.412 387.754 95.4824C391.37 98.9411 394.935 102.973 394.504 108.81C394.03 115.211 388.668 122.308 382.421 127.284C376.177 132.26 369.085 135.566 362.163 138.918C355.245 142.274 348.151 145.905 342.238 151.29C351.464 143.996 361.962 138.115 372.171 135.943C382.38 133.771 392.185 135.682 396.994 142.183C398.408 144.157 399.33 146.44 399.681 148.843C399.727 149.124 399.765 149.409 399.799 149.698C400.483 155.716 398.402 162.901 393.427 169.014C387.949 175.746 379.829 180.414 372.12 182.736C364.411 185.059 356.989 185.306 349.815 185.231Z" fill="#F2F2F2"/>
<path d="M317.855 121.246L317.866 119.376C318.237 118.782 318.604 118.186 318.966 117.586C319.201 117.215 319.426 116.84 319.656 116.464C323.444 110.261 327.078 104.019 330.558 97.7386C334.04 91.4636 337.362 85.1571 340.523 78.8191C340.596 78.6511 340.726 78.514 340.89 78.4317C341.054 78.3494 341.241 78.327 341.419 78.3685C341.443 78.3753 341.465 78.3858 341.485 78.3997C341.651 78.4881 341.72 78.6857 341.578 78.974C341.188 79.7514 340.798 80.5333 340.4 81.3107C337.184 87.6661 333.808 93.9941 330.272 100.295C326.737 106.591 323.046 112.852 319.199 119.077C319.119 119.208 319.035 119.339 318.956 119.47C318.589 120.063 318.222 120.652 317.855 121.246Z" fill="white"/>
<path d="M317.72 145.358L317.727 144.202C318.092 143.941 318.457 143.685 318.822 143.424C327.415 137.296 336.008 131.17 344.601 125.044C358.67 115.013 372.738 104.985 386.806 94.9604C386.882 94.901 386.969 94.8568 387.061 94.8303C387.373 94.7446 387.555 94.9734 387.523 95.2666C387.505 95.3903 387.461 95.5087 387.394 95.6141C387.327 95.7195 387.239 95.8093 387.134 95.8777C379.245 101.502 371.358 107.124 363.474 112.745C349.476 122.724 335.48 132.701 321.485 142.677C320.597 143.311 319.704 143.946 318.816 144.581C318.45 144.841 318.085 145.102 317.72 145.358Z" fill="white"/>
<path d="M324.436 171.121C322.487 171.062 320.569 170.933 318.669 170.764C318.306 170.732 317.942 170.699 317.579 170.666L317.586 169.453C317.949 169.49 318.313 169.527 318.676 169.56C321.421 169.816 324.197 169.998 327.048 170.023C334.954 170.055 342.842 169.285 350.592 167.723C358.936 166.064 367.12 163.681 375.051 160.602C383.416 157.37 391.508 153.474 399.251 148.95C399.377 148.865 399.529 148.827 399.681 148.843C400.027 148.893 400.129 149.354 399.799 149.698C399.734 149.766 399.66 149.824 399.579 149.872C398.616 150.431 397.651 150.981 396.683 151.52C388.897 155.877 380.777 159.606 372.398 162.672C364.441 165.593 356.245 167.814 347.902 169.311C340.162 170.714 332.299 171.32 324.436 171.121Z" fill="white"/>
<path d="M314.802 -1.52538e-05H48.9276C47.915 0.000905655 46.944 0.403613 46.2279 1.11971C45.5119 1.8358 45.1092 2.80677 45.1083 3.81946V183.983C45.1092 184.996 45.5119 185.967 46.2279 186.683C46.944 187.399 47.915 187.802 48.9276 187.803H314.802C315.354 187.803 315.9 187.683 316.401 187.451C316.902 187.22 317.348 186.883 317.706 186.462C317.736 186.429 317.764 186.394 317.789 186.357C318.017 186.078 318.202 185.767 318.337 185.433C318.529 184.974 318.627 184.481 318.626 183.983V3.81949C318.625 2.80608 318.221 1.83455 317.504 1.11837C316.787 0.402188 315.815 -6.69309e-05 314.802 -1.52538e-05ZM317.535 183.983C317.535 184.516 317.379 185.037 317.084 185.481C316.822 185.872 316.467 186.191 316.05 186.41C315.664 186.609 315.236 186.713 314.802 186.712H48.9276C48.2042 186.711 47.5106 186.423 46.999 185.912C46.4875 185.4 46.1997 184.707 46.1988 183.983V3.81949C46.1997 3.09603 46.4875 2.40244 46.999 1.89088C47.5106 1.37931 48.2042 1.09152 48.9276 1.09065H314.802C315.526 1.09055 316.221 1.37788 316.733 1.88953C317.246 2.40118 317.534 3.09532 317.535 3.81949V183.983Z" fill="#3F3D56"/>
<path d="M318.078 15.3082H45.6526V16.4001H318.078V15.3082Z" fill="#3F3D56"/>
<path d="M54.9336 11.4648C56.7427 11.4648 58.2093 9.99823 58.2093 8.18914C58.2093 6.38004 56.7427 4.91348 54.9336 4.91348C53.1245 4.91348 51.6579 6.38004 51.6579 8.18914C51.6579 9.99823 53.1245 11.4648 54.9336 11.4648Z" fill="#3F3D56"/>
<path d="M64.3511 11.4648C66.1602 11.4648 67.6268 9.99823 67.6268 8.18914C67.6268 6.38004 66.1602 4.91348 64.3511 4.91348C62.542 4.91348 61.0755 6.38004 61.0755 8.18914C61.0755 9.99823 62.542 11.4648 64.3511 11.4648Z" fill="#3F3D56"/>
<path d="M73.7686 11.4648C75.5777 11.4648 77.0443 9.99823 77.0443 8.18914C77.0443 6.38004 75.5777 4.91348 73.7686 4.91348C71.9595 4.91348 70.493 6.38004 70.493 8.18914C70.493 9.99823 71.9595 11.4648 73.7686 11.4648Z" fill="#3F3D56"/>
<path d="M250.238 40.5828H113.578C112.068 40.5828 110.62 39.9829 109.552 38.915C108.484 37.8472 107.884 36.3988 107.884 34.8886C107.884 33.3784 108.484 31.9301 109.552 30.8622C110.62 29.7944 112.068 29.1945 113.578 29.1945H250.238C251.749 29.1945 253.197 29.7944 254.265 30.8622C255.333 31.9301 255.933 33.3784 255.933 34.8886C255.933 36.3988 255.333 37.8472 254.265 38.915C253.197 39.9829 251.749 40.5828 250.238 40.5828ZM113.578 30.0705C112.3 30.0705 111.075 30.5781 110.171 31.4817C109.268 32.3853 108.76 33.6108 108.76 34.8886C108.76 36.1665 109.268 37.392 110.171 38.2956C111.075 39.1992 112.3 39.7068 113.578 39.7068H250.238C251.516 39.7068 252.742 39.1992 253.645 38.2956C254.549 37.392 255.057 36.1665 255.057 34.8886C255.057 33.6108 254.549 32.3853 253.645 31.4817C252.742 30.5781 251.516 30.0705 250.238 30.0705H113.578Z" fill="#3F3D56"/>
<path d="M114.72 75.4049H102.456C101.526 75.4049 100.635 75.0357 99.9777 74.3785C99.3206 73.7214 98.9514 72.8301 98.9514 71.9008C98.9514 70.9714 99.3206 70.0801 99.9777 69.423C100.635 68.7658 101.526 68.3966 102.456 68.3966H114.72C115.649 68.3966 116.541 68.7658 117.198 69.423C117.855 70.0801 118.224 70.9714 118.224 71.9008C118.224 72.8301 117.855 73.7214 117.198 74.3785C116.541 75.0357 115.649 75.4049 114.72 75.4049Z" fill="#CCCCCC"/>
<path d="M129.174 87.2312H102.456C101.526 87.2312 100.635 86.862 99.9777 86.2049C99.3206 85.5477 98.9514 84.6565 98.9514 83.7271C98.9514 82.7978 99.3206 81.9065 99.9777 81.2493C100.635 80.5922 101.526 80.223 102.456 80.223H129.174C130.104 80.223 130.995 80.5922 131.652 81.2493C132.309 81.9065 132.678 82.7978 132.678 83.7271C132.678 84.6565 132.309 85.5477 131.652 86.2049C130.995 86.862 130.104 87.2312 129.174 87.2312Z" fill="#CCCCCC"/>
<path d="M116.91 127.09H104.646C103.716 127.09 102.825 126.721 102.168 126.064C101.511 125.407 101.141 124.516 101.141 123.586C101.141 122.657 101.511 121.766 102.168 121.109C102.825 120.451 103.716 120.082 104.646 120.082H116.91C117.839 120.082 118.731 120.451 119.388 121.109C120.045 121.766 120.414 122.657 120.414 123.586C120.414 124.516 120.045 125.407 119.388 126.064C118.731 126.721 117.839 127.09 116.91 127.09Z" fill="#CCCCCC"/>
<path d="M131.364 138.917H104.646C103.716 138.917 102.825 138.548 102.168 137.89C101.511 137.233 101.141 136.342 101.141 135.413C101.141 134.483 101.511 133.592 102.168 132.935C102.825 132.278 103.716 131.909 104.646 131.909H131.364C132.294 131.909 133.185 132.278 133.842 132.935C134.499 133.592 134.868 134.483 134.868 135.413C134.868 136.342 134.499 137.233 133.842 137.89C133.185 138.548 132.294 138.917 131.364 138.917Z" fill="#CCCCCC"/>
<path d="M197.504 125.776H185.24C184.311 125.776 183.419 125.407 182.762 124.75C182.105 124.093 181.736 123.202 181.736 122.272C181.736 121.343 182.105 120.452 182.762 119.795C183.419 119.137 184.311 118.768 185.24 118.768H197.504C198.434 118.768 199.325 119.137 199.982 119.795C200.639 120.452 201.009 121.343 201.009 122.272C201.009 123.202 200.639 124.093 199.982 124.75C199.325 125.407 198.434 125.776 197.504 125.776Z" fill="#CCCCCC"/>
<path d="M211.959 137.603H185.24C184.311 137.603 183.419 137.234 182.762 136.576C182.105 135.919 181.736 135.028 181.736 134.099C181.736 133.169 182.105 132.278 182.762 131.621C183.419 130.964 184.311 130.595 185.24 130.595H211.959C212.888 130.595 213.779 130.964 214.437 131.621C215.094 132.278 215.463 133.169 215.463 134.099C215.463 135.028 215.094 135.919 214.437 136.576C213.779 137.234 212.888 137.603 211.959 137.603Z" fill="#CCCCCC"/>
<path d="M196.19 77.5949H183.926C182.997 77.5949 182.105 77.2258 181.448 76.5686C180.791 75.9115 180.422 75.0202 180.422 74.0908C180.422 73.1615 180.791 72.2702 181.448 71.6131C182.105 70.9559 182.997 70.5867 183.926 70.5867H196.19C197.12 70.5867 198.011 70.9559 198.668 71.6131C199.325 72.2702 199.694 73.1615 199.694 74.0908C199.694 75.0202 199.325 75.9115 198.668 76.5686C198.011 77.2258 197.12 77.5949 196.19 77.5949Z" fill="#CCCCCC"/>
<path d="M210.645 89.4213H183.926C182.997 89.4213 182.105 89.0521 181.448 88.395C180.791 87.7378 180.422 86.8465 180.422 85.9172C180.422 84.9878 180.791 84.0966 181.448 83.4394C182.105 82.7823 182.997 82.4131 183.926 82.4131H210.645C211.574 82.4131 212.465 82.7823 213.123 83.4394C213.78 84.0966 214.149 84.9878 214.149 85.9172C214.149 86.8465 213.78 87.7378 213.123 88.395C212.465 89.0521 211.574 89.4213 210.645 89.4213Z" fill="#CCCCCC"/>
<path d="M278.099 74.9668H265.834C264.905 74.9668 264.014 74.5977 263.357 73.9405C262.7 73.2834 262.33 72.3921 262.33 71.4627C262.33 70.5334 262.7 69.6421 263.357 68.985C264.014 68.3278 264.905 67.9586 265.834 67.9586H278.099C279.028 67.9586 279.919 68.3278 280.577 68.985C281.234 69.6421 281.603 70.5334 281.603 71.4627C281.603 72.3921 281.234 73.2834 280.577 73.9405C279.919 74.5977 279.028 74.9668 278.099 74.9668Z" fill="#CCCCCC"/>
<path d="M292.553 86.7932H265.834C264.905 86.7932 264.014 86.424 263.357 85.7669C262.7 85.1097 262.33 84.2185 262.33 83.2891C262.33 82.3598 262.7 81.4685 263.357 80.8113C264.014 80.1542 264.905 79.785 265.834 79.785H292.553C293.483 79.785 294.374 80.1542 295.031 80.8113C295.688 81.4685 296.057 82.3598 296.057 83.2891C296.057 84.2185 295.688 85.1097 295.031 85.7669C294.374 86.424 293.483 86.7932 292.553 86.7932Z" fill="#CCCCCC"/>
<path d="M80.8169 90.9543C88.0741 90.9543 93.9573 85.0712 93.9573 77.8139C93.9573 70.5567 88.0741 64.6735 80.8169 64.6735C73.5596 64.6735 67.6765 70.5567 67.6765 77.8139C67.6765 85.0712 73.5596 90.9543 80.8169 90.9543Z" fill="#A5CBE0"/>
<path d="M86.9491 83.7272H74.6848C74.3364 83.7268 74.0024 83.5882 73.756 83.3419C73.5097 83.0955 73.3711 82.7615 73.3707 82.4131V73.2149C73.3711 72.8665 73.5097 72.5325 73.756 72.2861C74.0024 72.0398 74.3364 71.9012 74.6848 71.9008H78.1373C78.3619 71.9 78.5829 71.9571 78.7789 72.0666C78.975 72.1761 79.1395 72.3343 79.2565 72.526L80.2194 74.0909H86.9491C87.2975 74.0913 87.6315 74.2298 87.8779 74.4762C88.1242 74.7225 88.2628 75.0565 88.2632 75.4049V82.4131C88.2628 82.7615 88.1242 83.0955 87.8779 83.3419C87.6315 83.5882 87.2975 83.7268 86.9491 83.7272ZM74.6848 72.7769C74.5686 72.777 74.4573 72.8232 74.3752 72.9053C74.2931 72.9874 74.2469 73.0987 74.2467 73.2149V82.4131C74.2469 82.5293 74.2931 82.6406 74.3752 82.7227C74.4573 82.8048 74.5686 82.851 74.6848 82.8512H86.9491C87.0653 82.851 87.1766 82.8048 87.2587 82.7227C87.3408 82.6406 87.387 82.5293 87.3871 82.4131V75.4049C87.387 75.2888 87.3408 75.1775 87.2587 75.0954C87.1766 75.0133 87.0653 74.9671 86.9491 74.9669H79.73L78.5105 72.9852C78.4715 72.9213 78.4166 72.8686 78.3513 72.8321C78.2859 72.7956 78.2122 72.7766 78.1374 72.7769H74.6848Z" fill="white"/>
<path d="M161.411 93.1444C168.669 93.1444 174.552 87.2612 174.552 80.004C174.552 72.7468 168.669 66.8636 161.411 66.8636C154.154 66.8636 148.271 72.7468 148.271 80.004C148.271 87.2612 154.154 93.1444 161.411 93.1444Z" fill="#A5CBE0"/>
<path d="M167.106 88.3263H155.717C155.369 88.326 155.035 88.1874 154.788 87.941C154.542 87.6947 154.404 87.3607 154.403 87.0123V72.9959C154.404 72.6475 154.542 72.3135 154.788 72.0671C155.035 71.8208 155.369 71.6822 155.717 71.6818H163.969C164.268 71.6821 164.559 71.7843 164.792 71.9716L167.929 74.4919C168.082 74.6147 168.206 74.7706 168.291 74.9479C168.376 75.1252 168.42 75.3195 168.42 75.5162V87.0123C168.419 87.3607 168.281 87.6947 168.034 87.941C167.788 88.1874 167.454 88.326 167.106 88.3263ZM155.717 72.5579C155.601 72.558 155.49 72.6042 155.408 72.6863C155.326 72.7684 155.279 72.8797 155.279 72.9959V87.0123C155.279 87.1284 155.326 87.2397 155.408 87.3218C155.49 87.404 155.601 87.4502 155.717 87.4503H167.106C167.222 87.4502 167.333 87.404 167.415 87.3218C167.497 87.2397 167.543 87.1284 167.544 87.0123V75.5162C167.544 75.4506 167.529 75.3859 167.501 75.3268C167.472 75.2677 167.431 75.2157 167.38 75.1748L164.243 72.6543C164.166 72.5919 164.069 72.5579 163.969 72.5579H155.717Z" fill="white"/>
<path d="M164.916 77.814H157.907C157.791 77.814 157.68 77.7679 157.598 77.6857C157.515 77.6036 157.469 77.4922 157.469 77.376C157.469 77.2598 157.515 77.1484 157.598 77.0663C157.68 76.9841 157.791 76.938 157.907 76.938H164.916C165.032 76.938 165.143 76.9841 165.225 77.0663C165.307 77.1484 165.354 77.2598 165.354 77.376C165.354 77.4922 165.307 77.6036 165.225 77.6857C165.143 77.7679 165.032 77.814 164.916 77.814Z" fill="white"/>
<path d="M164.916 80.4421H157.907C157.791 80.4421 157.68 80.3959 157.598 80.3138C157.515 80.2317 157.469 80.1203 157.469 80.0041C157.469 79.8879 157.515 79.7765 157.598 79.6944C157.68 79.6122 157.791 79.5661 157.907 79.5661H164.916C165.032 79.5661 165.143 79.6122 165.225 79.6944C165.307 79.7765 165.354 79.8879 165.354 80.0041C165.354 80.1203 165.307 80.2317 165.225 80.3138C165.143 80.3959 165.032 80.4421 164.916 80.4421Z" fill="white"/>
<path d="M164.916 83.0702H157.907C157.791 83.0702 157.68 83.024 157.598 82.9419C157.515 82.8597 157.469 82.7483 157.469 82.6322C157.469 82.516 157.515 82.4046 157.598 82.3224C157.68 82.2403 157.791 82.1941 157.907 82.1941H164.916C165.032 82.1941 165.143 82.2403 165.225 82.3224C165.307 82.4046 165.354 82.516 165.354 82.6322C165.354 82.7483 165.307 82.8597 165.225 82.9419C165.143 83.024 165.032 83.0702 164.916 83.0702Z" fill="white"/>
<path d="M242.444 90.5163C249.701 90.5163 255.584 84.6332 255.584 77.3759C255.584 70.1187 249.701 64.2355 242.444 64.2355C235.187 64.2355 229.303 70.1187 229.303 77.3759C229.303 84.6332 235.187 90.5163 242.444 90.5163Z" fill="#A5CBE0"/>
<path d="M248.576 82.1941H236.311C235.963 82.1938 235.629 82.0552 235.383 81.8089C235.136 81.5625 234.998 81.2285 234.997 80.8801V73.8719C234.998 73.5235 235.136 73.1895 235.383 72.9431C235.629 72.6968 235.963 72.5582 236.311 72.5579H248.576C248.924 72.5582 249.258 72.6968 249.505 72.9431C249.751 73.1895 249.89 73.5235 249.89 73.8719V80.8801C249.89 81.2285 249.751 81.5625 249.505 81.8089C249.258 82.0552 248.924 82.1938 248.576 82.1941ZM236.311 73.4339C236.195 73.434 236.084 73.4802 236.002 73.5623C235.92 73.6444 235.874 73.7558 235.873 73.8719V80.8801C235.874 80.9962 235.92 81.1076 236.002 81.1897C236.084 81.2718 236.195 81.318 236.311 81.3181H248.576C248.692 81.318 248.803 81.2718 248.885 81.1897C248.968 81.1076 249.014 80.9962 249.014 80.8801V73.8719C249.014 73.7558 248.968 73.6444 248.885 73.5623C248.803 73.4802 248.692 73.434 248.576 73.4339H236.311Z" fill="white"/>
<path d="M242.444 78.5316C242.198 78.5319 241.956 78.4632 241.747 78.3333L235.203 74.2434C235.105 74.1817 235.035 74.0835 235.009 73.9704C234.983 73.8573 235.003 73.7385 235.065 73.6401C235.126 73.5417 235.224 73.4717 235.337 73.4455C235.45 73.4193 235.569 73.4391 235.668 73.5004L242.212 77.5903C242.282 77.6335 242.362 77.6564 242.444 77.6564C242.526 77.6564 242.606 77.6335 242.676 77.5903L249.22 73.5004C249.318 73.4391 249.437 73.4193 249.55 73.4455C249.663 73.4717 249.761 73.5417 249.823 73.6401C249.884 73.7385 249.904 73.8573 249.878 73.9704C249.852 74.0835 249.782 74.1817 249.684 74.2434L243.14 78.3333C242.931 78.4633 242.69 78.532 242.444 78.5316Z" fill="white"/>
<path d="M80.8169 142.64C88.0741 142.64 93.9573 136.757 93.9573 129.5C93.9573 122.242 88.0741 116.359 80.8169 116.359C73.5596 116.359 67.6765 122.242 67.6765 129.5C67.6765 136.757 73.5596 142.64 80.8169 142.64Z" fill="#A5CBE0"/>
<path d="M86.9491 134.318H74.6848C74.3364 134.317 74.0024 134.179 73.756 133.932C73.5097 133.686 73.3711 133.352 73.3707 133.004V125.995C73.3711 125.647 73.5097 125.313 73.756 125.067C74.0024 124.82 74.3364 124.682 74.6848 124.681H86.9491C87.2975 124.682 87.6315 124.82 87.8779 125.067C88.1242 125.313 88.2628 125.647 88.2632 125.995V133.004C88.2628 133.352 88.1242 133.686 87.8779 133.932C87.6315 134.179 87.2975 134.317 86.9491 134.318ZM74.6848 125.557C74.5686 125.558 74.4573 125.604 74.3752 125.686C74.293 125.768 74.2469 125.879 74.2467 125.995V133.004C74.2469 133.12 74.293 133.231 74.3752 133.313C74.4573 133.395 74.5686 133.442 74.6848 133.442H86.9491C87.0653 133.442 87.1766 133.395 87.2587 133.313C87.3408 133.231 87.387 133.12 87.3871 133.004V125.995C87.387 125.879 87.3408 125.768 87.2587 125.686C87.1766 125.604 87.0653 125.558 86.9491 125.557H74.6848Z" fill="white"/>
<path d="M85.0052 134.318H76.1907C76.0369 134.318 75.8858 134.277 75.7526 134.2C75.6194 134.124 75.5088 134.013 75.4319 133.88C75.355 133.747 75.3145 133.596 75.3145 133.442C75.3146 133.288 75.3551 133.137 75.432 133.004L78.0871 128.405C78.164 128.271 78.2746 128.161 78.4078 128.084C78.5409 128.007 78.692 127.967 78.8458 127.967C78.9996 127.967 79.1506 128.007 79.2838 128.084C79.417 128.161 79.5276 128.271 79.6045 128.405L81.3193 131.375L82.3128 129.654C82.3897 129.521 82.5003 129.41 82.6335 129.333C82.7666 129.256 82.9177 129.216 83.0715 129.216C83.2253 129.216 83.3763 129.256 83.5095 129.333C83.6427 129.41 83.7533 129.521 83.8302 129.654L85.764 133.004C85.8409 133.137 85.8814 133.288 85.8814 133.442C85.8814 133.596 85.8409 133.747 85.764 133.88C85.6871 134.013 85.5765 134.124 85.4433 134.2C85.3101 134.277 85.159 134.318 85.0052 134.318H85.0052ZM85.0052 133.442L83.0714 130.092L81.6988 132.47C81.6603 132.536 81.605 132.592 81.5384 132.63C81.4718 132.669 81.3963 132.689 81.3193 132.689C81.2424 132.689 81.1669 132.669 81.1003 132.63C81.0337 132.592 80.9784 132.536 80.9399 132.47L78.8459 128.843L76.1907 133.442H85.0052Z" fill="white"/>
<path d="M85.635 128.185C86.1189 128.185 86.5111 127.793 86.5111 127.309C86.5111 126.826 86.1189 126.433 85.635 126.433C85.1512 126.433 84.759 126.826 84.759 127.309C84.759 127.793 85.1512 128.185 85.635 128.185Z" fill="white"/>
<path d="M162.287 141.326C169.545 141.326 175.428 135.443 175.428 128.185C175.428 120.928 169.545 115.045 162.287 115.045C155.03 115.045 149.147 120.928 149.147 128.185C149.147 135.443 155.03 141.326 162.287 141.326Z" fill="#A5CBE0"/>
<path d="M162.287 128.405C161.508 128.405 160.746 128.173 160.097 127.74C159.449 127.307 158.944 126.691 158.645 125.971C158.347 125.251 158.269 124.458 158.421 123.693C158.573 122.929 158.949 122.226 159.5 121.675C160.051 121.124 160.754 120.748 161.518 120.596C162.283 120.444 163.076 120.522 163.796 120.82C164.516 121.119 165.132 121.624 165.565 122.272C165.998 122.921 166.23 123.683 166.23 124.462C166.228 125.508 165.813 126.51 165.074 127.249C164.335 127.988 163.333 128.403 162.287 128.405ZM162.287 121.396C161.681 121.396 161.088 121.576 160.584 121.913C160.08 122.25 159.687 122.729 159.455 123.289C159.223 123.849 159.162 124.466 159.28 125.061C159.399 125.655 159.691 126.202 160.119 126.63C160.548 127.059 161.094 127.351 161.689 127.47C162.284 127.588 162.901 127.527 163.461 127.295C164.021 127.063 164.5 126.67 164.837 126.166C165.174 125.662 165.354 125.069 165.354 124.462C165.353 123.65 165.029 122.87 164.454 122.295C163.88 121.721 163.1 121.397 162.287 121.396Z" fill="white"/>
<path d="M165.792 135.851H158.783C158.377 135.85 157.987 135.689 157.7 135.401C157.412 135.114 157.251 134.724 157.25 134.318C157.25 132.982 157.781 131.701 158.726 130.756C159.67 129.811 160.951 129.281 162.287 129.281C163.623 129.281 164.905 129.811 165.849 130.756C166.794 131.701 167.325 132.982 167.325 134.318C167.324 134.724 167.162 135.114 166.875 135.401C166.588 135.689 166.198 135.85 165.792 135.851ZM162.287 130.157C161.184 130.158 160.127 130.597 159.346 131.377C158.566 132.157 158.128 133.215 158.126 134.318C158.126 134.492 158.196 134.659 158.319 134.782C158.442 134.905 158.609 134.975 158.783 134.975H165.792C165.966 134.975 166.133 134.905 166.256 134.782C166.379 134.659 166.448 134.492 166.449 134.318C166.447 133.215 166.008 132.157 165.228 131.377C164.448 130.597 163.391 130.158 162.287 130.157Z" fill="white"/>
<path d="M35.4515 206.391H40.8215L43.376 185.678L35.4506 185.679L35.4515 206.391Z" fill="#FFB8B8"/>
<path d="M51.1779 211.377L34.3009 211.378L34.3006 204.857L44.6569 204.857C46.3863 204.856 48.0449 205.543 49.2678 206.766C50.4907 207.989 51.1778 209.647 51.1779 211.377L51.1779 211.377Z" fill="#2F2E41"/>
<path d="M15.3029 206.391H20.6729L23.2274 185.678L15.302 185.679L15.3029 206.391Z" fill="#FFB8B8"/>
<path d="M31.0293 211.377L14.1523 211.378L14.152 204.857L24.5083 204.857C26.2377 204.856 27.8963 205.543 29.1192 206.766C30.3421 207.989 31.0292 209.647 31.0293 211.377L31.0293 211.377Z" fill="#2F2E41"/>
<path d="M15.9587 144.702C16.5372 144.33 17.0271 143.835 17.3939 143.253C17.7607 142.671 17.9954 142.016 18.0815 141.334C18.1676 140.651 18.1031 139.958 17.8924 139.303C17.6817 138.648 17.3299 138.048 16.862 137.544L20.3978 87.3657L10.2127 88.3535L9.93295 137.493C9.13803 138.335 8.6797 139.44 8.64481 140.597C8.60992 141.755 9.0009 142.885 9.74365 143.774C10.4864 144.662 11.5293 145.248 12.6748 145.419C13.8203 145.59 14.9887 145.335 15.9587 144.702H15.9587Z" fill="#FFB8B8"/>
<path d="M35.6116 195.959C35.1297 195.958 34.665 195.78 34.3047 195.46C33.9443 195.141 33.713 194.7 33.6542 194.222L30.5328 168.115C30.4889 167.748 30.3134 167.408 30.0388 167.16C29.7642 166.912 29.409 166.771 29.0389 166.764C28.6687 166.758 28.3086 166.885 28.025 167.123C27.7414 167.361 27.5536 167.694 27.4961 168.059L23.5641 193.056C23.4929 193.52 23.2571 193.944 22.8998 194.25C22.5424 194.555 22.0872 194.722 21.617 194.72H15.2439C14.9838 194.72 14.7262 194.669 14.4861 194.569C14.246 194.469 14.0281 194.322 13.8449 194.138C13.6616 193.953 13.5168 193.734 13.4186 193.493C13.3204 193.252 13.2709 192.994 13.2728 192.734L16.3145 137.311C16.3156 136.839 16.4869 136.383 16.797 136.028C17.1071 135.672 17.5351 135.44 18.0024 135.375L41.6523 131.942C41.9333 131.901 42.2198 131.921 42.4922 132.002C42.7645 132.082 43.0163 132.22 43.2304 132.406C43.4444 132.593 43.6157 132.824 43.7324 133.082C43.8491 133.341 43.9085 133.622 43.9065 133.906L43.494 193.72C43.4905 194.224 43.2939 194.708 42.9447 195.071C42.5955 195.435 42.1203 195.651 41.6167 195.675L35.7051 195.957C35.6738 195.958 35.6426 195.959 35.6116 195.959Z" fill="#2F2E41"/>
<path d="M23.3504 139.404C21.0755 139.396 18.8193 138.994 16.6813 138.217C16.3188 138.083 16.004 137.846 15.7766 137.533C15.5491 137.221 15.4192 136.849 15.4031 136.463C15.1991 131.935 14.0055 108.63 10.5305 94.414C9.85503 91.6253 10.0202 88.6991 11.0052 86.0042C11.9902 83.3093 13.7509 80.9663 16.0654 79.2704C16.2523 79.1361 16.4429 79.0042 16.6371 78.8748C18.6469 77.5368 20.9656 76.7354 23.3727 76.5467C25.7797 76.358 28.195 76.7884 30.3887 77.7968C32.655 78.8109 34.6242 80.388 36.1087 82.3781C37.5933 84.3682 38.544 86.7051 38.8702 89.1664L44.537 131.238C44.5734 131.501 44.556 131.769 44.4859 132.025C44.4158 132.281 44.2944 132.52 44.1292 132.728C43.9675 132.934 43.7656 133.105 43.5357 133.231C43.3057 133.357 43.0526 133.435 42.7917 133.46C40.8281 133.656 36.7556 134.417 31.5435 137.313C29.0371 138.702 26.2156 139.422 23.3504 139.404Z" fill="#3F3D56"/>
<path d="M16.4225 104.53L7.09688 102.002C6.59266 101.865 6.1635 101.533 5.90356 101.08C5.64362 100.626 5.57411 100.088 5.71029 99.5838L8.98863 87.4925C9.33976 86.1973 10.158 85.0779 11.2855 84.3503C12.4131 83.6227 13.7701 83.3383 15.0949 83.552C16.4198 83.7657 17.6185 84.4623 18.4602 85.5075C19.3018 86.5527 19.7266 87.8725 19.6527 89.2125L18.9064 102.737C18.8902 103.03 18.8088 103.316 18.6679 103.573C18.5271 103.831 18.3304 104.054 18.0923 104.226C17.8543 104.398 17.5808 104.515 17.2918 104.567C17.0029 104.62 16.7059 104.607 16.4225 104.53Z" fill="#3F3D56"/>
<path d="M26.8035 72.0843C32.745 72.0843 37.5616 67.2678 37.5616 61.3263C37.5616 55.3847 32.745 50.5682 26.8035 50.5682C20.862 50.5682 16.0455 55.3847 16.0455 61.3263C16.0455 67.2678 20.862 72.0843 26.8035 72.0843Z" fill="#FFB8B8"/>
<path d="M65.7883 82.4624C65.7346 82.6988 65.6995 82.939 65.6835 83.1808L46.8676 94.0357L42.2941 91.4028L37.4185 97.7857L47.2025 104.759L68.6686 87.8243C69.5441 88.1483 70.4975 88.198 71.402 87.967C72.3065 87.7359 73.1192 87.2349 73.732 86.5307C74.3449 85.8265 74.7288 84.9524 74.8328 84.0247C74.9367 83.097 74.7558 82.1596 74.314 81.3372C73.8722 80.5148 73.1906 79.8464 72.3597 79.4208C71.5288 78.9953 70.588 78.8328 69.6625 78.9549C68.737 79.0771 67.8706 79.4781 67.1786 80.1047C66.4865 80.7312 66.0016 81.5536 65.7883 82.4624V82.4624Z" fill="#FFB8B8"/>
<path d="M45.3082 94.5595L37.2031 99.8194C36.7644 100.103 36.231 100.202 35.7198 100.093C35.2087 99.9841 34.7616 99.677 34.4767 99.2389L27.6568 88.73C26.9262 87.6044 26.6383 86.2481 26.8485 84.9227C27.0588 83.5973 27.7523 82.3967 28.7953 81.5524C29.8384 80.7081 31.1571 80.2798 32.4972 80.3502C33.8373 80.4206 35.1039 80.9847 36.0527 81.9337L45.6291 91.5124C45.8368 91.7201 45.9954 91.9715 46.0934 92.2484C46.1914 92.5252 46.2263 92.8204 46.1956 93.1125C46.1648 93.4046 46.0692 93.6861 45.9156 93.9364C45.7621 94.1868 45.5546 94.3996 45.3082 94.5595Z" fill="#3F3D56"/>
<path d="M19.1906 69.8375C21.1976 71.9754 24.9248 70.8278 25.1863 67.9072C25.2068 67.6804 25.2053 67.4522 25.1818 67.2257C25.0468 65.932 24.2994 64.7575 24.4784 63.3915C24.519 63.0516 24.6456 62.7276 24.8464 62.4503C26.4457 60.3087 30.1999 63.4082 31.7093 61.4694C32.6348 60.2807 31.5469 58.409 32.2571 57.0803C33.1945 55.3267 35.9709 56.1918 37.7121 55.2314C39.6493 54.1629 39.5334 51.1906 38.2582 49.3827C36.703 47.178 33.9763 46.0015 31.2836 45.8319C28.5908 45.6624 25.9166 46.3903 23.4027 47.37C20.5464 48.4831 17.7139 50.0215 15.9562 52.5331C13.8186 55.5874 13.6129 59.6937 14.6819 63.2652C15.3322 65.4378 17.5517 68.0918 19.1906 69.8375Z" fill="#2F2E41"/>
<path d="M61.7599 211.408H0.438036C0.321868 211.408 0.210457 211.362 0.128314 211.28C0.0461703 211.198 2.28882e-05 211.086 2.28882e-05 210.97C2.28882e-05 210.854 0.0461703 210.742 0.128314 210.66C0.210457 210.578 0.321868 210.532 0.438036 210.532H61.7599C61.8761 210.532 61.9875 210.578 62.0696 210.66C62.1518 210.742 62.1979 210.854 62.1979 210.97C62.1979 211.086 62.1518 211.198 62.0696 211.28C61.9875 211.362 61.8761 211.408 61.7599 211.408Z" fill="#3F3D56"/>
</g>
<defs>
<clipPath id="clip0_67_487">
<rect width="400" height="211.408" fill="white"/>
</clipPath>
</defs>
</svg>
