<svg width="210" height="270" viewBox="0 0 210 270" fill="none" xmlns="http://www.w3.org/2000/svg">
<path d="M92.9664 116.099C65.9713 83.6714 -22.624 79.3808 -54.388 105.695C-68.6939 117.546 -68.1266 135.574 -52.8529 153.922C-36.2499 173.866 -15.006 178.519 -1.69035 194.515C11.7409 210.649 12.4542 232.372 28.911 252.141C44.1848 270.488 61.8454 274.356 76.1513 262.505C107.915 236.191 119.962 148.527 92.9664 116.099ZM48.0681 51.674C58.7361 35.6607 57.0427 14.9567 44.2905 5.42873C31.5382 -4.09924 12.5549 1.1599 1.88693 17.1732C-8.78107 33.1865 -7.08761 53.8905 5.66461 63.4185C18.4168 72.9464 37.4001 67.6873 48.0681 51.674ZM85.3863 79.2138C99.241 89.0843 121.638 81.2113 135.411 61.6319C149.184 42.0524 149.114 18.182 135.26 8.31152C121.405 -1.55897 99.0086 6.31398 85.2352 25.8934C71.4618 45.4729 71.531 69.3508 85.3863 79.2138ZM193.071 184.159C186.024 169.904 165.937 164.444 148.195 171.96C130.456 179.479 121.787 197.128 128.833 211.383C135.88 225.638 155.966 231.097 173.709 223.582C191.448 216.063 200.117 198.414 193.071 184.159ZM127.92 130.308C135.102 145.707 158.61 150.16 180.434 140.25C202.257 130.341 214.125 109.829 206.948 94.4264C199.771 79.0242 176.258 74.5742 154.434 84.4837C132.611 94.3932 120.739 114.909 127.92 130.308Z" fill="#A5CBE0" fill-opacity="0.2"/>
</svg>
