<svg width="78" height="87" viewBox="0 0 78 87" fill="none" xmlns="http://www.w3.org/2000/svg">
<g clip-path="url(#clip0_863_1212)">
<path d="M29.5977 53.2825C30.0364 54.1318 29.954 55.0465 29.4135 55.3257C28.8731 55.6049 28.0794 55.1427 27.6407 54.2935C27.4487 53.9218 27.3565 53.5375 27.3589 53.1994L25.5452 49.5777L27.2629 48.7627L28.8686 52.4196C29.1456 52.6133 29.4057 52.9108 29.5977 53.2825Z" fill="#FFB6B6"/>
<path d="M16.1004 85.9612L17.6468 85.9611L18.3825 79.9962L16.1001 79.9963L16.1004 85.9612Z" fill="#FFB6B6"/>
<path d="M21.3987 85.9261C21.4468 86.0072 21.4722 86.269 21.4722 86.3633C21.4722 86.6532 21.2373 86.8881 20.9474 86.8881H16.1583C15.9605 86.8881 15.8002 86.7278 15.8002 86.5301V86.3307C15.8002 86.3307 15.5633 85.7314 16.0511 84.9928C16.0511 84.9928 16.6573 85.5712 17.5631 84.6653L17.8303 84.1814L19.7639 85.5956L20.8357 85.7275C21.0702 85.7563 21.2781 85.723 21.3987 85.9261Z" fill="#2F2E41"/>
<path d="M8.84529 85.9612L10.3917 85.9611L11.1274 79.9962L8.84497 79.9963L8.84529 85.9612Z" fill="#FFB6B6"/>
<path d="M14.1436 85.9261C14.1917 86.0072 14.2171 86.269 14.2171 86.3633C14.2171 86.6532 13.9821 86.8881 13.6923 86.8881H8.90314C8.70538 86.8881 8.54507 86.7278 8.54507 86.5301V86.3307C8.54507 86.3307 8.30816 85.7314 8.79593 84.9928C8.79593 84.9928 9.40215 85.5712 10.308 84.6653L10.5751 84.1814L12.5088 85.5956L13.5806 85.7275C13.8151 85.7563 14.0229 85.723 14.1436 85.9261Z" fill="#2F2E41"/>
<path d="M6.65636 50.7674L6.00488 54.7486L8.03169 67.6333L8.53839 83.1962H11.2748L12.6644 68.5019L12.5196 58.8022L15.777 83.341H18.6205L18.8896 52.577L6.65636 50.7674Z" fill="#2F2E41"/>
<path d="M10.0585 30.1374H15.1813L19.6134 32.7433C18.9236 32.568 18.3907 38.9676 18.3726 44.6223C18.3714 44.998 17.999 45.4301 18.0025 45.7971C18.0054 46.1133 18.3836 46.3659 18.3902 46.6727C18.3963 46.9594 18.404 47.2414 18.4134 47.5175C18.4212 47.7467 17.9924 48.0504 18.0025 48.271C18.0154 48.5527 18.468 48.7484 18.4848 49.0135C18.5882 50.6436 18.7662 51.935 19.0343 52.577C19.0343 52.577 7.59735 55.762 6.72872 50.8398C6.72872 50.8398 6.77832 49.0706 6.77136 46.6274C6.77075 46.4106 6.58614 46.214 6.58456 45.9874C6.58338 45.8189 6.76546 45.6224 6.76368 45.4493C6.76221 45.3069 6.58647 45.181 6.58456 45.0359C6.58342 44.9493 6.75627 44.8443 6.75496 44.7569C6.6855 40.111 6.37356 34.2561 5.28101 32.7433L10.0585 30.1374Z" fill="#323F8D"/>
<path d="M15.1255 30.1374C15.1255 30.1374 18.445 31.3438 19.4983 32.3048C20.0581 32.8154 23.8118 42.443 23.8118 42.443L29.0256 51.523L26.3154 52.5524L20.7716 44.1803L18.3105 38.679L15.1255 30.1374Z" fill="#323F8D"/>
<path d="M8.24019 53.6261C8.72435 54.4503 8.69168 55.3682 8.16721 55.6763C7.64274 55.9844 6.82509 55.566 6.34093 54.7419C6.129 54.3811 6.01612 54.0024 6.00015 53.6647L3.99243 50.1468L5.66337 49.2397L7.46524 52.804C7.75241 52.9824 8.02825 53.2654 8.24019 53.6261Z" fill="#FFB6B6"/>
<path d="M9.33466 34.6253L7.88694 31.2956C7.88694 31.2956 4.48481 32.3814 4.48481 33.9739C4.48481 33.9739 2.45801 46.1347 2.74755 49.1749L4.62958 52.5046L7.30785 50.4054L5.64298 46.569L9.33466 34.6253Z" fill="#323F8D"/>
<path d="M6.35718 56.2579L8.06486 52.8666L10.0584 55.6172L8.26421 57.3545L6.35718 56.2579Z" fill="#2F2E41"/>
<path d="M12.5718 29.1809C14.4016 29.1809 15.885 27.6975 15.885 25.8676C15.885 24.0378 14.4016 22.5544 12.5718 22.5544C10.7419 22.5544 9.25854 24.0378 9.25854 25.8676C9.25854 27.6975 10.7419 29.1809 12.5718 29.1809Z" fill="#FFB6B6"/>
<path d="M15.1552 22.1665C14.5794 21.9821 14.307 21.2972 13.7803 21.0004C13.1979 20.6721 12.5011 20.4671 11.8588 20.6529C11.4647 20.7668 11.1214 21.0188 10.727 21.1318C10.6581 21.1515 10.5856 21.1652 10.5119 21.1722C10.0878 21.2126 9.72371 21.4669 9.51175 21.8365L9.50622 21.846C9.38179 22.059 9.20492 22.2353 9.04795 22.4255C8.47513 23.1197 8.1651 24.0218 8.17148 24.9217C8.17834 25.8891 8.55056 26.8496 9.19739 27.5689L9.36263 27.4927C9.76194 27.8377 10.1612 28.1826 10.5606 28.5275C10.3433 27.7434 10.1239 26.9318 10.239 26.1263C10.354 25.3208 10.8957 24.5172 11.6943 24.3617C11.9965 24.3029 12.3151 24.3384 12.6084 24.245C12.9017 24.1516 13.1719 23.8501 13.0712 23.5592C13.2529 24.0393 13.9302 24.011 14.3965 24.2258C15.44 24.7065 15.058 23.9635 15.9638 24.6703C16.2698 22.9746 17.4418 22.8989 15.1552 22.1665Z" fill="#2F2E41"/>
<path d="M0 86.7735C0 86.8991 0.100864 87 0.226467 87H76.972C77.0976 87 77.1985 86.8991 77.1985 86.7735C77.1985 86.6479 77.0976 86.5471 76.972 86.5471H0.226467C0.100864 86.5471 0 86.6479 0 86.7735Z" fill="#CCCCCC"/>
<path d="M66.9322 87H33.3588C29.2651 87 25.9346 83.6695 25.9346 79.5757V7.42418C25.9346 3.3305 29.2651 0 33.3588 0H66.9322C71.0258 0 74.3563 3.3305 74.3563 7.42418V79.5757C74.3563 83.6695 71.0258 87 66.9322 87Z" fill="#3F3D56"/>
<path d="M74.3563 26.5397C74.1831 26.5397 74.0422 26.6806 74.0422 26.8538V36.9043C74.0422 37.0775 74.1831 37.2184 74.3563 37.2184C74.5295 37.2184 74.6704 37.0775 74.6704 36.9043V26.8538C74.6704 26.6806 74.5295 26.5397 74.3563 26.5397Z" fill="#3F3D56"/>
<path d="M73.6497 7.42423V79.5745C73.6497 83.1377 70.8764 86.0524 67.3697 86.2785H67.3681C67.3163 86.2817 67.2645 86.2848 67.2111 86.2864C67.1184 86.2911 67.0258 86.2927 66.9315 86.2927C66.9315 86.2927 66.5861 86.2675 65.9547 86.2204C65.3172 86.1733 64.3891 86.1026 63.2317 86.01C62.8846 85.9833 62.5187 85.9534 62.1324 85.922C61.3629 85.8592 60.518 85.7901 59.6119 85.7116C59.2507 85.6818 58.877 85.6488 58.4954 85.6158C56.5449 85.4478 54.3605 85.2515 52.0567 85.0285C51.6673 84.9924 51.2747 84.9547 50.879 84.9154C50.7753 84.9044 50.6701 84.895 50.5649 84.884C48.9222 84.7223 26.6414 80.4162 26.6414 79.5745V7.42423C26.6414 3.7134 29.6487 0.706085 33.3595 0.706085H37.3703C38.011 0.706085 38.5261 1.20547 38.5811 1.84462C38.5858 1.88703 38.5905 1.92942 38.5984 1.97182C38.7146 2.61412 39.3035 3.06168 39.9567 3.06168H60.3343C60.9876 3.06168 61.5765 2.61412 61.6927 1.97182C61.7005 1.92942 61.7053 1.88703 61.71 1.84462C61.7649 1.20547 62.28 0.706085 62.9207 0.706085H66.9315C70.6424 0.706085 73.6497 3.7134 73.6497 7.42423Z" fill="white"/>
<path d="M25.7775 19.0018C25.6042 19.0018 25.4634 19.1427 25.4634 19.3159V21.8285C25.4634 22.0017 25.6042 22.1426 25.7775 22.1426C25.9507 22.1426 26.0915 22.0017 26.0915 21.8285V19.3159C26.0915 19.1427 25.9507 19.0018 25.7775 19.0018Z" fill="#3F3D56"/>
<path d="M25.7775 26.5397C25.6042 26.5397 25.4634 26.6806 25.4634 26.8538V31.722C25.4634 31.8952 25.6042 32.0361 25.7775 32.0361C25.9507 32.0361 26.0915 31.8952 26.0915 31.722V26.8538C26.0915 26.6806 25.9507 26.5397 25.7775 26.5397Z" fill="#3F3D56"/>
<path d="M25.7775 33.4495C25.6042 33.4495 25.4634 33.5903 25.4634 33.7635V38.6318C25.4634 38.805 25.6042 38.9458 25.7775 38.9458C25.9507 38.9458 26.0915 38.805 26.0915 38.6318V33.7635C26.0915 33.5903 25.9507 33.4495 25.7775 33.4495Z" fill="#3F3D56"/>
<path d="M37.2611 1.80598H31.2546C31.222 1.80598 31.1956 1.83241 31.1956 1.86502V2.53215C31.1956 2.56475 31.222 2.59118 31.2546 2.59118H37.2611C37.2937 2.59118 37.3201 2.56475 37.3201 2.53215V1.86502C37.3201 1.83241 37.2937 1.80598 37.2611 1.80598Z" fill="#E6E6E6"/>
<path d="M63.9131 2.59117C64.26 2.59117 64.5412 2.30994 64.5412 1.96301C64.5412 1.61609 64.26 1.33485 63.9131 1.33485C63.5662 1.33485 63.2849 1.61609 63.2849 1.96301C63.2849 2.30994 63.5662 2.59117 63.9131 2.59117Z" fill="#E6E6E6"/>
<path d="M65.6406 2.59117C65.9875 2.59117 66.2688 2.30994 66.2688 1.96301C66.2688 1.61609 65.9875 1.33485 65.6406 1.33485C65.2937 1.33485 65.0125 1.61609 65.0125 1.96301C65.0125 2.30994 65.2937 2.59117 65.6406 2.59117Z" fill="#E6E6E6"/>
<path d="M67.3681 2.59117C67.7151 2.59117 67.9963 2.30994 67.9963 1.96301C67.9963 1.61609 67.7151 1.33485 67.3681 1.33485C67.0212 1.33485 66.74 1.61609 66.74 1.96301C66.74 2.30994 67.0212 2.59117 67.3681 2.59117Z" fill="#E6E6E6"/>
<path d="M63.4665 18.1086H36.8247C36.405 18.1086 36.0635 17.7671 36.0635 17.3474C36.0635 16.9277 36.405 16.5862 36.8247 16.5862H63.4665C63.8862 16.5862 64.2277 16.9277 64.2277 17.3474C64.2277 17.7671 63.8862 18.1086 63.4665 18.1086Z" fill="#E6E6E6"/>
<path d="M67.946 78.3381H58.0505C57.6308 78.3381 57.2893 77.9966 57.2893 77.5769C57.2893 77.1572 57.6308 76.8157 58.0505 76.8157H67.946C68.3657 76.8157 68.7072 77.1572 68.7072 77.5769C68.7072 77.9966 68.3657 78.3381 67.946 78.3381Z" fill="#E6E6E6"/>
<path d="M41.4946 78.3381H31.5991C31.1794 78.3381 30.8379 77.9966 30.8379 77.5769C30.8379 77.1572 31.1794 76.8157 31.5991 76.8157H41.4946C41.9143 76.8157 42.2558 77.1572 42.2558 77.5769C42.2558 77.9966 41.9143 78.3381 41.4946 78.3381Z" fill="#E6E6E6"/>
<path d="M68.7074 20.154H31.5837V20.3443H68.7074V20.154Z" fill="#3F3D56"/>
<path d="M63.4665 29.7168H36.8247C36.405 29.7168 36.0635 29.3754 36.0635 28.9556C36.0635 28.5359 36.405 28.1944 36.8247 28.1944H63.4665C63.8862 28.1944 64.2277 28.5359 64.2277 28.9556C64.2277 29.3754 63.8862 29.7168 63.4665 29.7168Z" fill="#E6E6E6"/>
<path d="M68.7074 31.7622H31.5837V31.9525H68.7074V31.7622Z" fill="#3F3D56"/>
<path d="M63.4665 41.3251H36.8247C36.405 41.3251 36.0635 40.9836 36.0635 40.5639C36.0635 40.1442 36.405 39.8027 36.8247 39.8027H63.4665C63.8862 39.8027 64.2277 40.1442 64.2277 40.5639C64.2277 40.9836 63.8862 41.3251 63.4665 41.3251Z" fill="#E6E6E6"/>
<path d="M68.7074 43.3704H31.5837V43.5607H68.7074V43.3704Z" fill="#3F3D56"/>
<path d="M68.7074 53.2659H31.5837V53.4562H68.7074V53.2659Z" fill="#3F3D56"/>
<path d="M68.7074 63.1614H31.5837V63.3517H68.7074V63.1614Z" fill="#3F3D56"/>
<path d="M50.4067 70.1223C56.5025 70.1223 61.444 65.1808 61.444 59.085C61.444 52.9893 56.5025 48.0477 50.4067 48.0477C44.311 48.0477 39.3694 52.9893 39.3694 59.085C39.3694 65.1808 44.311 70.1223 50.4067 70.1223Z" fill="#323F8D"/>
</g>
<defs>
<clipPath id="clip0_863_1212">
<rect width="77.1985" height="87" fill="white"/>
</clipPath>
</defs>
</svg>
