<svg width="102" height="87" viewBox="0 0 102 87" fill="none" xmlns="http://www.w3.org/2000/svg">
<g clip-path="url(#clip0_863_1393)">
<path d="M7.61317 79.8391C8.19738 80.0444 8.82463 80.0959 9.4345 79.9885C10.0444 79.881 10.6163 79.6184 11.0952 79.2257C12.3147 78.202 12.6972 76.5161 13.0082 74.9546L13.9285 70.3358L12.0019 71.6624C10.6163 72.6164 9.19956 73.6011 8.24029 74.9829C7.28101 76.3647 6.86251 78.2511 7.63303 79.7463" fill="#E6E6E6"/>
<path d="M7.91063 85.7525C7.66814 83.9859 7.41864 82.1963 7.58915 80.4107C7.74025 78.8249 8.22408 77.2763 9.20908 76.006C9.73191 75.3331 10.3681 74.7566 11.0891 74.3023C11.277 74.1837 11.45 74.4816 11.2629 74.5997C10.0154 75.3881 9.05052 76.5522 8.50732 77.9243C7.90741 79.4501 7.81109 81.1134 7.91442 82.7343C7.97688 83.7144 8.10961 84.6882 8.24291 85.6608C8.25343 85.7048 8.24686 85.7511 8.22452 85.7904C8.20219 85.8297 8.16575 85.8591 8.12258 85.8726C8.07854 85.8845 8.0316 85.8785 7.99195 85.856C7.95229 85.8334 7.92312 85.7962 7.91075 85.7523L7.91063 85.7525Z" fill="#F2F2F2"/>
<path d="M9.65601 82.9177C9.90652 83.2986 10.2509 83.6086 10.656 83.8177C11.0611 84.0269 11.5132 84.1281 11.9688 84.1118C13.14 84.0562 14.1159 83.2392 14.9943 82.4633L17.5932 80.1687L15.8732 80.0864C14.6363 80.0271 13.3675 79.9716 12.1894 80.3535C11.0113 80.7353 9.92479 81.6529 9.70939 82.8724" fill="#E6E6E6"/>
<path d="M7.22529 86.7681C8.39273 84.7024 9.74674 82.4067 12.1664 81.6729C12.8391 81.4696 13.5444 81.3968 14.2445 81.4583C14.4652 81.4774 14.4101 81.8175 14.1899 81.7985C13.0164 81.7011 11.8451 82.011 10.8733 82.6759C9.93814 83.3125 9.20999 84.1975 8.59377 85.1359C8.21626 85.7107 7.87813 86.31 7.54 86.9084C7.43196 87.0996 7.11599 86.9615 7.22529 86.7681Z" fill="#F2F2F2"/>
<path d="M100.638 61.2678H36.2754C36.0771 61.2676 35.887 61.1887 35.7467 61.0484C35.6065 60.9082 35.5276 60.7181 35.5273 60.5198V0.74808C35.5276 0.549757 35.6065 0.359629 35.7467 0.219394C35.887 0.079158 36.0771 0.000259258 36.2754 0H100.638C100.836 0.000259258 101.026 0.079158 101.167 0.219394C101.307 0.359629 101.386 0.549757 101.386 0.74808V60.5196C101.386 60.7179 101.307 60.9081 101.167 61.0483C101.026 61.1886 100.836 61.2676 100.638 61.2678Z" fill="white"/>
<path d="M100.638 61.2678H36.2754C36.0771 61.2676 35.887 61.1887 35.7467 61.0484C35.6065 60.9082 35.5276 60.7181 35.5273 60.5198V0.74808C35.5276 0.549757 35.6065 0.359629 35.7467 0.219394C35.887 0.079158 36.0771 0.000259258 36.2754 0H100.638C100.836 0.000259258 101.026 0.079158 101.167 0.219394C101.307 0.359629 101.386 0.549757 101.386 0.74808V60.5196C101.386 60.7179 101.307 60.9081 101.167 61.0483C101.026 61.1886 100.836 61.2676 100.638 61.2678ZM36.2754 0.298643C36.1566 0.298901 36.0427 0.346232 35.9586 0.430278C35.8746 0.514323 35.8272 0.62824 35.827 0.747098V60.5196C35.8272 60.6385 35.8746 60.7524 35.9586 60.8364C36.0427 60.9205 36.1566 60.9678 36.2754 60.9681H100.638C100.757 60.9678 100.871 60.9205 100.955 60.8365C101.039 60.7524 101.086 60.6385 101.086 60.5196V0.74808C101.086 0.629222 101.039 0.515305 100.955 0.43126C100.871 0.347214 100.757 0.299882 100.638 0.299624L36.2754 0.298643Z" fill="#CACACA"/>
<path d="M66.6879 15.5319C66.5534 15.5321 66.4244 15.5857 66.3293 15.6809C66.2343 15.7761 66.1809 15.9052 66.1809 16.0397C66.1809 16.1743 66.2343 16.3033 66.3293 16.3986C66.4244 16.4938 66.5534 16.5474 66.6879 16.5476H94.556C94.6905 16.5474 94.8195 16.4938 94.9145 16.3986C95.0096 16.3033 95.063 16.1743 95.063 16.0397C95.063 15.9052 95.0096 15.7761 94.9145 15.6809C94.8195 15.5857 94.6905 15.5321 94.556 15.5319H66.6879Z" fill="#E4E4E4"/>
<path d="M66.6878 18.5794C66.5533 18.5797 66.4245 18.6334 66.3295 18.7286C66.2345 18.8238 66.1812 18.9528 66.1812 19.0873C66.1812 19.2218 66.2345 19.3507 66.3295 19.446C66.4245 19.5412 66.5533 19.5948 66.6878 19.5951H80.915C81.0495 19.5948 81.1784 19.5412 81.2733 19.446C81.3683 19.3507 81.4217 19.2218 81.4217 19.0873C81.4217 18.9528 81.3683 18.8238 81.2733 18.7286C81.1784 18.6334 81.0495 18.5797 80.915 18.5794H66.6878Z" fill="#E4E4E4"/>
<path d="M42.3301 34.9679C42.1956 34.9683 42.0668 35.0219 41.9718 35.1171C41.8768 35.2123 41.8235 35.3413 41.8235 35.4758C41.8235 35.6103 41.8768 35.7393 41.9718 35.8345C42.0668 35.9297 42.1956 35.9834 42.3301 35.9837H94.5829C94.7174 35.9834 94.8463 35.9297 94.9412 35.8345C95.0362 35.7393 95.0896 35.6103 95.0896 35.4758C95.0896 35.3413 95.0362 35.2123 94.9412 35.1171C94.8463 35.0219 94.7174 34.9683 94.5829 34.9679H42.3301Z" fill="#E4E4E4"/>
<path d="M42.3301 38.0155C42.1956 38.0158 42.0668 38.0695 41.9718 38.1647C41.8768 38.2599 41.8235 38.3889 41.8235 38.5233C41.8235 38.6578 41.8768 38.7868 41.9718 38.882C42.0668 38.9772 42.1956 39.0309 42.3301 39.0312H80.9421C81.0765 39.0309 81.2054 38.9772 81.3004 38.882C81.3954 38.7868 81.4487 38.6578 81.4487 38.5233C81.4487 38.3889 81.3954 38.2599 81.3004 38.1647C81.2054 38.0695 81.0765 38.0158 80.9421 38.0155H42.3301Z" fill="#E4E4E4"/>
<path d="M42.3301 40.9941C42.1956 40.9944 42.0668 41.048 41.9718 41.1432C41.8768 41.2384 41.8235 41.3674 41.8235 41.5019C41.8235 41.6364 41.8768 41.7654 41.9718 41.8606C42.0668 41.9558 42.1956 42.0095 42.3301 42.0098H94.5829C94.7174 42.0095 94.8463 41.9558 94.9412 41.8606C95.0362 41.7654 95.0896 41.6364 95.0896 41.5019C95.0896 41.3674 95.0362 41.2384 94.9412 41.1432C94.8463 41.048 94.7174 40.9944 94.5829 40.9941H42.3301Z" fill="#E4E4E4"/>
<path d="M42.3301 44.0416C42.1956 44.0419 42.0668 44.0956 41.9718 44.1908C41.8768 44.286 41.8235 44.415 41.8235 44.5495C41.8235 44.6839 41.8768 44.8129 41.9718 44.9081C42.0668 45.0033 42.1956 45.057 42.3301 45.0573H80.9421C81.0765 45.057 81.2054 45.0033 81.3004 44.9081C81.3954 44.8129 81.4487 44.6839 81.4487 44.5495C81.4487 44.415 81.3954 44.286 81.3004 44.1908C81.2054 44.0956 81.0765 44.0419 80.9421 44.0416H42.3301Z" fill="#E4E4E4"/>
<path d="M42.3301 47.0995C42.1956 47.0998 42.0668 47.1535 41.9718 47.2487C41.8768 47.3439 41.8235 47.4729 41.8235 47.6074C41.8235 47.7419 41.8768 47.8709 41.9718 47.9661C42.0668 48.0613 42.1956 48.1149 42.3301 48.1152H94.5829C94.7174 48.1149 94.8463 48.0613 94.9412 47.9661C95.0362 47.8709 95.0896 47.7419 95.0896 47.6074C95.0896 47.4729 95.0362 47.3439 94.9412 47.2487C94.8463 47.1535 94.7174 47.0998 94.5829 47.0995H42.3301Z" fill="#E4E4E4"/>
<path d="M42.3301 50.147C42.1956 50.1474 42.0668 50.201 41.9718 50.2962C41.8768 50.3914 41.8235 50.5204 41.8235 50.6549C41.8235 50.7894 41.8768 50.9184 41.9718 51.0136C42.0668 51.1088 42.1956 51.1624 42.3301 51.1628H80.9421C81.0765 51.1624 81.2054 51.1088 81.3004 51.0136C81.3954 50.9184 81.4487 50.7894 81.4487 50.6549C81.4487 50.5204 81.3954 50.3914 81.3004 50.2962C81.2054 50.201 81.0765 50.1474 80.9421 50.147H42.3301Z" fill="#E4E4E4"/>
<path d="M50.6066 24.8602C49.1635 24.8602 47.7527 24.4323 46.5528 23.6305C45.3528 22.8288 44.4176 21.6892 43.8653 20.3559C43.313 19.0226 43.1685 17.5554 43.45 16.14C43.7316 14.7245 44.4265 13.4244 45.447 12.4039C46.4674 11.3834 47.7676 10.6885 49.183 10.4069C50.5985 10.1254 52.0656 10.2699 53.3989 10.8221C54.7322 11.3744 55.8718 12.3097 56.6736 13.5096C57.4754 14.7095 57.9033 16.1203 57.9033 17.5635C57.9011 19.498 57.1317 21.3527 55.7638 22.7206C54.3958 24.0885 52.5412 24.858 50.6066 24.8602Z" fill="#323F8D"/>
<path d="M28.4571 52.4498C28.4445 52.1834 28.3736 51.9231 28.2495 51.6871C28.1254 51.4511 27.9511 51.2452 27.7388 51.0839C27.5265 50.9226 27.2814 50.8098 27.0208 50.7534C26.7602 50.6971 26.4904 50.6986 26.2304 50.7578L23.8185 47.3588L21.3955 48.3207L24.8689 53.0729C24.9973 53.503 25.2791 53.8711 25.6607 54.1074C26.0424 54.3438 26.4975 54.4319 26.9398 54.355C27.3821 54.2782 27.7808 54.0419 28.0605 53.6907C28.3401 53.3396 28.4812 52.898 28.4571 52.4498Z" fill="#A0616A"/>
<path d="M23.7564 52.1979L16.4585 42.7303L19.193 34.1363C19.3933 31.9757 20.7454 31.3724 20.8029 31.3477L20.8907 31.3101L23.2702 37.6555L21.5231 42.3145L25.8113 49.5266L23.7564 52.1979Z" fill="#3F3D56"/>
<path d="M49.1009 23.0125C48.8363 23.0457 48.5823 23.1364 48.3566 23.2784C48.1309 23.4204 47.9391 23.6101 47.7947 23.8343C47.6503 24.0584 47.5567 24.3115 47.5207 24.5757C47.4847 24.8398 47.507 25.1087 47.5861 25.3633L44.3838 28.0308L45.5302 30.3722L49.9996 26.5417C50.4185 26.3805 50.7637 26.0711 50.9698 25.6723C51.1759 25.2735 51.2286 24.813 51.1178 24.3779C51.007 23.9429 50.7405 23.5636 50.3688 23.312C49.9971 23.0603 49.5459 22.9538 49.1009 23.0125Z" fill="#A0616A"/>
<path d="M49.2131 27.7185L40.3381 35.7266L31.5584 33.6648C29.3888 33.632 28.6827 32.3307 28.6537 32.2752L28.6094 32.1906L34.7519 29.3277L39.532 30.7093L46.391 25.8763L49.2131 27.7185Z" fill="#3F3D56"/>
<path d="M33.8403 84.6479L36.2248 84.6477L37.3591 75.4503L33.8398 75.4504L33.8403 84.6479Z" fill="#A0616A"/>
<path d="M40.8235 86.8618L33.3293 86.8621L33.3291 83.9666L38.7208 83.9664C39.2784 83.9663 39.8132 84.1878 40.2076 84.5821C40.6019 84.9764 40.8234 85.5112 40.8235 86.0688L40.8235 86.8618Z" fill="#2F2E41"/>
<path d="M24.3096 84.6479L26.6942 84.6477L27.8286 75.4503L24.3093 75.4504L24.3096 84.6479Z" fill="#A0616A"/>
<path d="M31.293 86.8618L23.7987 86.8621L23.7986 83.9666L29.1903 83.9664C29.4664 83.9664 29.7398 84.0207 29.9949 84.1264C30.25 84.232 30.4818 84.3869 30.6771 84.5821C30.8723 84.7774 31.0272 85.0091 31.1329 85.2642C31.2385 85.5193 31.2929 85.7927 31.2929 86.0688L31.293 86.8618Z" fill="#2F2E41"/>
<path d="M23.4617 51.076L23.6562 64.691L23.8508 82.585L28.1297 82.196L30.2692 57.4946L32.9923 82.196H37.4098L37.8547 57.3001L36.2988 51.854L23.4617 51.076Z" fill="#2F2E41"/>
<path d="M31.8366 52.9043C27.1808 52.9047 22.8951 50.7975 22.8373 50.7685L22.7892 50.7445L22.3985 41.368C22.2852 41.0366 20.0542 34.4985 19.6764 32.4203C19.2936 30.3149 24.842 28.4671 25.5157 28.251L25.6686 26.5572L31.8863 25.8872L32.6744 28.0545L34.905 28.8909C35.1579 28.9858 35.3672 29.1701 35.4932 29.409C35.6192 29.6479 35.6533 29.9248 35.5888 30.1871L34.3491 35.2287L37.377 51.9089L36.7251 51.9371C35.1626 52.6428 33.4762 52.9043 31.8366 52.9043Z" fill="#3F3D56"/>
<path d="M31.1683 24.2659C33.3378 23.0799 34.1351 20.3599 32.9491 18.1904C31.7632 16.021 29.0431 15.2237 26.8737 16.4096C24.7042 17.5955 23.9069 20.3156 25.0929 22.4851C26.2788 24.6545 28.9989 25.4518 31.1683 24.2659Z" fill="#A0616A"/>
<path d="M25.3951 24.6716C26.2483 25.5804 27.8327 25.0925 27.9439 23.851C27.9526 23.7546 27.952 23.6576 27.942 23.5613C27.8846 23.0113 27.5669 22.5121 27.643 21.9314C27.6602 21.7869 27.714 21.6491 27.7994 21.5312C28.4793 20.6209 30.0752 21.9384 30.7168 21.1143C31.1102 20.6089 30.6478 19.8133 30.9497 19.2485C31.3482 18.503 32.5284 18.8707 33.2686 18.4625C34.0921 18.0083 34.0429 16.7447 33.5008 15.9762C32.8397 15.039 31.6805 14.5388 30.5358 14.4668C29.3911 14.3947 28.2543 14.7041 27.1857 15.1206C25.9714 15.5938 24.7674 16.2478 24.0201 17.3154C23.1114 18.6138 23.024 20.3594 23.4785 21.8777C23.7549 22.8012 24.6984 23.9294 25.3951 24.6716Z" fill="#2F2E41"/>
<path d="M56.8849 86.9771H0.148913C0.109419 86.9771 0.07154 86.9615 0.0436133 86.9335C0.0156867 86.9056 0 86.8677 0 86.8282C0 86.7887 0.0156867 86.7509 0.0436133 86.7229C0.07154 86.695 0.109419 86.6793 0.148913 86.6793H56.8849C56.9244 86.6793 56.9623 86.695 56.9902 86.7229C57.0182 86.7509 57.0338 86.7887 57.0338 86.8282C57.0338 86.8677 57.0182 86.9056 56.9902 86.9335C56.9623 86.9615 56.9244 86.9771 56.8849 86.9771Z" fill="#CACACA"/>
<path d="M50.1853 20.3195C50.0537 20.3196 49.927 20.2698 49.8307 20.1801L47.4247 17.9454C47.3235 17.8512 47.2639 17.7208 47.2589 17.5828C47.2539 17.4447 47.3038 17.3104 47.3979 17.2091C47.4919 17.1079 47.6222 17.0482 47.7602 17.043C47.8983 17.0378 48.0327 17.0877 48.134 17.1816L50.172 19.0746L54.2041 15.0426C54.2524 14.9939 54.3099 14.9552 54.3732 14.9287C54.4365 14.9023 54.5044 14.8886 54.573 14.8885C54.6417 14.8884 54.7096 14.9018 54.773 14.928C54.8365 14.9542 54.8941 14.9927 54.9426 15.0412C54.9911 15.0897 55.0296 15.1473 55.0557 15.2108C55.0819 15.2742 55.0953 15.3422 55.0952 15.4108C55.0951 15.4794 55.0814 15.5473 55.0549 15.6106C55.0285 15.6739 54.9898 15.7314 54.9411 15.7797L50.5539 20.1668C50.5056 20.2153 50.4481 20.2537 50.3848 20.2799C50.3216 20.3061 50.2538 20.3195 50.1853 20.3195Z" fill="white"/>
</g>
<defs>
<clipPath id="clip0_863_1393">
<rect width="101.386" height="87" fill="white"/>
</clipPath>
</defs>
</svg>
