<svg width="120" height="87" viewBox="0 0 120 87" fill="none" xmlns="http://www.w3.org/2000/svg">
<g clip-path="url(#clip0_863_841)">
<path d="M69.6784 15.3371C71.9203 15.3371 73.7377 13.5197 73.7377 11.2778C73.7377 9.0359 71.9203 7.21849 69.6784 7.21849C67.4365 7.21849 65.6191 9.0359 65.6191 11.2778C65.6191 13.5197 67.4365 15.3371 69.6784 15.3371Z" fill="#F2F2F2"/>
<path d="M101.168 75.5817C107.201 70.986 110.083 63.2635 108.279 55.8966C108.234 55.7135 108.187 55.5309 108.137 55.3487C106.941 50.9758 103.982 46.8198 99.6689 45.4225C96.0476 44.2493 92.0949 45.1515 88.317 44.6849C80.9008 43.7691 75.1511 37.7685 71.1056 31.4858C67.06 25.2032 63.9508 18.1706 58.5751 12.9802C49.7141 4.42469 35.2595 2.58268 24.2732 8.15168C13.2868 13.7207 6.28861 26.076 6.58707 38.3896C6.88553 50.7032 14.1956 62.4759 24.8116 68.7221C28.7115 71.0166 33.2221 72.6422 37.711 72.0734C41.606 71.5798 45.1451 69.4869 49.0218 68.8656C55.1168 67.8887 61.173 70.6445 66.4448 73.8558C71.7165 77.0671 76.8086 80.8734 82.7992 82.3622C88.6161 83.8078 95.8226 79.6527 101.168 75.5817Z" fill="#F2F2F2"/>
<path d="M92.4986 8.41026C92.3663 8.32208 92.2325 8.23847 92.1002 8.15333C88.2768 5.70805 84.1788 3.72154 79.8907 2.23482L78.8965 15.9509H72.5933V0.232597C72.1965 0.150501 71.7967 0.0729665 71.3969 -7.62939e-06V15.9509H63.9064C59.7828 15.9509 55.8281 14.3128 52.9122 11.397C49.9964 8.48119 48.3583 4.52648 48.3583 0.402888C47.957 0.489545 47.5587 0.582269 47.1603 0.681088V15.9509H41.0594L40.1123 2.87183C35.7056 4.56183 31.5222 6.78427 27.655 9.48967C27.5881 9.53528 27.5212 9.58241 27.4558 9.62802C27.1198 9.86366 26.7884 10.1039 26.4585 10.3471V62.6741H44.439L44.1213 58.2729L42.3729 34.1078H77.5814L75.8331 58.2729L75.5153 62.6741H93.2967V8.93932C93.0322 8.75993 92.7661 8.58358 92.4986 8.41026ZM47.1604 30.117H42.0841L41.1461 17.1489H47.1604V30.117ZM71.3969 30.117H62.8711V29.8601C62.8711 29.7366 62.8467 29.6143 62.7994 29.5002C62.7521 29.3861 62.6828 29.2825 62.5954 29.1952C62.5079 29.1079 62.4042 29.0387 62.29 28.9916C62.1759 28.9445 62.0535 28.9203 61.93 28.9205H58.2235C58.1001 28.9205 57.9779 28.9448 57.8639 28.992C57.7499 29.0392 57.6463 29.1084 57.5591 29.1956C57.4718 29.2829 57.4026 29.3865 57.3554 29.5005C57.3082 29.6145 57.2839 29.7367 57.284 29.8601V30.117H48.3583V17.1489H71.3969V30.117ZM72.5933 30.117V17.1489H78.8098L77.8718 30.117H72.5933Z" fill="#3F3D56"/>
<path d="M0 66.025C1.32072 67.5899 2.74922 69.0606 4.27507 70.4262L115.345 70.5783C116.871 69.2126 118.299 67.7419 119.62 66.177L0 66.025Z" fill="#3F3D56"/>
<path d="M75.3198 51.9319V64.9614C75.32 65.1275 75.386 65.2867 75.5034 65.4041C75.6208 65.5215 75.78 65.5875 75.946 65.5877H95.2545C95.4205 65.5875 95.5797 65.5215 95.6971 65.4041C95.8145 65.2867 95.8805 65.1275 95.8807 64.9614V51.9319C95.8803 51.766 95.8142 51.607 95.6968 51.4898C95.5794 51.3726 95.4204 51.3066 95.2545 51.3064H75.946C75.7801 51.3066 75.6211 51.3726 75.5037 51.4898C75.3863 51.607 75.3202 51.766 75.3198 51.9319Z" fill="#3F3D56"/>
<path d="M75.7729 52.094V64.8007C75.7731 64.8894 75.8084 64.9745 75.8711 65.0372C75.9339 65.0999 76.0189 65.1352 76.1076 65.1354H95.0939C95.1826 65.1352 95.2676 65.0999 95.3304 65.0372C95.3931 64.9745 95.4284 64.8894 95.4286 64.8007V52.094C95.4286 52.0052 95.3933 51.92 95.3306 51.8572C95.2678 51.7943 95.1827 51.7589 95.0939 51.7587H76.1076C76.0188 51.7589 75.9337 51.7943 75.8709 51.8572C75.8082 51.92 75.773 52.0052 75.7729 52.094Z" fill="#323F8D"/>
<path d="M74.9161 67.5025C74.9515 67.5469 74.9964 67.5827 75.0476 67.6071C75.0988 67.6316 75.1548 67.6442 75.2116 67.6439H95.8864C95.9429 67.6438 95.9987 67.6312 96.0497 67.6068C96.1008 67.5825 96.1457 67.547 96.1813 67.5031C96.217 67.4592 96.2423 67.4079 96.2556 67.353C96.2689 67.298 96.2698 67.2408 96.2582 67.1854L95.9373 65.661C95.924 65.5988 95.8953 65.541 95.854 65.4927C95.8126 65.4444 95.7598 65.4073 95.7004 65.3846C95.6574 65.3678 95.6116 65.3591 95.5654 65.3592H75.5312C75.485 65.3591 75.4392 65.3678 75.3962 65.3846C75.3368 65.4073 75.284 65.4444 75.2427 65.4927C75.2013 65.541 75.1727 65.5988 75.1594 65.661L74.8384 67.1854C74.827 67.2408 74.828 67.2979 74.8415 67.3528C74.8549 67.4076 74.8804 67.4588 74.9161 67.5025Z" fill="#2F2E41"/>
<path d="M94.8559 66.0158H95.3442C95.3852 66.0158 95.4185 65.9826 95.4185 65.9416V65.7079C95.4185 65.6669 95.3852 65.6337 95.3442 65.6337H94.8559C94.8149 65.6337 94.7817 65.6669 94.7817 65.7079V65.9416C94.7817 65.9826 94.8149 66.0158 94.8559 66.0158Z" fill="#3F3D56"/>
<path d="M93.5825 66.0158H94.0708C94.1118 66.0158 94.145 65.9826 94.145 65.9416V65.7079C94.145 65.6669 94.1118 65.6337 94.0708 65.6337H93.5825C93.5415 65.6337 93.5082 65.6669 93.5082 65.7079V65.9416C93.5082 65.9826 93.5415 66.0158 93.5825 66.0158Z" fill="#3F3D56"/>
<path d="M92.3088 66.0158H92.7971C92.8381 66.0158 92.8713 65.9826 92.8713 65.9416V65.7079C92.8713 65.6669 92.8381 65.6337 92.7971 65.6337H92.3088C92.2678 65.6337 92.2346 65.6669 92.2346 65.7079V65.9416C92.2346 65.9826 92.2678 66.0158 92.3088 66.0158Z" fill="#3F3D56"/>
<path d="M91.0353 66.0158H91.5237C91.5647 66.0158 91.5979 65.9826 91.5979 65.9416V65.7079C91.5979 65.6669 91.5647 65.6337 91.5237 65.6337H91.0353C90.9944 65.6337 90.9611 65.6669 90.9611 65.7079V65.9416C90.9611 65.9826 90.9944 66.0158 91.0353 66.0158Z" fill="#3F3D56"/>
<path d="M89.7619 66.0158H90.2502C90.2912 66.0158 90.3245 65.9826 90.3245 65.9416V65.7079C90.3245 65.6669 90.2912 65.6337 90.2502 65.6337H89.7619C89.7209 65.6337 89.6877 65.6669 89.6877 65.7079V65.9416C89.6877 65.9826 89.7209 66.0158 89.7619 66.0158Z" fill="#3F3D56"/>
<path d="M88.4882 66.0158H88.9766C89.0175 66.0158 89.0508 65.9826 89.0508 65.9416V65.7079C89.0508 65.6669 89.0175 65.6337 88.9766 65.6337H88.4882C88.4472 65.6337 88.414 65.6669 88.414 65.7079V65.9416C88.414 65.9826 88.4472 66.0158 88.4882 66.0158Z" fill="#3F3D56"/>
<path d="M87.2148 66.0158H87.7031C87.7441 66.0158 87.7773 65.9826 87.7773 65.9416V65.7079C87.7773 65.6669 87.7441 65.6337 87.7031 65.6337H87.2148C87.1738 65.6337 87.1406 65.6669 87.1406 65.7079V65.9416C87.1406 65.9826 87.1738 66.0158 87.2148 66.0158Z" fill="#3F3D56"/>
<path d="M85.9411 66.0158H86.4294C86.4704 66.0158 86.5037 65.9826 86.5037 65.9416V65.7079C86.5037 65.6669 86.4704 65.6337 86.4294 65.6337H85.9411C85.9001 65.6337 85.8669 65.6669 85.8669 65.7079V65.9416C85.8669 65.9826 85.9001 66.0158 85.9411 66.0158Z" fill="#3F3D56"/>
<path d="M84.6677 66.0158H85.156C85.197 66.0158 85.2302 65.9826 85.2302 65.9416V65.7079C85.2302 65.6669 85.197 65.6337 85.156 65.6337H84.6677C84.6267 65.6337 84.5935 65.6669 84.5935 65.7079V65.9416C84.5935 65.9826 84.6267 66.0158 84.6677 66.0158Z" fill="#3F3D56"/>
<path d="M83.394 66.0158H83.8823C83.9233 66.0158 83.9565 65.9826 83.9565 65.9416V65.7079C83.9565 65.6669 83.9233 65.6337 83.8823 65.6337H83.394C83.353 65.6337 83.3198 65.6669 83.3198 65.7079V65.9416C83.3198 65.9826 83.353 66.0158 83.394 66.0158Z" fill="#3F3D56"/>
<path d="M82.1205 66.0158H82.6089C82.6499 66.0158 82.6831 65.9826 82.6831 65.9416V65.7079C82.6831 65.6669 82.6499 65.6337 82.6089 65.6337H82.1205C82.0796 65.6337 82.0463 65.6669 82.0463 65.7079V65.9416C82.0463 65.9826 82.0796 66.0158 82.1205 66.0158Z" fill="#3F3D56"/>
<path d="M80.8469 66.0158H81.3352C81.3762 66.0158 81.4094 65.9826 81.4094 65.9416V65.7079C81.4094 65.6669 81.3762 65.6337 81.3352 65.6337H80.8469C80.8059 65.6337 80.7726 65.6669 80.7726 65.7079V65.9416C80.7726 65.9826 80.8059 66.0158 80.8469 66.0158Z" fill="#3F3D56"/>
<path d="M79.5734 66.0158H80.0618C80.1028 66.0158 80.136 65.9826 80.136 65.9416V65.7079C80.136 65.6669 80.1028 65.6337 80.0618 65.6337H79.5734C79.5324 65.6337 79.4992 65.6669 79.4992 65.7079V65.9416C79.4992 65.9826 79.5324 66.0158 79.5734 66.0158Z" fill="#3F3D56"/>
<path d="M78.3 66.0158H78.7883C78.8293 66.0158 78.8625 65.9826 78.8625 65.9416V65.7079C78.8625 65.6669 78.8293 65.6337 78.7883 65.6337H78.3C78.259 65.6337 78.2258 65.6669 78.2258 65.7079V65.9416C78.2258 65.9826 78.259 66.0158 78.3 66.0158Z" fill="#3F3D56"/>
<path d="M77.0263 66.0158H77.5147C77.5556 66.0158 77.5889 65.9826 77.5889 65.9416V65.7079C77.5889 65.6669 77.5556 65.6337 77.5147 65.6337H77.0263C76.9853 65.6337 76.9521 65.6669 76.9521 65.7079V65.9416C76.9521 65.9826 76.9853 66.0158 77.0263 66.0158Z" fill="#3F3D56"/>
<path d="M75.7529 66.0158H76.2412C76.2822 66.0158 76.3154 65.9826 76.3154 65.9416V65.7079C76.3154 65.6669 76.2822 65.6337 76.2412 65.6337H75.7529C75.7119 65.6337 75.6787 65.6669 75.6787 65.7079V65.9416C75.6787 65.9826 75.7119 66.0158 75.7529 66.0158Z" fill="#3F3D56"/>
<path d="M94.871 66.6526H95.3594C95.4004 66.6526 95.4336 66.6193 95.4336 66.5783V66.3447C95.4336 66.3037 95.4004 66.2705 95.3594 66.2705H94.871C94.83 66.2705 94.7968 66.3037 94.7968 66.3447V66.5783C94.7968 66.6193 94.83 66.6526 94.871 66.6526Z" fill="#3F3D56"/>
<path d="M93.5976 66.6526H94.0859C94.1269 66.6526 94.1602 66.6193 94.1602 66.5783V66.3447C94.1602 66.3037 94.1269 66.2705 94.0859 66.2705H93.5976C93.5566 66.2705 93.5234 66.3037 93.5234 66.3447V66.5783C93.5234 66.6193 93.5566 66.6526 93.5976 66.6526Z" fill="#3F3D56"/>
<path d="M92.3239 66.6526H92.8123C92.8532 66.6526 92.8865 66.6193 92.8865 66.5783V66.3447C92.8865 66.3037 92.8532 66.2705 92.8123 66.2705H92.3239C92.2829 66.2705 92.2497 66.3037 92.2497 66.3447V66.5783C92.2497 66.6193 92.2829 66.6526 92.3239 66.6526Z" fill="#3F3D56"/>
<path d="M91.0505 66.6526H91.5388C91.5798 66.6526 91.613 66.6193 91.613 66.5783V66.3447C91.613 66.3037 91.5798 66.2705 91.5388 66.2705H91.0505C91.0095 66.2705 90.9763 66.3037 90.9763 66.3447V66.5783C90.9763 66.6193 91.0095 66.6526 91.0505 66.6526Z" fill="#3F3D56"/>
<path d="M89.7768 66.6526H90.2651C90.3061 66.6526 90.3394 66.6193 90.3394 66.5783V66.3447C90.3394 66.3037 90.3061 66.2705 90.2651 66.2705H89.7768C89.7358 66.2705 89.7026 66.3037 89.7026 66.3447V66.5783C89.7026 66.6193 89.7358 66.6526 89.7768 66.6526Z" fill="#3F3D56"/>
<path d="M88.5034 66.6526H88.9917C89.0327 66.6526 89.0659 66.6193 89.0659 66.5783V66.3447C89.0659 66.3037 89.0327 66.2705 88.9917 66.2705H88.5034C88.4624 66.2705 88.4291 66.3037 88.4291 66.3447V66.5783C88.4291 66.6193 88.4624 66.6526 88.5034 66.6526Z" fill="#3F3D56"/>
<path d="M87.2297 66.6526H87.718C87.759 66.6526 87.7922 66.6193 87.7922 66.5783V66.3447C87.7922 66.3037 87.759 66.2705 87.718 66.2705H87.2297C87.1887 66.2705 87.1555 66.3037 87.1555 66.3447V66.5783C87.1555 66.6193 87.1887 66.6526 87.2297 66.6526Z" fill="#3F3D56"/>
<path d="M85.9562 66.6526H86.4446C86.4856 66.6526 86.5188 66.6193 86.5188 66.5783V66.3447C86.5188 66.3037 86.4856 66.2705 86.4446 66.2705H85.9562C85.9153 66.2705 85.882 66.3037 85.882 66.3447V66.5783C85.882 66.6193 85.9153 66.6526 85.9562 66.6526Z" fill="#3F3D56"/>
<path d="M84.6826 66.6526H85.1709C85.2119 66.6526 85.2451 66.6193 85.2451 66.5783V66.3447C85.2451 66.3037 85.2119 66.2705 85.1709 66.2705H84.6826C84.6416 66.2705 84.6083 66.3037 84.6083 66.3447V66.5783C84.6083 66.6193 84.6416 66.6526 84.6826 66.6526Z" fill="#3F3D56"/>
<path d="M83.4091 66.6526H83.8975C83.9384 66.6526 83.9717 66.6193 83.9717 66.5783V66.3447C83.9717 66.3037 83.9384 66.2705 83.8975 66.2705H83.4091C83.3681 66.2705 83.3349 66.3037 83.3349 66.3447V66.5783C83.3349 66.6193 83.3681 66.6526 83.4091 66.6526Z" fill="#3F3D56"/>
<path d="M82.1357 66.6526H82.624C82.665 66.6526 82.6982 66.6193 82.6982 66.5783V66.3447C82.6982 66.3037 82.665 66.2705 82.624 66.2705H82.1357C82.0947 66.2705 82.0615 66.3037 82.0615 66.3447V66.5783C82.0615 66.6193 82.0947 66.6526 82.1357 66.6526Z" fill="#3F3D56"/>
<path d="M80.862 66.6526H81.3503C81.3913 66.6526 81.4246 66.6193 81.4246 66.5783V66.3447C81.4246 66.3037 81.3913 66.2705 81.3503 66.2705H80.862C80.821 66.2705 80.7878 66.3037 80.7878 66.3447V66.5783C80.7878 66.6193 80.821 66.6526 80.862 66.6526Z" fill="#3F3D56"/>
<path d="M79.5886 66.6526H80.0769C80.1179 66.6526 80.1511 66.6193 80.1511 66.5783V66.3447C80.1511 66.3037 80.1179 66.2705 80.0769 66.2705H79.5886C79.5476 66.2705 79.5144 66.3037 79.5144 66.3447V66.5783C79.5144 66.6193 79.5476 66.6526 79.5886 66.6526Z" fill="#3F3D56"/>
<path d="M78.3149 66.6526H78.8032C78.8442 66.6526 78.8774 66.6193 78.8774 66.5783V66.3447C78.8774 66.3037 78.8442 66.2705 78.8032 66.2705H78.3149C78.2739 66.2705 78.2407 66.3037 78.2407 66.3447V66.5783C78.2407 66.6193 78.2739 66.6526 78.3149 66.6526Z" fill="#3F3D56"/>
<path d="M77.0414 66.6526H77.5298C77.5708 66.6526 77.604 66.6193 77.604 66.5783V66.3447C77.604 66.3037 77.5708 66.2705 77.5298 66.2705H77.0414C77.0005 66.2705 76.9672 66.3037 76.9672 66.3447V66.5783C76.9672 66.6193 77.0005 66.6526 77.0414 66.6526Z" fill="#3F3D56"/>
<path d="M75.7678 66.6526H76.2561C76.2971 66.6526 76.3303 66.6193 76.3303 66.5783V66.3447C76.3303 66.3037 76.2971 66.2705 76.2561 66.2705H75.7678C75.7268 66.2705 75.6935 66.3037 75.6935 66.3447V66.5783C75.6935 66.6193 75.7268 66.6526 75.7678 66.6526Z" fill="#3F3D56"/>
<path d="M84.3006 67.4167H89.2463C89.2873 67.4167 89.3206 67.3835 89.3206 67.3425V67.1088C89.3206 67.0679 89.2873 67.0346 89.2463 67.0346H84.3006C84.2596 67.0346 84.2264 67.0679 84.2264 67.1088V67.3425C84.2264 67.3835 84.2596 67.4167 84.3006 67.4167Z" fill="#3F3D56"/>
<path d="M79.0608 54.5386H78.6284C78.4974 54.5386 78.3911 54.6448 78.3911 54.7759C78.3911 54.907 78.4974 55.0132 78.6284 55.0132H79.0608C79.1918 55.0132 79.2981 54.907 79.2981 54.7759C79.2981 54.6448 79.1918 54.5386 79.0608 54.5386Z" fill="white"/>
<path d="M84.0051 54.5386H83.5728C83.4417 54.5386 83.3354 54.6448 83.3354 54.7759C83.3354 54.907 83.4417 55.0132 83.5728 55.0132H84.0051C84.1362 55.0132 84.2424 54.907 84.2424 54.7759C84.2424 54.6448 84.1362 54.5386 84.0051 54.5386Z" fill="white"/>
<path d="M85.4062 54.5386H84.9739C84.8428 54.5386 84.7366 54.6448 84.7366 54.7759C84.7366 54.907 84.8428 55.0132 84.9739 55.0132H85.4062C85.5373 55.0132 85.6436 54.907 85.6436 54.7759C85.6436 54.6448 85.5373 54.5386 85.4062 54.5386Z" fill="white"/>
<path d="M82.6604 54.499H79.9734C79.8423 54.499 79.7361 54.6053 79.7361 54.7363C79.7361 54.8674 79.8423 54.9737 79.9734 54.9737H82.6604C82.7915 54.9737 82.8977 54.8674 82.8977 54.7363C82.8977 54.6053 82.7915 54.499 82.6604 54.499Z" fill="white"/>
<path d="M89.2529 54.499H86.5659C86.4349 54.499 86.3286 54.6053 86.3286 54.7363C86.3286 54.8674 86.4349 54.9737 86.5659 54.9737H89.2529C89.384 54.9737 89.4902 54.8674 89.4902 54.7363C89.4902 54.6053 89.384 54.499 89.2529 54.499Z" fill="white"/>
<path d="M80.3791 55.6099H79.9468C79.8157 55.6099 79.7095 55.7161 79.7095 55.8472C79.7095 55.9783 79.8157 56.0845 79.9468 56.0845H80.3791C80.5102 56.0845 80.6165 55.9783 80.6165 55.8472C80.6165 55.7161 80.5102 55.6099 80.3791 55.6099Z" fill="white"/>
<path d="M85.3237 55.6099H84.8914C84.7603 55.6099 84.6541 55.7161 84.6541 55.8472C84.6541 55.9783 84.7603 56.0845 84.8914 56.0845H85.3237C85.4548 56.0845 85.561 55.9783 85.561 55.8472C85.561 55.7161 85.4548 55.6099 85.3237 55.6099Z" fill="white"/>
<path d="M86.7246 55.6099H86.2923C86.1612 55.6099 86.0549 55.7161 86.0549 55.8472C86.0549 55.9783 86.1612 56.0845 86.2923 56.0845H86.7246C86.8557 56.0845 86.9619 55.9783 86.9619 55.8472C86.9619 55.7161 86.8557 55.6099 86.7246 55.6099Z" fill="white"/>
<path d="M83.9787 55.5703H81.2918C81.1607 55.5703 81.0544 55.6766 81.0544 55.8076C81.0544 55.9387 81.1607 56.045 81.2918 56.045H83.9787C84.1098 56.045 84.2161 55.9387 84.2161 55.8076C84.2161 55.6766 84.1098 55.5703 83.9787 55.5703Z" fill="white"/>
<path d="M90.5715 55.5703H87.8845C87.7535 55.5703 87.6472 55.6766 87.6472 55.8076C87.6472 55.9387 87.7535 56.045 87.8845 56.045H90.5715C90.7026 56.045 90.8088 55.9387 90.8088 55.8076C90.8088 55.6766 90.7026 55.5703 90.5715 55.5703Z" fill="white"/>
<path d="M81.6977 56.6812H81.2654C81.1343 56.6812 81.0281 56.7874 81.0281 56.9185C81.0281 57.0496 81.1343 57.1558 81.2654 57.1558H81.6977C81.8288 57.1558 81.9351 57.0496 81.9351 56.9185C81.9351 56.7874 81.8288 56.6812 81.6977 56.6812Z" fill="white"/>
<path d="M86.6423 56.6812H86.21C86.0789 56.6812 85.9727 56.7874 85.9727 56.9185C85.9727 57.0496 86.0789 57.1558 86.21 57.1558H86.6423C86.7734 57.1558 86.8796 57.0496 86.8796 56.9185C86.8796 56.7874 86.7734 56.6812 86.6423 56.6812Z" fill="white"/>
<path d="M88.0432 56.6812H87.6109C87.4798 56.6812 87.3735 56.7874 87.3735 56.9185C87.3735 57.0496 87.4798 57.1558 87.6109 57.1558H88.0432C88.1743 57.1558 88.2805 57.0496 88.2805 56.9185C88.2805 56.7874 88.1743 56.6812 88.0432 56.6812Z" fill="white"/>
<path d="M85.2973 56.6416H82.6104C82.4793 56.6416 82.373 56.7479 82.373 56.8789C82.373 57.01 82.4793 57.1163 82.6104 57.1163H85.2973C85.4284 57.1163 85.5347 57.01 85.5347 56.8789C85.5347 56.7479 85.4284 56.6416 85.2973 56.6416Z" fill="white"/>
<path d="M91.8899 56.6416H89.2029C89.0718 56.6416 88.9656 56.7479 88.9656 56.8789C88.9656 57.01 89.0718 57.1163 89.2029 57.1163H91.8899C92.021 57.1163 92.1272 57.01 92.1272 56.8789C92.1272 56.7479 92.021 56.6416 91.8899 56.6416Z" fill="white"/>
<path d="M83.0163 57.7525H82.584C82.4529 57.7525 82.3467 57.8587 82.3467 57.9898C82.3467 58.1209 82.4529 58.2271 82.584 58.2271H83.0163C83.1474 58.2271 83.2537 58.1209 83.2537 57.9898C83.2537 57.8587 83.1474 57.7525 83.0163 57.7525Z" fill="white"/>
<path d="M87.9607 57.7525H87.5283C87.3973 57.7525 87.291 57.8587 87.291 57.9898C87.291 58.1209 87.3973 58.2271 87.5283 58.2271H87.9607C88.0917 58.2271 88.198 58.1209 88.198 57.9898C88.198 57.8587 88.0917 57.7525 87.9607 57.7525Z" fill="white"/>
<path d="M89.3616 57.7525H88.9292C88.7982 57.7525 88.6919 57.8587 88.6919 57.9898C88.6919 58.1209 88.7982 58.2271 88.9292 58.2271H89.3616C89.4926 58.2271 89.5989 58.1209 89.5989 57.9898C89.5989 57.8587 89.4926 57.7525 89.3616 57.7525Z" fill="white"/>
<path d="M86.6159 57.7129H83.929C83.7979 57.7129 83.6917 57.8192 83.6917 57.9502C83.6917 58.0813 83.7979 58.1876 83.929 58.1876H86.6159C86.747 58.1876 86.8533 58.0813 86.8533 57.9502C86.8533 57.8192 86.747 57.7129 86.6159 57.7129Z" fill="white"/>
<path d="M84.0051 62.0124H83.5728C83.4417 62.0124 83.3354 62.1187 83.3354 62.2497C83.3354 62.3808 83.4417 62.4871 83.5728 62.4871H84.0051C84.1362 62.4871 84.2424 62.3808 84.2424 62.2497C84.2424 62.1187 84.1362 62.0124 84.0051 62.0124Z" fill="white"/>
<path d="M85.4062 62.0124H84.9739C84.8428 62.0124 84.7366 62.1187 84.7366 62.2497C84.7366 62.3808 84.8428 62.4871 84.9739 62.4871H85.4062C85.5373 62.4871 85.6436 62.3808 85.6436 62.2497C85.6436 62.1187 85.5373 62.0124 85.4062 62.0124Z" fill="white"/>
<path d="M89.2529 62.052H86.5659C86.4349 62.052 86.3286 62.1582 86.3286 62.2893C86.3286 62.4204 86.4349 62.5266 86.5659 62.5266H89.2529C89.384 62.5266 89.4902 62.4204 89.4902 62.2893C89.4902 62.1582 89.384 62.052 89.2529 62.052Z" fill="white"/>
<path d="M79.0608 62.0124H78.6284C78.4974 62.0124 78.3911 62.1187 78.3911 62.2497C78.3911 62.3808 78.4974 62.4871 78.6284 62.4871H79.0608C79.1918 62.4871 79.2981 62.3808 79.2981 62.2497C79.2981 62.1187 79.1918 62.0124 79.0608 62.0124Z" fill="white"/>
<path d="M82.6604 62.052H79.9734C79.8423 62.052 79.7361 62.1582 79.7361 62.2893C79.7361 62.4204 79.8423 62.5266 79.9734 62.5266H82.6604C82.7915 62.5266 82.8977 62.4204 82.8977 62.2893C82.8977 62.1582 82.7915 62.052 82.6604 62.052Z" fill="white"/>
<path d="M80.3791 60.9411H79.9468C79.8157 60.9411 79.7095 61.0474 79.7095 61.1784C79.7095 61.3095 79.8157 61.4158 79.9468 61.4158H80.3791C80.5102 61.4158 80.6165 61.3095 80.6165 61.1784C80.6165 61.0474 80.5102 60.9411 80.3791 60.9411Z" fill="white"/>
<path d="M85.3237 60.9411H84.8914C84.7603 60.9411 84.6541 61.0474 84.6541 61.1784C84.6541 61.3095 84.7603 61.4158 84.8914 61.4158H85.3237C85.4548 61.4158 85.561 61.3095 85.561 61.1784C85.561 61.0474 85.4548 60.9411 85.3237 60.9411Z" fill="white"/>
<path d="M86.7246 60.9411H86.2923C86.1612 60.9411 86.0549 61.0474 86.0549 61.1784C86.0549 61.3095 86.1612 61.4158 86.2923 61.4158H86.7246C86.8557 61.4158 86.9619 61.3095 86.9619 61.1784C86.9619 61.0474 86.8557 60.9411 86.7246 60.9411Z" fill="white"/>
<path d="M83.9787 60.9807H81.2918C81.1607 60.9807 81.0544 61.0869 81.0544 61.218C81.0544 61.3491 81.1607 61.4553 81.2918 61.4553H83.9787C84.1098 61.4553 84.2161 61.3491 84.2161 61.218C84.2161 61.0869 84.1098 60.9807 83.9787 60.9807Z" fill="white"/>
<path d="M81.6977 59.8698H81.2654C81.1343 59.8698 81.0281 59.9761 81.0281 60.1071C81.0281 60.2382 81.1343 60.3445 81.2654 60.3445H81.6977C81.8288 60.3445 81.9351 60.2382 81.9351 60.1071C81.9351 59.9761 81.8288 59.8698 81.6977 59.8698Z" fill="white"/>
<path d="M86.6423 59.8698H86.21C86.0789 59.8698 85.9727 59.9761 85.9727 60.1071C85.9727 60.2382 86.0789 60.3445 86.21 60.3445H86.6423C86.7734 60.3445 86.8796 60.2382 86.8796 60.1071C86.8796 59.9761 86.7734 59.8698 86.6423 59.8698Z" fill="white"/>
<path d="M88.0432 59.8698H87.6109C87.4798 59.8698 87.3735 59.9761 87.3735 60.1071C87.3735 60.2382 87.4798 60.3445 87.6109 60.3445H88.0432C88.1743 60.3445 88.2805 60.2382 88.2805 60.1071C88.2805 59.9761 88.1743 59.8698 88.0432 59.8698Z" fill="white"/>
<path d="M85.2973 59.9094H82.6104C82.4793 59.9094 82.373 60.0156 82.373 60.1467C82.373 60.2778 82.4793 60.384 82.6104 60.384H85.2973C85.4284 60.384 85.5347 60.2778 85.5347 60.1467C85.5347 60.0156 85.4284 59.9094 85.2973 59.9094Z" fill="white"/>
<path d="M83.0163 58.7985H82.584C82.4529 58.7985 82.3467 58.9048 82.3467 59.0358C82.3467 59.1669 82.4529 59.2732 82.584 59.2732H83.0163C83.1474 59.2732 83.2537 59.1669 83.2537 59.0358C83.2537 58.9048 83.1474 58.7985 83.0163 58.7985Z" fill="white"/>
<path d="M87.9607 58.7985H87.5283C87.3973 58.7985 87.291 58.9048 87.291 59.0358C87.291 59.1669 87.3973 59.2732 87.5283 59.2732H87.9607C88.0917 59.2732 88.198 59.1669 88.198 59.0358C88.198 58.9048 88.0917 58.7985 87.9607 58.7985Z" fill="white"/>
<path d="M89.3616 58.7985H88.9292C88.7982 58.7985 88.6919 58.9048 88.6919 59.0358C88.6919 59.1669 88.7982 59.2732 88.9292 59.2732H89.3616C89.4926 59.2732 89.5989 59.1669 89.5989 59.0358C89.5989 58.9048 89.4926 58.7985 89.3616 58.7985Z" fill="white"/>
<path d="M86.6159 58.8381H83.929C83.7979 58.8381 83.6917 58.9443 83.6917 59.0754C83.6917 59.2065 83.7979 59.3127 83.929 59.3127H86.6159C86.747 59.3127 86.8533 59.2065 86.8533 59.0754C86.8533 58.9443 86.747 58.8381 86.6159 58.8381Z" fill="white"/>
<path d="M76.7622 74.5676L74.7327 71.3596L81.103 66.2813L83.7324 63.3683C84.074 62.9898 84.509 62.7077 84.9938 62.55C85.4786 62.3923 85.9963 62.3646 86.4952 62.4696C86.9941 62.5747 87.4567 62.8089 87.8367 63.1487C88.2168 63.4886 88.501 63.9222 88.6609 64.4063C88.8979 65.1237 88.8469 65.9051 88.5187 66.5856C88.1906 67.2661 87.6108 67.7925 86.9019 68.0537L82.7441 69.5854L76.7622 74.5676Z" fill="#FFB6B6"/>
<path d="M29.1426 51.307V66.8991H40.0659V51.307C40.0661 51.1949 40.0303 51.0856 39.9638 50.9953C39.8973 50.905 39.8036 50.8384 39.6965 50.8053C39.646 50.7886 39.5931 50.7804 39.5399 50.781H29.6701C29.6009 50.7808 29.5324 50.7943 29.4684 50.8207C29.4045 50.8471 29.3463 50.8858 29.2973 50.9347C29.2483 50.9835 29.2094 51.0415 29.1829 51.1054C29.1563 51.1693 29.1426 51.2378 29.1426 51.307ZM33.4055 56.6645C33.4083 56.3571 33.5324 56.0633 33.7508 55.8469C33.9692 55.6306 34.2641 55.5092 34.5715 55.5092C34.8789 55.5092 35.1739 55.6306 35.3923 55.8469C35.6107 56.0633 35.7348 56.3571 35.7376 56.6645V58.4737C35.736 58.7819 35.6125 59.077 35.394 59.2944C35.1755 59.5118 34.8798 59.6338 34.5715 59.6338C34.2633 59.6338 33.9676 59.5118 33.7491 59.2944C33.5306 59.077 33.4071 58.7819 33.4055 58.4737V56.6645Z" fill="#2F2E41"/>
<path d="M29.1091 66.4005V67.9041C29.1094 67.9819 29.1403 68.0566 29.1953 68.1118C29.2502 68.167 29.3247 68.1983 29.4025 68.199H39.8059C39.8839 68.1986 39.9585 68.1674 40.0135 68.1121C40.0685 68.0568 40.0993 67.982 40.0993 67.9041V66.4005H29.1091Z" fill="#3F3D56"/>
<path d="M11.9587 27.8154V56.2844C11.959 56.6472 12.1033 56.9951 12.3598 57.2516C12.6163 57.5082 12.9642 57.6524 13.327 57.6527H55.5152C55.878 57.6524 56.2258 57.5082 56.4823 57.2516C56.7389 56.9951 56.8831 56.6472 56.8834 56.2844V27.8154C56.8826 27.453 56.7381 27.1056 56.4816 26.8494C56.2252 26.5932 55.8776 26.4492 55.5152 26.4487H13.327C12.9645 26.4492 12.617 26.5932 12.3605 26.8494C12.1041 27.1056 11.9596 27.453 11.9587 27.8154Z" fill="#3F3D56"/>
<path d="M12.9482 28.1696V55.9333C12.9486 56.1271 13.0257 56.3129 13.1628 56.45C13.2999 56.587 13.4857 56.6642 13.6795 56.6645H55.1638C55.3576 56.6642 55.5434 56.587 55.6805 56.45C55.8175 56.3129 55.8947 56.1271 55.895 55.9333V28.1696C55.895 27.9756 55.818 27.7894 55.6809 27.6521C55.5438 27.5147 55.3578 27.4373 55.1638 27.4369H13.6795C13.4854 27.4373 13.2994 27.5147 13.1624 27.6521C13.0253 27.7894 12.9483 27.9756 12.9482 28.1696Z" fill="white"/>
<path d="M20.647 68.0971C20.6893 68.1501 20.7429 68.1928 20.804 68.222C20.8651 68.2512 20.932 68.2662 20.9997 68.2659H45.6802C45.7477 68.2658 45.8143 68.2507 45.8752 68.2216C45.9362 68.1925 45.9898 68.1502 46.0323 68.0978C46.0749 68.0454 46.1052 67.9842 46.121 67.9186C46.1369 67.853 46.138 67.7846 46.1241 67.7186L45.741 65.8988C45.7251 65.8246 45.6909 65.7555 45.6415 65.6979C45.5922 65.6403 45.5291 65.5959 45.4582 65.5689C45.4069 65.5487 45.3522 65.5384 45.2971 65.5385H21.3813C21.3262 65.5384 21.2715 65.5487 21.2202 65.5689C21.1493 65.5959 21.0863 65.6403 21.0369 65.6979C20.9875 65.7555 20.9533 65.8246 20.9374 65.8988L20.5543 67.7186C20.5407 67.7846 20.5419 67.8528 20.558 67.9183C20.574 67.9838 20.6044 68.0449 20.647 68.0971Z" fill="#2F2E41"/>
<path d="M53.8175 31.2614H15.0008C14.9605 31.2605 14.9221 31.2439 14.8939 31.215C14.8657 31.1862 14.8499 31.1474 14.8499 31.1071C14.8499 31.0667 14.8657 31.028 14.8939 30.9991C14.9221 30.9703 14.9605 30.9536 15.0008 30.9527H53.8175C53.8578 30.9536 53.8962 30.9703 53.9244 30.9991C53.9527 31.028 53.9685 31.0667 53.9685 31.1071C53.9685 31.1474 53.9527 31.1862 53.9244 31.215C53.8962 31.2439 53.8578 31.2605 53.8175 31.2614Z" fill="#3F3D56"/>
<path d="M17.6432 30.1646C18.1428 30.1646 18.5478 29.7505 18.5478 29.2398C18.5478 28.729 18.1428 28.315 17.6432 28.315C17.1435 28.315 16.7385 28.729 16.7385 29.2398C16.7385 29.7505 17.1435 30.1646 17.6432 30.1646Z" fill="#3F3D56"/>
<path d="M20.7684 30.1646C21.268 30.1646 21.673 29.7505 21.673 29.2398C21.673 28.729 21.268 28.315 20.7684 28.315C20.2688 28.315 19.8638 28.729 19.8638 29.2398C19.8638 29.7505 20.2688 30.1646 20.7684 30.1646Z" fill="#3F3D56"/>
<path d="M23.8934 30.1646C24.393 30.1646 24.798 29.7505 24.798 29.2398C24.798 28.729 24.393 28.315 23.8934 28.315C23.3938 28.315 22.9888 28.729 22.9888 29.2398C22.9888 29.7505 23.3938 30.1646 23.8934 30.1646Z" fill="#3F3D56"/>
<path d="M51.9358 28.5437H49.7161C49.6723 28.5447 49.6305 28.5628 49.5998 28.5942C49.5692 28.6256 49.552 28.6678 49.552 28.7116C49.552 28.7555 49.5692 28.7977 49.5998 28.8291C49.6305 28.8605 49.6723 28.8786 49.7161 28.8796H51.9358C51.9799 28.879 52.022 28.861 52.053 28.8296C52.084 28.7982 52.1014 28.7558 52.1014 28.7116C52.1014 28.6675 52.084 28.6251 52.053 28.5937C52.022 28.5622 51.9799 28.5443 51.9358 28.5437Z" fill="#3F3D56"/>
<path d="M51.9357 29.1746H49.7161C49.6722 29.1755 49.6304 29.1937 49.5997 29.2251C49.569 29.2565 49.5518 29.2986 49.5518 29.3426C49.5518 29.3865 49.569 29.4287 49.5997 29.4601C49.6304 29.4915 49.6722 29.5096 49.7161 29.5106H51.9357C51.9799 29.51 52.0221 29.4921 52.0532 29.4606C52.0843 29.4292 52.1017 29.3868 52.1017 29.3426C52.1017 29.2984 52.0843 29.2559 52.0532 29.2245C52.0221 29.193 51.9799 29.1751 51.9357 29.1746Z" fill="#3F3D56"/>
<path d="M51.9358 29.8055H49.7161C49.6723 29.8065 49.6305 29.8247 49.5998 29.8561C49.5692 29.8874 49.552 29.9296 49.552 29.9735C49.552 30.0174 49.5692 30.0595 49.5998 30.0909C49.6305 30.1223 49.6723 30.1404 49.7161 30.1415H51.9358C51.9799 30.1408 52.022 30.1229 52.053 30.0914C52.084 30.06 52.1014 30.0176 52.1014 29.9735C52.1014 29.9293 52.084 29.887 52.053 29.8555C52.022 29.8241 51.9799 29.8061 51.9358 29.8055Z" fill="#3F3D56"/>
<path d="M105.447 67.0604C105.514 67.2554 105.641 67.4242 105.81 67.5425C105.979 67.6608 106.181 67.7225 106.387 67.7188L110.415 67.6151C110.622 67.6111 110.823 67.54 110.987 67.4123C111.151 67.2847 111.269 67.1075 111.324 66.9072L111.894 60.8127C112.096 60.9043 112.316 60.9496 112.538 60.9451C112.731 60.9403 112.921 60.8975 113.097 60.8192C113.273 60.741 113.433 60.6287 113.566 60.489C113.698 60.3492 113.803 60.1846 113.872 60.0046C113.941 59.8246 113.974 59.6327 113.97 59.4399C113.965 59.2471 113.922 59.0571 113.844 58.8808C113.765 58.7045 113.653 58.5453 113.513 58.4124C113.374 58.2795 113.209 58.1754 113.029 58.1061C112.849 58.0368 112.657 58.0036 112.464 58.0084C112.376 58.0081 112.287 58.0173 112.2 58.0359C112.106 57.9338 111.991 57.8526 111.864 57.7975C111.736 57.7425 111.598 57.7147 111.459 57.7161L105.264 57.8761C105.213 57.878 105.162 57.8844 105.111 57.8951C104.975 57.9204 104.847 57.9746 104.733 58.0539C104.62 58.1332 104.525 58.2358 104.455 58.3548C104.385 58.4739 104.341 58.6066 104.326 58.744C104.312 58.8815 104.327 59.0204 104.37 59.1516L105.447 67.0604ZM112.011 60.3989L112.416 58.9466C112.462 58.7789 112.463 58.6019 112.419 58.4336C112.439 58.4335 112.456 58.4242 112.476 58.4242C112.754 58.4184 113.023 58.5232 113.224 58.7155C113.425 58.9077 113.542 59.1719 113.548 59.4499C113.555 59.728 113.451 59.9973 113.259 60.1988C113.067 60.4003 112.803 60.5175 112.525 60.5248C112.345 60.5304 112.168 60.4869 112.011 60.3989Z" fill="#2F2E41"/>
<path d="M105.111 57.8951C105.243 58.6498 106.727 59.1803 108.512 59.0881C110.152 59.0125 111.494 58.4364 111.74 57.7535C111.649 57.7266 111.554 57.714 111.459 57.7161L105.264 57.8761C105.213 57.878 105.162 57.8844 105.111 57.8951Z" fill="#3F3D56"/>
<path d="M108.839 63.7114C108.847 63.7094 108.854 63.7059 108.862 63.7013L109.736 63.1288C109.747 63.1219 109.755 63.1125 109.761 63.1014C109.767 63.0903 109.771 63.0779 109.771 63.0653C109.771 63.0527 109.767 63.0402 109.761 63.0291C109.755 63.018 109.747 63.0086 109.736 63.0017L108.827 62.4063C108.819 62.4007 108.809 62.3969 108.8 62.395C108.79 62.3931 108.78 62.3932 108.77 62.3952C108.76 62.3972 108.751 62.4012 108.743 62.4068C108.734 62.4124 108.727 62.4196 108.722 62.428C108.716 62.4363 108.712 62.4457 108.711 62.4555C108.709 62.4654 108.709 62.4755 108.711 62.4852C108.713 62.495 108.717 62.5043 108.723 62.5126C108.728 62.5208 108.735 62.5279 108.744 62.5333L109.556 63.0652L108.778 63.5741C108.763 63.584 108.752 63.5988 108.747 63.6161C108.742 63.6333 108.743 63.6518 108.75 63.6683C108.758 63.6848 108.77 63.6981 108.787 63.706C108.803 63.7139 108.821 63.7158 108.839 63.7114Z" fill="#323F8D"/>
<path d="M107.457 63.7751C107.472 63.7714 107.485 63.7634 107.495 63.7521C107.505 63.7408 107.512 63.7268 107.514 63.7118C107.516 63.6968 107.513 63.6815 107.507 63.6679C107.5 63.6543 107.489 63.643 107.476 63.6355L106.67 63.1733L107.449 62.5945C107.457 62.5885 107.464 62.5811 107.469 62.5725C107.474 62.5639 107.478 62.5544 107.479 62.5446C107.481 62.5347 107.48 62.5247 107.478 62.515C107.475 62.5053 107.471 62.4962 107.465 62.4882C107.459 62.4802 107.452 62.4734 107.443 62.4683C107.434 62.4632 107.425 62.4598 107.415 62.4583C107.405 62.4569 107.395 62.4574 107.386 62.4598C107.376 62.4623 107.367 62.4666 107.359 62.4725L106.486 63.1206C106.476 63.1281 106.468 63.138 106.463 63.1494C106.457 63.1609 106.455 63.1735 106.456 63.1861C106.456 63.1987 106.46 63.2109 106.467 63.2216C106.474 63.2323 106.483 63.2412 106.494 63.2475L107.401 63.7674C107.418 63.7772 107.438 63.78 107.457 63.7751Z" fill="#323F8D"/>
<path d="M108.752 64.2131C108.759 64.2113 108.766 64.2083 108.772 64.2043C108.781 64.1991 108.788 64.1923 108.794 64.1843C108.8 64.1762 108.804 64.1671 108.807 64.1574C108.809 64.1477 108.81 64.1376 108.808 64.1277C108.806 64.1179 108.803 64.1084 108.798 64.0999L107.558 62.0614C107.547 62.0442 107.531 62.0319 107.511 62.0272C107.491 62.0224 107.471 62.0256 107.453 62.0361C107.436 62.0466 107.424 62.0635 107.419 62.0831C107.414 62.1026 107.418 62.1233 107.428 62.1405L108.668 64.179C108.676 64.1929 108.689 64.2037 108.704 64.2098C108.719 64.2159 108.736 64.2171 108.752 64.2131Z" fill="#323F8D"/>
<path d="M39.0471 39.6534H32.3288C32.0547 39.6534 31.8325 39.8756 31.8325 40.1496V40.806C31.8325 41.0801 32.0547 41.3023 32.3288 41.3023H39.0471C39.3211 41.3023 39.5433 41.0801 39.5433 40.806V40.1496C39.5433 39.8756 39.3211 39.6534 39.0471 39.6534Z" fill="#323F8D"/>
<path d="M42.9632 42.9511H28.4128C28.1387 42.9511 27.9165 43.1733 27.9165 43.4474V44.1037C27.9165 44.3778 28.1387 44.6 28.4128 44.6H42.9632C43.2372 44.6 43.4594 44.3778 43.4594 44.1037V43.4474C43.4594 43.1733 43.2372 42.9511 42.9632 42.9511Z" fill="#E6E6E6"/>
<path d="M42.9632 46.2488H28.4128C28.1387 46.2488 27.9165 46.471 27.9165 46.7451V47.4015C27.9165 47.6755 28.1387 47.8977 28.4128 47.8977H42.9632C43.2372 47.8977 43.4594 47.6755 43.4594 47.4015V46.7451C43.4594 46.471 43.2372 46.2488 42.9632 46.2488Z" fill="#E6E6E6"/>
<path d="M44.1965 57.2916L44.2295 57.3957L44.2312 57.3992L45.2232 60.4151L46.3644 63.8907L48.5115 70.4221L48.5323 71.4366V71.4401L48.6918 79.6017L48.2496 80.7082L48.7473 82.5223C48.7473 82.5223 48.5184 79.7801 47.2905 81.3549C46.5951 82.2498 45.7817 83.1655 45.114 84.024C46.0869 84.4176 47.0755 84.7738 48.0796 85.0923C48.2964 85.1617 48.5149 85.2276 48.7335 85.2935C48.7803 85.3073 48.8271 85.3212 48.8739 85.3351C52.2026 86.3195 55.6438 86.8726 59.1133 86.9809C59.2936 86.9861 59.4705 86.9896 59.6422 86.9931C59.7029 86.9948 59.7619 86.9965 59.8209 86.9965C60.0151 86.9983 60.2076 87 60.4018 87C60.7938 87 61.184 86.9942 61.5725 86.9827C64.4479 86.9016 67.3065 86.515 70.1 85.8293C70.081 84.676 70.0289 83.3285 69.9544 81.889C69.9197 81.1832 69.141 80.4183 69.0942 79.6795C69.0612 79.1245 69.7601 78.6025 69.7237 78.0389C69.4878 74.5685 69.193 75.9007 68.9745 73.4432C68.9519 73.2021 68.9311 72.9715 68.912 72.7512C68.7716 71.173 68.6745 70.1862 68.6745 70.1862L69.6075 64.3052L71.073 55.0718L70.9603 54.8862L70.8337 54.8237L63.1039 50.9979L62.6842 49.9226C62.5619 49.6128 62.3497 49.3467 62.075 49.1585C61.8002 48.9703 61.4754 48.8686 61.1424 48.8664L56.0505 48.8456C55.7862 48.8444 55.5255 48.9063 55.2899 49.026C55.0544 49.1457 54.8508 49.3199 54.696 49.5341L53.3172 51.4436L44.1965 57.2916Z" fill="#3F3D56"/>
<path d="M49.6857 68.9687L48.5323 71.4366L47.745 73.1223L46.3905 80.2139L45.7124 80.9336L45.1314 78.3857L39.0506 79.7359C38.8511 78.6277 38.9972 79.7734 38.874 78.5576C38.9087 78.523 38.9451 78.4883 38.9816 78.4536C39.0787 78.3634 39.1602 78.2784 39.1585 78.1969C39.0891 74.0034 39.2972 66.8667 41.035 62.5431C41.3071 61.8372 41.666 61.1678 42.1033 60.5504C42.138 60.5036 42.1709 60.4567 42.2039 60.4099C43.0051 59.2878 43.5115 58.1831 44.2295 57.3974V57.3957C44.234 57.3921 44.2381 57.388 44.2417 57.3836C44.2443 57.3823 44.2466 57.3805 44.2486 57.3784L49.181 54.763L49.3926 60.7082L49.5435 64.9815L49.6857 68.9687Z" fill="#3F3D56"/>
<path d="M67.4709 69.6697L68.9116 72.752L69.4144 73.8255L70.7685 80.9164L71.4444 81.6344L72.0267 79.0871L72.3003 79.031L77.235 78.009L78.6733 82.5769C78.9974 82.0368 79.1252 81.4013 79.0348 80.7778C78.9445 80.1544 78.6416 79.5813 78.1775 79.1554C78.0792 79.0665 77.9974 78.98 77.9997 78.8981C78.0816 73.9658 77.7799 64.9595 75.0553 61.2527C74.19 60.0763 73.6708 58.9047 72.9154 58.0861C72.9131 58.0838 72.9131 58.0815 72.9107 58.0815L71.0725 55.0716L70.9603 54.8868L70.834 54.8237L67.4709 69.6697Z" fill="#3F3D56"/>
<path d="M58.7437 47.3965C62.4849 47.3965 65.5178 44.3636 65.5178 40.6223C65.5178 36.8811 62.4849 33.8482 58.7437 33.8482C55.0024 33.8482 51.9695 36.8811 51.9695 40.6223C51.9695 44.3636 55.0024 47.3965 58.7437 47.3965Z" fill="#FFB6B6"/>
<path d="M67.8996 35.8906C67.8471 35.8345 67.7838 35.7896 67.7136 35.7585C67.6433 35.7274 67.5675 35.7108 67.4907 35.7097L67.5925 35.4269C67.6258 35.3379 67.6348 35.2415 67.6185 35.1479C67.6023 35.0542 67.5615 34.9665 67.5002 34.8938C67.439 34.8211 67.3595 34.766 67.2699 34.7341C67.1803 34.7022 67.0839 34.6947 66.9905 34.7124L66.6195 34.7838L66.6545 34.536C66.6679 34.4437 66.6571 34.3495 66.623 34.2627C66.589 34.1759 66.5329 34.0994 66.4604 34.0408C66.3878 33.9822 66.3013 33.9435 66.2092 33.9285C66.1172 33.9135 66.0228 33.9227 65.9354 33.9553C65.8559 33.9866 65.7704 33.9997 65.6852 33.9936C65.5999 33.9876 65.5171 33.9625 65.4428 33.9203C65.3682 33.8794 65.3035 33.8227 65.2531 33.7541C65.2027 33.6856 65.1678 33.6069 65.1509 33.5235L65.0217 32.9002L65.008 32.8667C64.3786 31.8177 63.1685 31.0545 61.6877 30.7748C60.3696 30.524 59.0181 30.6517 57.7152 30.7718C57.1983 30.8204 56.6145 30.8752 56.128 31.1731C55.7145 31.4285 55.3648 31.9394 55.4363 32.4547C54.1516 32.061 52.7742 32.847 52.0916 33.8382C51.2828 35.018 51.1506 36.4957 51.1293 37.6511C51.0715 40.3846 51.6355 42.6209 52.8016 44.2993C52.8867 44.421 52.908 44.6749 53.0768 44.76L53.0418 44.7037C53.2303 44.798 53.4219 44.95 53.3504 45.1127C53.1452 45.581 54.5089 46.6163 55.4697 46.9583C57.2226 47.5832 59.5532 47.53 61.1921 47.305L61.2499 46.9173C61.8413 46.8367 62.2578 46.6832 62.3749 46.443C62.5816 46.2666 62.758 46.1085 62.9115 45.9625L62.9131 45.961C62.9161 45.958 62.9222 45.9534 62.9252 45.9504C63.6656 45.2404 63.8374 44.836 63.9149 44.2203C63.9894 43.6167 63.8572 43.0041 63.7219 42.4522C66.5709 42.8931 62.5999 39.4177 65.2543 38.7457C65.2848 38.7363 65.3157 38.7287 65.3471 38.7229C65.4246 38.7047 65.5021 38.6864 65.5766 38.6651C65.9357 38.5677 66.2795 38.4208 66.5983 38.2288C67.3402 37.7773 67.5849 37.1783 67.968 36.5033C68.0233 36.4072 68.0465 36.2959 68.0342 36.1857C68.0219 36.0755 67.9748 35.9722 67.8996 35.8906Z" fill="#2F2E41"/>
<path d="M82.7029 70.152C82.7014 70.418 82.6983 70.7905 82.6862 71.2511C82.6846 71.315 82.6831 71.3803 82.6816 71.4472C82.6618 72.294 82.6421 73.004 82.6101 73.7931C82.6086 73.8478 82.6071 73.901 82.6041 73.9557C82.5615 75.0564 82.4946 76.338 82.3791 78.3676C82.1647 82.1167 81.7907 78.883 81.4152 80.1981C81.3969 80.2634 81.3772 80.341 81.3589 80.4322C81.3021 80.7631 81.2061 81.0862 81.0731 81.3945C80.874 81.5131 80.6687 81.6271 80.4665 81.7412C79.8903 82.0619 79.305 82.3706 78.7152 82.664C78.3837 82.8282 78.0508 82.9893 77.7163 83.1444C77.6631 83.1687 77.6114 83.193 77.5597 83.2158C75.847 84.0081 74.0818 84.6816 72.2767 85.2318C71.924 85.3382 71.5728 85.4415 71.2171 85.5373C70.8461 85.6407 70.4752 85.738 70.0996 85.8292C67.3061 86.515 64.4476 86.9018 61.5723 86.9831C61.1847 86.9953 60.7939 86.9999 60.4017 86.9999C60.2071 86.9999 60.0155 86.9983 59.8209 86.9968C59.7617 86.9968 59.7024 86.9953 59.6431 86.9938C59.4713 86.9892 59.2934 86.9862 59.114 86.9816C55.6445 86.8734 52.2033 86.32 48.8748 85.3351L48.7334 85.2941C48.5145 85.2272 48.2971 85.1618 48.0797 85.0919C47.0763 84.7741 46.0876 84.4184 45.1136 84.0246C44.3702 83.7251 43.6354 83.4038 42.9092 83.0608C42.9026 83.059 42.8964 83.0559 42.891 83.0516C42.7389 82.9817 42.5854 82.9087 42.4333 82.8342C42.4136 82.8236 42.3923 82.813 42.371 82.8023C41.8039 82.5256 41.2429 82.2358 40.688 81.9327C40.2213 80.8609 39.5645 80.6557 39.1571 79.7131C39.0385 79.433 38.9528 79.1402 38.9017 78.8404C38.9017 78.8374 38.9002 78.8343 38.9002 78.8298C38.9427 79.3953 38.7193 77.8264 38.8987 78.8237C38.8971 78.8055 38.8956 78.7857 38.8941 78.7629C38.8895 78.7082 38.8835 78.6413 38.8743 78.5577C38.3529 73.4662 38.3863 67.6435 38.1598 62.8454C38.1446 62.5353 38.1289 62.2383 38.1127 61.9545C38.1081 61.8603 38.102 61.7675 38.0959 61.6763C38.1066 61.649 38.1188 61.6201 38.1324 61.5927C38.1353 61.5848 38.1389 61.5772 38.1431 61.5699C38.1476 61.5605 38.1526 61.5513 38.1583 61.5425C38.1613 61.538 38.1659 61.5319 38.1689 61.5273C38.1711 61.5221 38.1737 61.517 38.1765 61.5121C38.1902 61.4908 38.2054 61.468 38.2221 61.4468C38.2297 61.4376 38.2358 61.43 38.2434 61.4224C38.2487 61.4147 38.2548 61.4075 38.2617 61.4011C38.2663 61.3938 38.272 61.3872 38.2784 61.3814C38.2845 61.3753 38.2905 61.3677 38.2981 61.3601C38.3014 61.3553 38.3055 61.3512 38.3103 61.3479C38.3223 61.3341 38.3356 61.3214 38.3498 61.3099C38.4041 61.26 38.462 61.2143 38.5231 61.1731C38.5444 61.1594 38.5672 61.1457 38.5885 61.1305C38.7417 61.0389 38.9031 60.9615 39.0705 60.8995C39.1282 60.8782 39.186 60.8584 39.2483 60.8371C39.2711 60.831 39.2924 60.8234 39.3152 60.8158C39.3487 60.8052 39.3821 60.7946 39.4171 60.787C39.5904 60.7353 39.7774 60.6912 39.9796 60.6501C40.0039 60.6456 40.0298 60.641 40.0556 60.6349C40.0921 60.6273 40.1301 60.6212 40.1681 60.6152C40.2198 60.606 40.273 60.5969 40.3262 60.5878C40.7777 60.5163 41.2901 60.4631 41.8556 60.4282C41.9088 60.4251 41.9621 60.4221 42.0153 60.419C42.0776 60.416 42.1399 60.413 42.2038 60.4099C42.257 60.4069 42.3117 60.4054 42.3665 60.4038C42.4197 60.4008 42.4744 60.3993 42.5306 60.3978C42.6842 60.3932 42.8423 60.3886 43.0035 60.3856C43.4626 60.3765 43.946 60.3795 44.4538 60.3902C44.6895 60.3962 44.9297 60.4023 45.176 60.413C45.1927 60.413 45.2079 60.4145 45.2231 60.4145C45.4374 60.4221 45.6533 60.4312 45.8753 60.4434C46.0304 60.451 46.1869 60.4586 46.3435 60.4677C46.491 60.4768 46.64 60.4859 46.7905 60.4966C46.9076 60.5027 47.0246 60.5118 47.1432 60.5194C47.2435 60.527 47.3439 60.5346 47.4442 60.5407L47.581 60.5498C47.6555 60.5559 47.73 60.5604 47.8061 60.568C47.9733 60.5817 48.1405 60.5954 48.3108 60.6091C48.4795 60.6243 48.6513 60.6395 48.8231 60.6547C48.9949 60.6699 49.1682 60.6866 49.3416 60.7033C49.3598 60.7049 49.3765 60.7064 49.3932 60.7079C49.5514 60.7246 49.7095 60.7398 49.8691 60.7565C49.9056 60.7596 49.9436 60.7626 49.9801 60.7672C50.1323 60.7825 50.2874 60.8004 50.441 60.8167C50.4882 60.8218 50.5351 60.8267 50.5823 60.8319C50.7026 60.845 50.8212 60.8563 50.9424 60.8706C51.102 60.8888 51.2647 60.9055 51.4228 60.9268C51.546 60.9405 51.6691 60.9542 51.7923 60.9694C51.9853 60.9922 52.1814 61.0165 52.3776 61.0424C52.4521 61.0515 52.5266 61.0606 52.6011 61.0712C53.1605 61.1412 53.7261 61.2187 54.3007 61.2993C55.1719 61.4224 56.0567 61.5562 56.9476 61.7006C57.84 61.8451 58.7375 61.9976 59.64 62.1583C59.8681 62.1993 60.0961 62.2403 60.3257 62.2829C60.429 62.3027 60.5324 62.3224 60.6358 62.3422C60.8122 62.3741 60.9885 62.4076 61.1649 62.441C61.3412 62.4745 61.5176 62.5079 61.6939 62.5429C61.9037 62.5839 62.115 62.625 62.3248 62.666C63.7068 62.9397 65.0811 63.2316 66.422 63.5372C66.6425 63.5873 66.8629 63.639 67.0819 63.6892C67.5197 63.791 67.9535 63.8944 68.3832 63.9993C68.5018 64.0267 68.6189 64.0556 68.7359 64.0845C69.0278 64.1574 69.3197 64.2304 69.6071 64.3049L69.6572 64.3186C69.8685 64.3703 70.0753 64.4235 70.2821 64.4782C70.7701 64.6059 71.25 64.7351 71.7218 64.8659C72.035 64.9525 72.3446 65.0402 72.6507 65.1289C73.1083 65.2612 73.5568 65.395 73.9931 65.5303C74.101 65.5637 74.209 65.5971 74.3154 65.6291C74.6347 65.7279 74.9494 65.8282 75.2549 65.9286C75.4982 66.0076 75.7354 66.0882 75.9695 66.1688C76.2036 66.2494 76.4332 66.3299 76.6582 66.4105C76.8026 66.4622 76.9455 66.5169 77.0884 66.5686C77.2937 66.6446 77.4959 66.7207 77.6935 66.7967C77.7543 66.8195 77.8136 66.8438 77.8729 66.8666C77.9109 66.8833 77.9474 66.897 77.9839 66.9122C78.0553 66.9411 78.1283 66.9685 78.1982 66.9973C78.2697 67.0247 78.3396 67.0536 78.4096 67.084C78.478 67.1114 78.5479 67.1402 78.6148 67.1691C78.6832 67.1965 78.7501 67.2254 78.817 67.2558C78.8732 67.2786 78.928 67.3029 78.9812 67.3272C79.0891 67.3744 79.1971 67.4215 79.302 67.4702C79.3537 67.4945 79.4053 67.5173 79.457 67.5416L79.5756 67.5963C79.5923 67.6055 79.6091 67.6131 79.6258 67.6207C79.6638 67.6389 79.7033 67.6587 79.7413 67.6769C79.8295 67.718 79.9162 67.7621 80.0013 67.8031C80.1153 67.8609 80.2263 67.9186 80.3327 67.9749C80.4407 68.0327 80.5456 68.0904 80.6459 68.1467C80.6626 68.1558 80.6778 68.1649 80.6946 68.1741C80.7174 68.1862 80.7402 68.1999 80.763 68.2121C80.8405 68.2561 80.915 68.3018 80.9895 68.3458C81.1354 68.4355 81.2738 68.5237 81.403 68.6119C81.4319 68.6317 81.4593 68.6514 81.4881 68.6697C81.5839 68.7381 81.6751 68.805 81.7603 68.8734C81.7603 68.8749 81.7603 68.8749 81.7618 68.8749C81.7907 68.8962 81.8181 68.919 81.8454 68.9403C81.8682 68.9616 81.8925 68.9798 81.9153 69.0011C81.9944 69.0695 82.0674 69.1349 82.1343 69.2018C82.1567 69.2224 82.178 69.2442 82.1981 69.2671C82.207 69.2745 82.2151 69.2826 82.2225 69.2915C82.2529 69.3219 82.2802 69.3523 82.3061 69.3827C82.3101 69.3869 82.3136 69.3914 82.3167 69.3964C82.3532 69.4389 82.3867 69.4815 82.4186 69.5241C82.4338 69.5454 82.4505 69.5666 82.4642 69.5879C82.4824 69.6138 82.5007 69.6411 82.5159 69.667C82.5295 69.6883 82.5417 69.7111 82.5539 69.7324C82.5861 69.7871 82.6136 69.8446 82.636 69.9041C82.6531 69.9445 82.6668 69.9862 82.677 70.0288C82.6885 70.0692 82.6972 70.1103 82.7029 70.152Z" fill="#2F2E41"/>
<path opacity="0.2" d="M82.7027 70.152C82.7012 70.418 82.6981 70.7905 82.686 71.2511C82.6845 71.315 82.6814 71.3803 82.6799 71.4472C82.6647 72.0934 82.6419 72.8915 82.61 73.7931C82.6084 73.8478 82.6069 73.901 82.6039 73.9557C82.5613 75.0564 82.4944 76.338 82.3789 78.3676C82.1645 82.1167 81.7905 78.883 81.415 80.1981C80.3721 79.5565 79.2288 78.8845 78.0065 78.1943C77.7861 78.0696 77.5636 77.9445 77.3391 77.8188C74.8945 76.4551 72.164 75.026 69.3135 73.6106C69.201 73.5544 69.087 73.4981 68.9744 73.4434C62.4448 70.2158 55.3177 67.0764 49.5436 64.9814C48.4292 64.577 47.365 64.2122 46.3646 63.8914C44.2575 63.2179 42.4362 62.7466 41.0345 62.5429C39.575 62.33 38.5671 62.4061 38.1596 62.8454C38.1444 62.5353 38.1287 62.2383 38.1125 61.9545C38.1064 61.8603 38.1003 61.7675 38.0942 61.6763C38.1036 61.6513 38.1158 61.6274 38.1276 61.6033C38.1293 61.5998 38.1305 61.5962 38.1322 61.5927C38.1352 61.5848 38.1387 61.5772 38.1429 61.5699C38.1474 61.5605 38.1525 61.5513 38.1581 61.5425C38.163 61.5317 38.1692 61.5215 38.1763 61.5121C38.19 61.4908 38.2052 61.468 38.2219 61.4467C38.2342 61.4308 38.2474 61.4156 38.2615 61.4011C38.2661 61.3938 38.2718 61.3872 38.2782 61.3814C38.2843 61.3753 38.2904 61.3677 38.298 61.3601C38.3012 61.3553 38.3053 61.3512 38.3101 61.3479C38.3221 61.3341 38.3354 61.3214 38.3497 61.3099C38.4039 61.26 38.4618 61.2143 38.523 61.1731C38.5442 61.1594 38.567 61.1457 38.5883 61.1305C38.7415 61.0389 38.9029 60.9615 39.0703 60.8994C39.128 60.8782 39.1858 60.8584 39.2481 60.8371C39.2709 60.831 39.2922 60.8234 39.315 60.8158C39.3485 60.8052 39.3819 60.7945 39.4169 60.7869C39.5902 60.7353 39.7772 60.6912 39.9794 60.6501C40.0402 60.638 40.1041 60.6258 40.1679 60.6151C40.2196 60.606 40.2728 60.5969 40.326 60.5878C40.7776 60.5163 41.2899 60.4631 41.8554 60.4281C41.9087 60.4251 41.9619 60.4221 42.0151 60.419C42.0774 60.416 42.1397 60.4129 42.2036 60.4099C42.2568 60.4069 42.3115 60.4053 42.3663 60.4038C42.4195 60.4008 42.4742 60.3993 42.5305 60.3977C42.684 60.3932 42.8421 60.3886 43.0033 60.3856C43.4624 60.378 43.9459 60.381 44.4536 60.3917C44.6893 60.3962 44.9295 60.4038 45.1758 60.4145C45.191 60.4145 45.2077 60.416 45.2229 60.416C45.4373 60.4221 45.6547 60.4327 45.8751 60.4434C46.0302 60.451 46.1868 60.4586 46.3433 60.4677C46.4908 60.4768 46.6398 60.4859 46.7903 60.4966C46.9074 60.5026 47.0244 60.5118 47.143 60.5194C47.2434 60.527 47.3437 60.5346 47.444 60.5406C47.5641 60.5498 47.6842 60.5589 47.8059 60.568C47.9731 60.5817 48.1403 60.5954 48.3106 60.6091C48.4794 60.6243 48.6512 60.6395 48.8229 60.6547C48.9947 60.6699 49.1681 60.6866 49.3414 60.7033C49.3596 60.7048 49.3763 60.7064 49.3931 60.7079C49.5512 60.7246 49.7093 60.7398 49.8689 60.7565C50.7537 60.8462 51.6644 60.9511 52.6009 61.0712C53.1603 61.1427 53.7269 61.2192 54.3006 61.3008C55.1717 61.4239 56.0565 61.5577 56.9474 61.7006C57.8398 61.8451 58.7373 61.9976 59.6398 62.1582C59.8679 62.1993 60.0959 62.2403 60.3255 62.2829C60.6052 62.3346 60.885 62.3873 61.1647 62.441C61.341 62.4745 61.5174 62.5079 61.6938 62.5429C61.9036 62.5839 62.1149 62.625 62.3247 62.666C63.7066 62.9397 65.081 63.2316 66.4219 63.5371C66.6423 63.5873 66.8628 63.639 67.0817 63.6892C67.5195 63.791 67.9533 63.8944 68.383 63.9993C68.5016 64.0282 68.6187 64.0571 68.7358 64.086C69.0292 64.1589 69.3195 64.2319 69.6069 64.3049V64.3064C69.6236 64.3095 69.6403 64.314 69.6571 64.3186C69.8669 64.3718 70.0751 64.425 70.2819 64.4797C70.7699 64.6074 71.2498 64.7362 71.7216 64.8659C72.0348 64.9541 72.3449 65.0407 72.6505 65.1289C73.1081 65.2627 73.5566 65.3965 73.9929 65.5303C74.1009 65.5637 74.2088 65.5971 74.3152 65.6291C74.6345 65.7294 74.9477 65.8292 75.2548 65.9286C75.498 66.0076 75.7352 66.0882 75.9693 66.1688C76.2034 66.2494 76.433 66.3299 76.658 66.4105C76.804 66.4622 76.9469 66.5154 77.0882 66.5671C77.295 66.6431 77.4957 66.7191 77.6933 66.7967C77.7541 66.8195 77.8134 66.8438 77.8727 66.8666C77.9837 66.9092 78.0916 66.9533 78.1981 66.9973C78.2695 67.0247 78.3395 67.0536 78.4094 67.084C78.4778 67.1114 78.5477 67.1402 78.6146 67.1691C78.683 67.1965 78.7499 67.2254 78.8168 67.2558C78.8731 67.2786 78.9278 67.3029 78.981 67.3272C79.089 67.3744 79.1969 67.4215 79.3018 67.4701C79.3535 67.4945 79.4052 67.5173 79.4569 67.5416L79.5754 67.5963C79.5922 67.6055 79.6089 67.6131 79.6256 67.6207C79.7548 67.6815 79.8795 67.7423 80.0011 67.8031C80.1152 67.8609 80.2261 67.9186 80.3326 67.9749C80.4587 68.0418 80.5788 68.1072 80.6944 68.174C80.7172 68.1862 80.74 68.1999 80.7628 68.2121C80.8403 68.2561 80.9148 68.3018 80.9893 68.3458C81.1353 68.4355 81.2736 68.5237 81.4028 68.6119C81.5305 68.7001 81.6491 68.7867 81.7601 68.8734C81.7601 68.8749 81.7601 68.8749 81.7616 68.8749C81.8148 68.9175 81.8665 68.96 81.9152 69.0011C81.9942 69.0695 82.0672 69.1349 82.1341 69.2018C82.1565 69.2224 82.1778 69.2442 82.198 69.2671C82.2068 69.2745 82.215 69.2826 82.2223 69.2915C82.2542 69.3264 82.2861 69.3614 82.3166 69.3964C82.353 69.4389 82.3865 69.4815 82.4184 69.5241C82.4336 69.5453 82.4503 69.5666 82.464 69.5879C82.4823 69.6138 82.5005 69.6411 82.5157 69.667C82.5294 69.6882 82.5416 69.7111 82.5537 69.7323C82.586 69.7871 82.6134 69.8446 82.6358 69.9041C82.6524 69.9447 82.6662 69.9863 82.6769 70.0288C82.6884 70.0692 82.697 70.1103 82.7027 70.152Z" fill="black"/>
</g>
<defs>
<clipPath id="clip0_863_841">
<rect width="119.62" height="87" fill="white"/>
</clipPath>
</defs>
</svg>
