<svg width="123" height="87" viewBox="0 0 123 87" fill="none" xmlns="http://www.w3.org/2000/svg">
<g clip-path="url(#clip0_863_1331)">
<path d="M111.417 78.2642C112.487 80.1558 111.58 86.5449 111.58 86.5449C111.58 86.5449 105.637 84.0294 104.567 82.1385C104.054 81.2302 103.923 80.1556 104.203 79.1507C104.482 78.1459 105.149 77.293 106.057 76.7795C106.964 76.2661 108.039 76.134 109.044 76.4124C110.049 76.6908 110.903 77.3568 111.417 78.2642Z" fill="#F1F1F1"/>
<path d="M111.666 86.5366L111.54 86.5632C110.324 80.7863 106.077 76.8688 106.035 76.8299L106.121 76.7345C106.165 76.7736 110.441 80.7178 111.666 86.5366Z" fill="white"/>
<path d="M121.141 80.4181C119.688 83.0524 111.501 86.6211 111.501 86.6211C111.501 86.6211 110.151 77.7925 111.603 75.159C112.3 73.8942 113.471 72.9582 114.859 72.557C116.246 72.1558 117.736 72.3222 119.001 73.0196C120.266 73.717 121.202 74.8883 121.603 76.2758C122.004 77.6633 121.838 79.1533 121.141 80.4181Z" fill="#F1F1F1"/>
<path d="M111.573 86.7166L111.45 86.5872C117.375 80.9607 118.908 73.1133 118.923 73.0347L119.099 73.0677C119.084 73.1469 117.541 81.0493 111.573 86.7166Z" fill="white"/>
<path d="M28.687 60.4708C27.75 60.4677 26.8172 60.347 25.9102 60.1116L25.7315 60.0622L25.5657 59.9791C19.5707 56.9733 14.5131 53.0032 10.5333 48.1788C7.2388 44.1618 4.67029 39.6009 2.94323 34.7012C0.877934 28.8351 -0.115676 22.6453 0.00983286 16.4275C0.0123654 16.297 0.0145087 16.1962 0.0145087 16.1268C0.0145087 13.1043 1.69224 10.4523 4.28871 9.37038C6.27593 8.54237 24.3189 1.13141 25.6225 0.595952C28.0777 -0.634222 30.6968 0.392551 31.116 0.572106C32.0561 0.956493 48.7357 7.77866 52.3402 9.495C56.0549 11.2639 57.0461 14.4417 57.0461 16.0405C57.0461 23.2789 55.7925 30.0436 53.3201 36.147C51.3234 41.0872 48.4934 45.648 44.9535 49.6306C38.1235 57.3167 31.2918 60.0414 31.2259 60.0655C30.4094 60.3464 29.5504 60.4835 28.687 60.4708ZM27.0804 56.4912C27.6727 56.624 29.0364 56.8232 29.9252 56.499C31.0543 56.0872 36.7723 53.122 42.1156 47.1089C49.4983 38.8009 53.2442 28.3569 53.2497 16.0672C53.2365 15.8183 53.0597 14.0424 50.708 12.9226C47.1735 11.2395 29.8364 4.1504 29.6617 4.07895L29.6138 4.05864C29.2505 3.90639 28.0942 3.5857 27.2972 4.00337L27.1376 4.07777C26.9443 4.15714 7.79153 12.0236 5.74887 12.8747C4.31997 13.4701 3.81086 14.945 3.81086 16.1268C3.81086 16.2132 3.80863 16.3388 3.80547 16.5012C3.64222 24.9103 5.58813 45.6024 27.0804 56.4912Z" fill="#3F3D56"/>
<path d="M26.4164 2.3219C26.4164 2.3219 7.08949 10.2597 5.01875 11.1225C2.94801 11.9853 1.91264 14.0561 1.91264 16.1268C1.91264 18.1976 0.359587 45.2179 26.4164 58.2822C26.4164 58.2822 28.7813 58.9366 30.5755 58.2822C32.3697 57.6279 55.1479 46.5839 55.1479 16.0405C55.1479 16.0405 55.1479 12.9344 51.5241 11.2088C47.9003 9.4832 30.3799 2.3219 30.3799 2.3219C30.3799 2.3219 28.2283 1.37281 26.4164 2.3219Z" fill="#323F8D"/>
<path opacity="0.1" d="M28.4872 8.53412V50.8796C28.4872 50.8796 8.98776 41.4934 9.16032 16.8171L28.4872 8.53412Z" fill="black"/>
<path d="M28.7413 38.9684L22.5298 30.9817L26.1421 28.1722L29.0832 31.9537L39.019 21.4652L42.3415 24.6131L28.7413 38.9684Z" fill="white"/>
<path d="M121.87 87H65.1116C65.0721 87 65.0342 86.9843 65.0063 86.9564C64.9783 86.9284 64.9626 86.8905 64.9626 86.851C64.9626 86.8115 64.9783 86.7736 65.0063 86.7457C65.0342 86.7178 65.0721 86.7021 65.1116 86.7021H121.87C121.91 86.7021 121.948 86.7178 121.976 86.7457C122.003 86.7736 122.019 86.8115 122.019 86.851C122.019 86.8905 122.003 86.9284 121.976 86.9564C121.948 86.9843 121.91 87 121.87 87Z" fill="#CACACA"/>
<path d="M81.5188 84.6517L83.8226 84.6516L84.9188 75.7649L81.5183 75.7651L81.5188 84.6517Z" fill="#FFB8B8"/>
<path d="M80.9309 83.8995L85.4683 83.8994H85.4684C86.2353 83.8994 86.9708 84.204 87.513 84.7463C88.0553 85.2885 88.3599 86.024 88.36 86.7909V86.8848L80.931 86.8851L80.9309 83.8995Z" fill="#2F2E41"/>
<path d="M89.2653 84.6517L91.5692 84.6516L92.6653 75.7649L89.2649 75.7651L89.2653 84.6517Z" fill="#FFB8B8"/>
<path d="M88.6775 83.8995L93.2148 83.8994H93.215C93.9819 83.8994 94.7173 84.204 95.2596 84.7463C95.8019 85.2885 96.1065 86.024 96.1066 86.7909V86.8848L88.6776 86.8851L88.6775 83.8995Z" fill="#2F2E41"/>
<path d="M85.14 53.4439L85.6927 81.637L81.2219 81.3597L78.1203 63.4023L77.1406 51.1584L85.14 53.4439Z" fill="#2F2E41"/>
<path d="M92.8126 48.7097L93.4392 82.0839L88.2251 81.9349L87.0989 62.0962L85.1399 54.9132L77.1406 51.1585L78.4466 42.1797L90.2006 42.0164L92.8126 48.7097Z" fill="#2F2E41"/>
<path d="M83.8234 18.8349C86.0315 18.8349 87.8215 17.0449 87.8215 14.8368C87.8215 12.6286 86.0315 10.8386 83.8234 10.8386C81.6152 10.8386 79.8252 12.6286 79.8252 14.8368C79.8252 17.0449 81.6152 18.8349 83.8234 18.8349Z" fill="#FFB8B8"/>
<path d="M87.1395 20.5192L87.7519 21.447L89.3845 26.0179L88.0785 43.8121L80.4056 43.9755L79.4263 23.5691L81.4781 21.0044L87.1395 20.5192Z" fill="#CCCCCC"/>
<path d="M76.3245 24.0589L75.0185 23.8957C75.0185 23.8957 74.692 24.0589 74.5287 25.2017C74.3655 26.3444 72.4065 36.4659 72.4065 36.4659L75.0185 48.8729L77.957 44.955L76.1613 38.0984L77.957 31.2419L76.3245 24.0589Z" fill="#2F2E41"/>
<path d="M92.9758 23.8958H93.9553L96.4041 37.1189L94.1186 47.4037L91.8331 43.649L92.486 39.5677L92.1596 35.9763L91.0168 33.8539L92.9758 23.8958Z" fill="#2F2E41"/>
<path d="M86.1858 14.8368L85.4589 14.655C85.4589 14.655 84.9137 11.5655 83.6415 11.929C82.3694 12.2925 79.0981 12.6559 79.0981 11.2021C79.0981 9.74818 82.1876 8.47604 84.005 8.65777C85.8223 8.83951 88.1434 9.44241 88.7301 12.1107C89.6706 16.3882 86.7895 17.4686 86.7895 17.4686L86.8375 17.3129C86.9706 16.8804 86.9801 16.4194 86.865 15.9818C86.7498 15.5443 86.5145 15.1476 86.1858 14.8368Z" fill="#2F2E41"/>
<path d="M75.1816 23.8957L80.4056 21.7734L81.63 20.8756L85.3032 37.1189L87.0173 20.3858L93.7922 23.8957L91.5067 34.9967L91.1802 39.2412L92.1597 42.6694C92.1597 42.6694 95.5879 45.1182 94.4452 47.7302C93.3024 50.3422 91.9964 50.5055 91.9964 50.5055C91.9964 50.5055 86.4459 45.2814 86.1194 43.9754C85.7929 42.6694 85.3032 40.3839 85.3032 40.3839C85.3032 40.3839 82.5279 50.8319 79.2629 50.6687C75.9979 50.5054 75.9979 47.0772 75.9979 47.0772L76.8142 43.4857L78.1202 39.7309L77.4672 33.5274L75.1816 23.8957Z" fill="#2F2E41"/>
</g>
<defs>
<clipPath id="clip0_863_1331">
<rect width="122.019" height="87" fill="white"/>
</clipPath>
</defs>
</svg>
