<svg width="100" height="87" viewBox="0 0 100 87" fill="none" xmlns="http://www.w3.org/2000/svg">
<g clip-path="url(#clip0_863_1251)">
<path d="M90.059 45.2762C90.0721 56.0415 85.911 66.3926 78.4505 74.1537C78.0007 74.6246 77.5388 75.0841 77.0647 75.5324C76.3425 76.2194 75.596 76.8797 74.8252 77.5135C67.615 83.4539 58.6137 86.7921 49.2735 86.9894C48.9623 86.9965 48.6499 87 48.3364 87C40.8874 87 31.5184 83.0213 23.016 77.5135C22.3126 77.0578 21.6154 76.5916 20.9245 76.1148C20.6016 75.8941 20.2802 75.6701 19.9604 75.4431C16.6811 73.1276 13.5684 70.5847 10.6453 67.8333C8.73146 66.0371 6.93676 64.118 5.27264 62.0883C-1.26032 54.0298 -2.70126 46.7688 6.61258 45.2762C7.71531 45.1 8.78554 44.9117 9.82328 44.7113C11.3265 44.4224 12.7651 44.1104 14.1391 43.7753C15.9898 43.3256 17.7287 42.8378 19.3556 42.3121C19.9028 42.1359 20.4375 41.9562 20.9597 41.7731C28.68 39.0615 33.8472 35.5255 37.3644 31.6888C37.9609 31.0394 38.5109 30.3822 39.0143 29.7171C39.7845 28.7048 40.4842 27.6406 41.1082 26.5322C41.9696 24.9922 42.693 23.379 43.2702 21.7115L43.3019 21.6199C46.1004 13.5473 45.249 6.05961 48.3364 3.55353C61.5338 -7.16015 77.9643 8.09712 85.6763 26.0895C86.065 26.9961 86.4307 27.9082 86.7732 28.8257C86.927 29.2356 87.0754 29.6462 87.2183 30.0576C87.5941 31.1298 87.935 32.2048 88.2411 33.2824C88.3586 33.6935 88.4705 34.1041 88.577 34.5143C88.6909 34.9571 88.8001 35.3986 88.9011 35.8402C89.6515 39.0732 90.059 42.2616 90.059 45.2762Z" fill="#F2F2F2"/>
<path d="M49.2736 86.9894C48.9624 86.9965 48.65 87 48.3365 87C40.8875 87 31.5185 83.0213 23.0161 77.5135C22.3127 77.0579 21.6155 76.5917 20.9246 76.1149L21.5305 72.4274L39.8752 69.9918L49.0822 77.032L49.2736 86.9894Z" fill="#2F2E41"/>
<path d="M50.1567 21.1443H47.5426C47.4617 21.1443 47.384 21.1765 47.3268 21.2338C47.2695 21.291 47.2373 21.3686 47.2373 21.4496V24.0649C47.2373 24.1049 47.2453 24.1446 47.2606 24.1815C47.276 24.2185 47.2985 24.252 47.3269 24.2803C47.3552 24.3086 47.3889 24.3309 47.4259 24.3462C47.4629 24.3614 47.5026 24.3692 47.5426 24.3691H50.1567C50.2375 24.3691 50.315 24.3371 50.3723 24.2801C50.4295 24.2231 50.4618 24.1457 50.4621 24.0649V21.4496C50.4618 21.3687 50.4296 21.2912 50.3724 21.234C50.3152 21.1768 50.2376 21.1445 50.1567 21.1443Z" fill="white"/>
<path d="M50.1567 25.601H47.5426C47.4617 25.601 47.384 25.6332 47.3268 25.6905C47.2695 25.7477 47.2373 25.8254 47.2373 25.9063V28.5216C47.2373 28.5616 47.2453 28.6013 47.2606 28.6382C47.276 28.6752 47.2985 28.7088 47.3269 28.737C47.3552 28.7653 47.3889 28.7876 47.4259 28.8029C47.4629 28.8181 47.5026 28.8259 47.5426 28.8258H50.1567C50.2375 28.8258 50.315 28.7938 50.3723 28.7368C50.4295 28.6798 50.4618 28.6024 50.4621 28.5216V25.9063C50.4618 25.8254 50.4296 25.7479 50.3724 25.6907C50.3152 25.6335 50.2376 25.6012 50.1567 25.601Z" fill="#E6E6E6"/>
<path d="M50.1567 30.0577H47.5426C47.4617 30.0577 47.384 30.0899 47.3268 30.1471C47.2695 30.2044 47.2373 30.282 47.2373 30.363V32.9771C47.2372 33.0173 47.2451 33.057 47.2604 33.0941C47.2757 33.1311 47.2982 33.1648 47.3266 33.1932C47.3549 33.2216 47.3886 33.2441 47.4257 33.2594C47.4628 33.2747 47.5025 33.2825 47.5426 33.2824H50.1567C50.2377 33.2824 50.3154 33.2502 50.3726 33.193C50.4299 33.1357 50.462 33.0581 50.4621 32.9771V30.363C50.4618 30.2821 50.4296 30.2046 50.3724 30.1474C50.3152 30.0901 50.2376 30.0579 50.1567 30.0577Z" fill="#E6E6E6"/>
<path d="M50.4574 34.7657C50.4443 34.6953 50.4072 34.6318 50.3523 34.5859C50.2974 34.54 50.2283 34.5147 50.1567 34.5143H47.5426C47.4617 34.5144 47.384 34.5466 47.3268 34.6038C47.2695 34.6611 47.2373 34.7387 47.2373 34.8197V37.4338C47.2372 37.4739 47.2451 37.5137 47.2604 37.5508C47.2757 37.5878 47.2982 37.6215 47.3265 37.6499C47.3549 37.6783 47.3886 37.7007 47.4257 37.7161C47.4628 37.7314 47.5025 37.7392 47.5426 37.7391H50.1567C50.2377 37.7391 50.3154 37.7069 50.3726 37.6497C50.4299 37.5924 50.462 37.5148 50.4621 37.4338V34.8197C50.4623 34.8016 50.4607 34.7835 50.4574 34.7657Z" fill="#E6E6E6"/>
<path d="M50.2754 38.9946C50.2377 38.979 50.1974 38.971 50.1567 38.9711H47.5426C47.5025 38.971 47.4628 38.9788 47.4257 38.9941C47.3886 39.0095 47.3549 39.032 47.3265 39.0603C47.2982 39.0887 47.2757 39.1224 47.2604 39.1595C47.2451 39.1965 47.2372 39.2363 47.2373 39.2764V41.8905C47.2371 41.9307 47.2449 41.9705 47.2602 42.0076C47.2755 42.0447 47.2979 42.0784 47.3263 42.1068C47.3547 42.1352 47.3884 42.1577 47.4256 42.173C47.4627 42.1883 47.5025 42.196 47.5426 42.1959H50.1567C50.2377 42.1958 50.3154 42.1637 50.3726 42.1064C50.4299 42.0491 50.462 41.9715 50.4621 41.8905V39.2764C50.4619 39.2163 50.4442 39.1576 50.411 39.1075C50.3778 39.0574 50.3306 39.0181 50.2754 38.9946Z" fill="#E6E6E6"/>
<path d="M55.648 21.1443H53.0338C52.9529 21.1443 52.8752 21.1765 52.818 21.2338C52.7607 21.291 52.7286 21.3686 52.7285 21.4496V24.0649C52.7286 24.1049 52.7365 24.1446 52.7519 24.1815C52.7672 24.2185 52.7897 24.252 52.8181 24.2803C52.8465 24.3086 52.8801 24.3309 52.9171 24.3462C52.9541 24.3614 52.9938 24.3692 53.0338 24.3691H55.648C55.7287 24.3691 55.8062 24.3371 55.8635 24.2801C55.9207 24.2231 55.953 24.1457 55.9533 24.0649V21.4496C55.9531 21.3687 55.9208 21.2912 55.8636 21.234C55.8064 21.1768 55.7289 21.1445 55.648 21.1443Z" fill="#E6E6E6"/>
<path d="M55.648 25.601H53.0338C52.9529 25.601 52.8752 25.6332 52.818 25.6905C52.7607 25.7477 52.7285 25.8254 52.7285 25.9063V28.5216C52.7286 28.5616 52.7365 28.6013 52.7519 28.6382C52.7672 28.6752 52.7897 28.7088 52.8181 28.737C52.8465 28.7653 52.8801 28.7876 52.9171 28.8029C52.9541 28.8181 52.9938 28.8259 53.0338 28.8258H55.648C55.7287 28.8258 55.8063 28.7938 55.8635 28.7368C55.9207 28.6798 55.953 28.6024 55.9533 28.5216V25.9063C55.9531 25.8254 55.9208 25.7479 55.8636 25.6907C55.8064 25.6335 55.7289 25.6012 55.648 25.601Z" fill="#323F8D"/>
<path d="M55.648 30.0577H53.0338C52.9529 30.0577 52.8752 30.0899 52.818 30.1471C52.7607 30.2044 52.7285 30.282 52.7285 30.363V32.9771C52.7284 33.0173 52.7363 33.057 52.7516 33.0941C52.7669 33.1311 52.7894 33.1648 52.8178 33.1932C52.8461 33.2216 52.8798 33.2441 52.9169 33.2594C52.954 33.2747 52.9937 33.2825 53.0338 33.2824H55.648C55.7289 33.2824 55.8066 33.2502 55.8638 33.193C55.9211 33.1357 55.9533 33.0581 55.9533 32.9771V30.363C55.9531 30.2821 55.9208 30.2046 55.8636 30.1474C55.8064 30.0901 55.7289 30.0579 55.648 30.0577Z" fill="#323F8D"/>
<path d="M55.648 34.5143H53.0338C52.9698 34.5144 52.9074 34.5346 52.8556 34.5721C52.8037 34.6097 52.765 34.6626 52.7449 34.7234C52.7341 34.7543 52.7285 34.7869 52.7285 34.8197V37.4338C52.7284 37.4739 52.7363 37.5137 52.7516 37.5507C52.7669 37.5878 52.7894 37.6215 52.8178 37.6499C52.8461 37.6783 52.8798 37.7007 52.9169 37.7161C52.954 37.7314 52.9937 37.7392 53.0338 37.7391H55.648C55.7289 37.7391 55.8066 37.7069 55.8638 37.6497C55.9211 37.5924 55.9533 37.5148 55.9533 37.4338V34.8197C55.9531 34.7388 55.9208 34.6613 55.8636 34.604C55.8064 34.5468 55.7289 34.5146 55.648 34.5143Z" fill="#323F8D"/>
<path d="M55.648 38.9711H53.0338C52.9937 38.971 52.954 38.9788 52.9169 38.9941C52.8798 39.0095 52.8461 39.032 52.8178 39.0603C52.7894 39.0887 52.7669 39.1224 52.7516 39.1595C52.7363 39.1965 52.7284 39.2363 52.7285 39.2764V41.8905C52.7284 41.9306 52.7363 41.9704 52.7516 42.0075C52.7669 42.0445 52.7894 42.0782 52.8178 42.1066C52.8461 42.135 52.8798 42.1575 52.9169 42.1728C52.954 42.1881 52.9937 42.1959 53.0338 42.1959H55.648C55.7289 42.1958 55.8066 42.1637 55.8638 42.1064C55.9211 42.0491 55.9533 41.9715 55.9533 41.8905V39.2764C55.9533 39.1954 55.9211 39.1178 55.8638 39.0605C55.8066 39.0033 55.7289 38.9711 55.648 38.9711Z" fill="#E6E6E6"/>
<path d="M61.1392 21.1443H58.525C58.4441 21.1443 58.3664 21.1765 58.3092 21.2338C58.2519 21.291 58.2198 21.3686 58.2197 21.4496V24.0649C58.2198 24.1049 58.2277 24.1446 58.2431 24.1815C58.2584 24.2185 58.281 24.252 58.3093 24.2803C58.3377 24.3086 58.3713 24.3309 58.4083 24.3462C58.4454 24.3614 58.485 24.3692 58.525 24.3691H61.1392C61.22 24.3691 61.2975 24.3371 61.3547 24.2801C61.4119 24.2231 61.4442 24.1457 61.4445 24.0649V21.4496C61.4443 21.3687 61.412 21.2912 61.3548 21.234C61.2976 21.1768 61.2201 21.1445 61.1392 21.1443Z" fill="#323F8D"/>
<path d="M61.1392 25.601H58.525C58.4441 25.601 58.3664 25.6332 58.3092 25.6905C58.2519 25.7477 58.2198 25.8254 58.2197 25.9063V28.5216C58.2198 28.5616 58.2277 28.6013 58.2431 28.6382C58.2584 28.6752 58.281 28.7088 58.3093 28.737C58.3377 28.7653 58.3713 28.7876 58.4083 28.8029C58.4454 28.8181 58.485 28.8259 58.525 28.8258H61.1392C61.22 28.8258 61.2975 28.7938 61.3547 28.7368C61.4119 28.6798 61.4442 28.6024 61.4445 28.5216V25.9063C61.4443 25.8254 61.412 25.7479 61.3548 25.6907C61.2976 25.6335 61.2201 25.6012 61.1392 25.601Z" fill="#323F8D"/>
<path d="M61.1392 30.0577H58.525C58.4441 30.0577 58.3664 30.0899 58.3092 30.1471C58.2519 30.2044 58.2198 30.282 58.2197 30.363V32.9771C58.2196 33.0173 58.2275 33.057 58.2428 33.0941C58.2581 33.1311 58.2806 33.1648 58.309 33.1932C58.3373 33.2216 58.371 33.2441 58.4081 33.2594C58.4452 33.2747 58.4849 33.2825 58.525 33.2824H61.1392C61.2201 33.2824 61.2978 33.2502 61.355 33.193C61.4123 33.1357 61.4445 33.0581 61.4445 32.9771V30.363C61.4443 30.2821 61.412 30.2046 61.3548 30.1474C61.2976 30.0901 61.2201 30.0579 61.1392 30.0577Z" fill="#E6E6E6"/>
<path d="M61.1392 34.5143H58.525C58.4441 34.5144 58.3664 34.5466 58.3092 34.6038C58.2519 34.6611 58.2198 34.7387 58.2197 34.8197V37.4338C58.2196 37.4739 58.2275 37.5137 58.2428 37.5508C58.2581 37.5878 58.2806 37.6215 58.309 37.6499C58.3373 37.6783 58.371 37.7007 58.4081 37.7161C58.4452 37.7314 58.4849 37.7392 58.525 37.7391H61.1392C61.2201 37.7391 61.2978 37.7069 61.355 37.6497C61.4123 37.5924 61.4445 37.5148 61.4445 37.4338V34.8197C61.4443 34.7388 61.412 34.6613 61.3548 34.604C61.2976 34.5468 61.2201 34.5146 61.1392 34.5143Z" fill="#323F8D"/>
<path d="M61.1392 38.9711H58.525C58.4849 38.971 58.4452 38.9788 58.4081 38.9941C58.371 39.0095 58.3373 39.032 58.309 39.0603C58.2806 39.0887 58.2581 39.1224 58.2428 39.1595C58.2275 39.1965 58.2196 39.2363 58.2197 39.2764V41.8905C58.2196 41.9306 58.2275 41.9704 58.2428 42.0075C58.2581 42.0445 58.2806 42.0782 58.309 42.1066C58.3373 42.135 58.371 42.1575 58.4081 42.1728C58.4452 42.1881 58.4849 42.1959 58.525 42.1959H61.1392C61.2201 42.1958 61.2978 42.1637 61.355 42.1064C61.4123 42.0491 61.4445 41.9715 61.4445 41.8905V39.2764C61.4445 39.1954 61.4123 39.1178 61.355 39.0605C61.2978 39.0033 61.2201 38.9711 61.1392 38.9711Z" fill="#323F8D"/>
<path d="M66.6306 21.1443H64.0165C63.9355 21.1443 63.8579 21.1765 63.8007 21.2338C63.7434 21.291 63.7112 21.3686 63.7112 21.4496V24.0649C63.7112 24.1049 63.7192 24.1446 63.7345 24.1815C63.7499 24.2185 63.7724 24.252 63.8008 24.2803C63.8291 24.3086 63.8628 24.3309 63.8998 24.3462C63.9368 24.3614 63.9765 24.3692 64.0165 24.3691H66.6306C66.7114 24.3691 66.7889 24.3371 66.8462 24.2801C66.9034 24.2231 66.9357 24.1457 66.936 24.0649V21.4496C66.9357 21.3687 66.9035 21.2912 66.8463 21.234C66.7891 21.1768 66.7115 21.1445 66.6306 21.1443Z" fill="#323F8D"/>
<path d="M66.6306 25.601H64.0165C63.9355 25.601 63.8579 25.6332 63.8006 25.6905C63.7434 25.7477 63.7112 25.8253 63.7112 25.9063V28.5216C63.7112 28.5616 63.7192 28.6013 63.7345 28.6382C63.7499 28.6752 63.7724 28.7088 63.8008 28.737C63.8291 28.7653 63.8628 28.7876 63.8998 28.8029C63.9368 28.8181 63.9765 28.8259 64.0165 28.8258H66.6306C66.7114 28.8258 66.7889 28.7938 66.8462 28.7368C66.9034 28.6798 66.9357 28.6024 66.936 28.5216V25.9063C66.9357 25.8254 66.9035 25.7479 66.8463 25.6907C66.7891 25.6335 66.7115 25.6012 66.6306 25.601Z" fill="white"/>
<path d="M66.6306 30.0577H64.0165C63.9355 30.0577 63.8579 30.0899 63.8006 30.1471C63.7434 30.2044 63.7112 30.282 63.7112 30.363V32.9771C63.7111 33.0173 63.7189 33.057 63.7343 33.0941C63.7496 33.1312 63.7721 33.1648 63.8004 33.1932C63.8288 33.2216 63.8625 33.2441 63.8996 33.2594C63.9367 33.2747 63.9764 33.2825 64.0165 33.2824H66.6306C66.7116 33.2824 66.7892 33.2502 66.8465 33.193C66.9038 33.1357 66.9359 33.0581 66.936 32.9771V30.363C66.9357 30.2821 66.9035 30.2046 66.8463 30.1474C66.7891 30.0901 66.7115 30.0579 66.6306 30.0577Z" fill="white"/>
<path d="M66.6306 34.5143H64.0165C63.9355 34.5144 63.8579 34.5466 63.8006 34.6038C63.7434 34.6611 63.7112 34.7387 63.7112 34.8197V37.4338C63.7111 37.4739 63.7189 37.5137 63.7343 37.5508C63.7496 37.5878 63.7721 37.6215 63.8004 37.6499C63.8288 37.6783 63.8625 37.7008 63.8996 37.7161C63.9367 37.7314 63.9764 37.7392 64.0165 37.7391H66.6306C66.7116 37.7391 66.7892 37.7069 66.8465 37.6497C66.9038 37.5924 66.9359 37.5148 66.936 37.4338V34.8197C66.9357 34.7388 66.9035 34.6613 66.8463 34.604C66.7891 34.5468 66.7115 34.5146 66.6306 34.5143Z" fill="#E6E6E6"/>
<path d="M66.6306 38.9711H64.0165C63.9764 38.971 63.9367 38.9788 63.8996 38.9941C63.8625 39.0095 63.8288 39.032 63.8004 39.0603C63.7721 39.0887 63.7496 39.1224 63.7343 39.1595C63.7189 39.1965 63.7111 39.2363 63.7112 39.2764V41.8905C63.7111 41.9306 63.7189 41.9704 63.7343 42.0075C63.7496 42.0445 63.7721 42.0782 63.8004 42.1066C63.8288 42.135 63.8625 42.1575 63.8996 42.1728C63.9367 42.1881 63.9764 42.1959 64.0165 42.1959H66.6306C66.7116 42.1958 66.7893 42.1637 66.8465 42.1064C66.9038 42.0491 66.9359 41.9715 66.936 41.8905V39.2764C66.9359 39.1954 66.9038 39.1178 66.8465 39.0605C66.7892 39.0033 66.7116 38.9711 66.6306 38.9711Z" fill="#323F8D"/>
<path d="M72.1219 21.1443H69.5066C69.4258 21.1446 69.3484 21.1769 69.2914 21.2341C69.2344 21.2913 69.2024 21.3688 69.2024 21.4496V24.0649C69.2024 24.1456 69.2345 24.2229 69.2915 24.28C69.3485 24.337 69.4259 24.3691 69.5066 24.3691H72.1219C72.2026 24.3691 72.2801 24.3371 72.3374 24.2801C72.3946 24.2231 72.4269 24.1457 72.4272 24.0649V21.4496C72.427 21.3687 72.3947 21.2912 72.3375 21.234C72.2803 21.1768 72.2028 21.1445 72.1219 21.1443Z" fill="white"/>
<path d="M72.1219 25.601H69.5066C69.4258 25.6013 69.3484 25.6336 69.2914 25.6908C69.2344 25.748 69.2024 25.8255 69.2024 25.9063V28.5216C69.2024 28.6023 69.2345 28.6796 69.2915 28.7367C69.3485 28.7937 69.4259 28.8258 69.5066 28.8258H72.1219C72.2026 28.8258 72.2801 28.7938 72.3374 28.7368C72.3946 28.6798 72.4269 28.6024 72.4272 28.5216V25.9063C72.427 25.8254 72.3947 25.7479 72.3375 25.6907C72.2803 25.6335 72.2028 25.6012 72.1219 25.601Z" fill="white"/>
<path d="M72.1219 30.0577H69.5066C69.4258 30.0579 69.3484 30.0902 69.2914 30.1475C69.2344 30.2047 69.2024 30.2822 69.2024 30.363V32.9771C69.2023 33.0172 69.2101 33.0568 69.2253 33.0938C69.2405 33.1309 69.2629 33.1645 69.2912 33.1929C69.3194 33.2212 69.353 33.2437 69.3899 33.2591C69.4269 33.2745 69.4665 33.2824 69.5066 33.2824H72.1219C72.2028 33.2824 72.2805 33.2502 72.3377 33.193C72.395 33.1357 72.4272 33.0581 72.4272 32.9771V30.363C72.427 30.2821 72.3947 30.2046 72.3375 30.1474C72.2803 30.0901 72.2028 30.0579 72.1219 30.0577Z" fill="white"/>
<path d="M72.1219 34.5143H69.5066C69.4258 34.5146 69.3484 34.5469 69.2914 34.6042C69.2344 34.6614 69.2024 34.7389 69.2024 34.8197V37.4338C69.2023 37.4738 69.2101 37.5135 69.2253 37.5505C69.2405 37.5875 69.2629 37.6212 69.2912 37.6496C69.3194 37.6779 69.353 37.7004 69.3899 37.7158C69.4269 37.7312 69.4665 37.7391 69.5066 37.7391H72.1219C72.2028 37.7391 72.2805 37.7069 72.3377 37.6497C72.395 37.5924 72.4272 37.5148 72.4272 37.4338V34.8197C72.427 34.7388 72.3947 34.6613 72.3375 34.604C72.2803 34.5468 72.2028 34.5146 72.1219 34.5143Z" fill="#323F8D"/>
<path d="M72.1219 38.9711H69.5066C69.4665 38.9711 69.4269 38.979 69.3899 38.9944C69.353 39.0098 69.3194 39.0323 69.2912 39.0607C69.2629 39.089 69.2405 39.1227 69.2253 39.1597C69.2101 39.1967 69.2023 39.2364 69.2024 39.2764V41.8905C69.2023 41.9306 69.2101 41.9702 69.2253 42.0072C69.2405 42.0443 69.2629 42.0779 69.2912 42.1063C69.3194 42.1346 69.353 42.1571 69.3899 42.1725C69.4269 42.1879 69.4665 42.1958 69.5066 42.1959H72.1219C72.2028 42.1958 72.2805 42.1636 72.3377 42.1064C72.395 42.0491 72.4272 41.9715 72.4272 41.8905V39.2764C72.4272 39.1954 72.395 39.1178 72.3377 39.0605C72.2805 39.0033 72.2028 38.9711 72.1219 38.9711Z" fill="#E6E6E6"/>
<path d="M77.6131 21.1443H74.9978C74.917 21.1446 74.8396 21.1769 74.7826 21.2341C74.7256 21.2913 74.6936 21.3688 74.6936 21.4496V24.0649C74.6936 24.1456 74.7257 24.2229 74.7827 24.28C74.8397 24.337 74.9171 24.3691 74.9978 24.3691H77.6131C77.6939 24.3691 77.7713 24.3371 77.8286 24.2801C77.8858 24.2231 77.9181 24.1457 77.9184 24.0649V21.4496C77.9182 21.3687 77.8859 21.2912 77.8287 21.234C77.7715 21.1768 77.694 21.1445 77.6131 21.1443Z" fill="white"/>
<path d="M77.6131 25.601H74.9978C74.917 25.6013 74.8396 25.6336 74.7826 25.6908C74.7256 25.748 74.6936 25.8255 74.6936 25.9063V28.5216C74.6936 28.6023 74.7257 28.6796 74.7827 28.7367C74.8397 28.7937 74.9171 28.8258 74.9978 28.8258H77.6131C77.6939 28.8258 77.7713 28.7938 77.8286 28.7368C77.8858 28.6798 77.9181 28.6024 77.9184 28.5216V25.9063C77.9182 25.8254 77.8859 25.7479 77.8287 25.6907C77.7715 25.6335 77.694 25.6012 77.6131 25.601Z" fill="white"/>
<path d="M77.6131 30.0577H74.9978C74.917 30.0579 74.8396 30.0902 74.7826 30.1475C74.7256 30.2047 74.6936 30.2822 74.6936 30.363V32.9771C74.6935 33.0172 74.7013 33.0568 74.7165 33.0938C74.7317 33.1309 74.7541 33.1645 74.7824 33.1929C74.8106 33.2212 74.8442 33.2437 74.8811 33.2591C74.9181 33.2745 74.9577 33.2824 74.9978 33.2824H77.6131C77.694 33.2824 77.7717 33.2502 77.8289 33.193C77.8862 33.1357 77.9184 33.0581 77.9184 32.9771V30.363C77.9182 30.2821 77.8859 30.2046 77.8287 30.1474C77.7715 30.0901 77.694 30.0579 77.6131 30.0577Z" fill="#323F8D"/>
<path d="M77.6131 34.5143H74.9978C74.917 34.5146 74.8396 34.5469 74.7826 34.6042C74.7256 34.6614 74.6936 34.7389 74.6936 34.8197V37.4338C74.6935 37.4738 74.7013 37.5135 74.7165 37.5505C74.7317 37.5875 74.7541 37.6212 74.7824 37.6496C74.8106 37.6779 74.8442 37.7004 74.8811 37.7158C74.9181 37.7312 74.9577 37.7391 74.9978 37.7391H77.6131C77.694 37.7391 77.7717 37.7069 77.8289 37.6497C77.8862 37.5924 77.9184 37.5148 77.9184 37.4338V34.8197C77.9182 34.7388 77.8859 34.6613 77.8287 34.604C77.7715 34.5468 77.694 34.5146 77.6131 34.5143Z" fill="#E6E6E6"/>
<path d="M77.6131 38.9711H74.9978C74.9577 38.9711 74.9181 38.979 74.8811 38.9944C74.8442 39.0098 74.8106 39.0323 74.7824 39.0607C74.7541 39.089 74.7317 39.1227 74.7165 39.1597C74.7013 39.1967 74.6935 39.2364 74.6936 39.2764V41.8905C74.6935 41.9306 74.7013 41.9702 74.7165 42.0072C74.7317 42.0443 74.7541 42.0779 74.7824 42.1063C74.8106 42.1346 74.8442 42.1571 74.8811 42.1725C74.9181 42.1879 74.9577 42.1958 74.9978 42.1959H77.6131C77.694 42.1958 77.7717 42.1636 77.8289 42.1064C77.8862 42.0491 77.9184 41.9715 77.9184 41.8905V39.2764C77.9184 39.1954 77.8862 39.1178 77.8289 39.0605C77.7717 39.0033 77.694 38.9711 77.6131 38.9711Z" fill="white"/>
<path d="M83.1045 21.1443H80.4892C80.4084 21.1446 80.3311 21.1769 80.274 21.2341C80.217 21.2913 80.185 21.3688 80.1851 21.4496V24.0649C80.1851 24.1456 80.2171 24.2229 80.2742 24.28C80.3312 24.337 80.4086 24.3691 80.4892 24.3691H83.1045C83.1853 24.3691 83.2628 24.3371 83.32 24.2801C83.3773 24.2231 83.4096 24.1457 83.4099 24.0649V21.4496C83.4096 21.3687 83.3774 21.2912 83.3202 21.234C83.2629 21.1768 83.1854 21.1445 83.1045 21.1443Z" fill="#323F8D"/>
<path d="M83.1045 25.601H80.4892C80.4084 25.6013 80.3311 25.6336 80.274 25.6908C80.217 25.748 80.185 25.8255 80.1851 25.9063V28.5216C80.1851 28.6023 80.2171 28.6796 80.2742 28.7367C80.3312 28.7937 80.4086 28.8258 80.4892 28.8258H83.1045C83.1853 28.8258 83.2628 28.7938 83.32 28.7368C83.3773 28.6798 83.4096 28.6024 83.4099 28.5216V25.9063C83.4096 25.8254 83.3774 25.7479 83.3202 25.6907C83.263 25.6335 83.1854 25.6012 83.1045 25.601Z" fill="#323F8D"/>
<path d="M83.1045 30.0577H80.4892C80.4084 30.0579 80.3311 30.0902 80.274 30.1475C80.217 30.2047 80.185 30.2822 80.1851 30.363V32.9771C80.1849 33.0172 80.1927 33.0568 80.208 33.0938C80.2232 33.1309 80.2456 33.1645 80.2738 33.1929C80.3021 33.2212 80.3356 33.2437 80.3726 33.2591C80.4096 33.2745 80.4492 33.2824 80.4892 33.2824H83.1045C83.1855 33.2824 83.2631 33.2502 83.3204 33.193C83.3776 33.1357 83.4098 33.0581 83.4099 32.9771V30.363C83.4096 30.2821 83.3774 30.2046 83.3202 30.1474C83.263 30.0901 83.1854 30.0579 83.1045 30.0577Z" fill="#E6E6E6"/>
<path d="M83.1045 34.5143H80.4892C80.4084 34.5146 80.3311 34.5469 80.274 34.6042C80.217 34.6614 80.185 34.7389 80.1851 34.8197V37.4338C80.1849 37.4738 80.1927 37.5135 80.208 37.5505C80.2232 37.5875 80.2456 37.6212 80.2738 37.6496C80.3021 37.6779 80.3356 37.7004 80.3726 37.7158C80.4096 37.7312 80.4492 37.7391 80.4892 37.7391H83.1045C83.1855 37.7391 83.2631 37.7069 83.3204 37.6497C83.3776 37.5924 83.4098 37.5148 83.4099 37.4338V34.8197C83.4096 34.7388 83.3774 34.6613 83.3202 34.604C83.263 34.5468 83.1854 34.5146 83.1045 34.5143Z" fill="white"/>
<path d="M83.1045 38.9711H80.4892C80.4492 38.9711 80.4096 38.979 80.3726 38.9944C80.3356 39.0098 80.3021 39.0323 80.2738 39.0607C80.2456 39.089 80.2232 39.1227 80.208 39.1597C80.1927 39.1967 80.1849 39.2364 80.1851 39.2764V41.8905C80.1849 41.9306 80.1927 41.9702 80.208 42.0072C80.2232 42.0443 80.2456 42.0779 80.2738 42.1063C80.3021 42.1346 80.3356 42.1571 80.3726 42.1725C80.4096 42.1879 80.4492 42.1958 80.4892 42.1959H83.1045C83.1855 42.1958 83.2631 42.1636 83.3204 42.1064C83.3776 42.0491 83.4098 41.9715 83.4099 41.8905V39.2764C83.4098 39.1954 83.3776 39.1178 83.3204 39.0605C83.2631 39.0033 83.1855 38.9711 83.1045 38.9711Z" fill="#323F8D"/>
<path d="M88.5957 21.1443H85.9804C85.8996 21.1446 85.8223 21.1769 85.7653 21.2341C85.7082 21.2913 85.6762 21.3688 85.6763 21.4496V24.0649C85.6763 24.1456 85.7083 24.2229 85.7654 24.28C85.8224 24.337 85.8998 24.3691 85.9804 24.3691H88.5957C88.6765 24.3691 88.754 24.3371 88.8113 24.2801C88.8685 24.2231 88.9008 24.1457 88.9011 24.0649V21.4496C88.9008 21.3687 88.8686 21.2912 88.8114 21.234C88.7542 21.1768 88.6766 21.1445 88.5957 21.1443Z" fill="#323F8D"/>
<path d="M88.5957 25.601H85.9804C85.8996 25.6013 85.8223 25.6336 85.7652 25.6908C85.7082 25.748 85.6762 25.8255 85.6763 25.9063V28.5216C85.6763 28.6023 85.7083 28.6796 85.7654 28.7367C85.8224 28.7937 85.8998 28.8258 85.9804 28.8258H88.5957C88.6765 28.8258 88.754 28.7938 88.8113 28.7368C88.8685 28.6798 88.9008 28.6024 88.9011 28.5216V25.9063C88.9008 25.8254 88.8686 25.7479 88.8114 25.6907C88.7542 25.6335 88.6766 25.6012 88.5957 25.601Z" fill="#323F8D"/>
<path d="M88.5957 30.0577H85.9804C85.8996 30.0579 85.8223 30.0902 85.7653 30.1475C85.7082 30.2047 85.6762 30.2822 85.6763 30.363V32.9771C85.6762 33.0172 85.6839 33.0568 85.6992 33.0938C85.7144 33.1309 85.7368 33.1645 85.765 33.1929C85.7933 33.2212 85.8269 33.2437 85.8638 33.2591C85.9008 33.2745 85.9404 33.2824 85.9804 33.2824H88.5957C88.6767 33.2824 88.7543 33.2502 88.8116 33.193C88.8688 33.1357 88.901 33.0581 88.9011 32.9771V30.363C88.9008 30.2821 88.8686 30.2046 88.8114 30.1474C88.7542 30.0901 88.6766 30.0579 88.5957 30.0577Z" fill="#E6E6E6"/>
<path d="M88.5957 34.5143H85.9804C85.8996 34.5146 85.8223 34.5469 85.7653 34.6042C85.7082 34.6614 85.6762 34.7389 85.6763 34.8197V37.4338C85.6762 37.4738 85.6839 37.5135 85.6992 37.5505C85.7144 37.5875 85.7368 37.6212 85.765 37.6496C85.7933 37.6779 85.8269 37.7004 85.8638 37.7158C85.9008 37.7312 85.9404 37.7391 85.9804 37.7391H88.5957C88.6767 37.7391 88.7543 37.7069 88.8116 37.6497C88.8688 37.5924 88.901 37.5148 88.9011 37.4338V34.8197C88.9008 34.7388 88.8686 34.6613 88.8114 34.604C88.7542 34.5468 88.6766 34.5146 88.5957 34.5143Z" fill="#323F8D"/>
<path d="M88.5957 38.9711H85.9804C85.9404 38.9711 85.9008 38.979 85.8638 38.9944C85.8269 39.0098 85.7933 39.0323 85.765 39.0607C85.7368 39.089 85.7144 39.1227 85.6992 39.1597C85.6839 39.1967 85.6762 39.2364 85.6763 39.2764V41.8905C85.6762 41.9306 85.6839 41.9702 85.6992 42.0072C85.7144 42.0443 85.7368 42.0779 85.765 42.1063C85.7933 42.1346 85.8268 42.1571 85.8638 42.1725C85.9008 42.1879 85.9404 42.1958 85.9804 42.1959H88.5957C88.6767 42.1958 88.7543 42.1636 88.8116 42.1064C88.8688 42.0491 88.901 41.9715 88.9011 41.8905V39.2764C88.901 39.1954 88.8688 39.1178 88.8116 39.0605C88.7543 39.0033 88.6767 38.9711 88.5957 38.9711Z" fill="#323F8D"/>
<path d="M94.0872 21.1443H91.4719C91.3911 21.1446 91.3137 21.1769 91.2567 21.2341C91.1997 21.2913 91.1677 21.3688 91.1677 21.4496V24.0649C91.1677 24.1456 91.1998 24.2229 91.2568 24.28C91.3139 24.337 91.3912 24.3691 91.4719 24.3691H94.0872C94.168 24.3691 94.2455 24.3371 94.3027 24.2801C94.3599 24.2231 94.3922 24.1457 94.3925 24.0649V21.4496C94.3923 21.3687 94.36 21.2912 94.3028 21.234C94.2456 21.1768 94.1681 21.1445 94.0872 21.1443Z" fill="#E6E6E6"/>
<path d="M94.0872 25.601H91.4719C91.3911 25.6013 91.3137 25.6336 91.2567 25.6908C91.1997 25.748 91.1677 25.8255 91.1677 25.9063V28.5216C91.1677 28.6023 91.1998 28.6796 91.2568 28.7367C91.3139 28.7937 91.3912 28.8258 91.4719 28.8258H94.0872C94.168 28.8258 94.2455 28.7938 94.3027 28.7368C94.3599 28.6798 94.3922 28.6024 94.3925 28.5216V25.9063C94.3923 25.8254 94.36 25.7479 94.3028 25.6907C94.2456 25.6335 94.1681 25.6012 94.0872 25.601Z" fill="#323F8D"/>
<path d="M94.0872 30.0577H91.4719C91.3911 30.0579 91.3137 30.0902 91.2567 30.1475C91.1997 30.2047 91.1677 30.2822 91.1677 30.363V32.9771C91.1676 33.0172 91.1754 33.0568 91.1906 33.0938C91.2059 33.1309 91.2282 33.1645 91.2565 33.1929C91.2847 33.2212 91.3183 33.2437 91.3553 33.2591C91.3922 33.2745 91.4319 33.2824 91.4719 33.2824H94.0872C94.1681 33.2824 94.2458 33.2502 94.303 33.193C94.3603 33.1357 94.3925 33.0581 94.3925 32.9771V30.363C94.3923 30.2821 94.36 30.2046 94.3028 30.1474C94.2456 30.0901 94.1681 30.0579 94.0872 30.0577Z" fill="#323F8D"/>
<path d="M94.0872 34.5143H91.4719C91.3911 34.5146 91.3137 34.5469 91.2567 34.6042C91.1997 34.6614 91.1677 34.7389 91.1677 34.8197V37.4338C91.1676 37.4738 91.1754 37.5135 91.1906 37.5505C91.2059 37.5875 91.2282 37.6212 91.2565 37.6496C91.2847 37.6779 91.3183 37.7004 91.3553 37.7158C91.3922 37.7312 91.4319 37.7391 91.4719 37.7391H94.0872C94.1681 37.7391 94.2458 37.7069 94.303 37.6497C94.3603 37.5924 94.3925 37.5148 94.3925 37.4338V34.8197C94.3923 34.7388 94.36 34.6613 94.3028 34.604C94.2456 34.5468 94.1681 34.5146 94.0872 34.5143Z" fill="#323F8D"/>
<path d="M94.0872 38.9711H91.4719C91.4319 38.9711 91.3922 38.979 91.3553 38.9944C91.3183 39.0098 91.2847 39.0323 91.2565 39.0607C91.2282 39.089 91.2059 39.1227 91.1906 39.1597C91.1754 39.1967 91.1676 39.2364 91.1677 39.2764V41.8905C91.1676 41.9306 91.1754 41.9702 91.1906 42.0072C91.2059 42.0443 91.2282 42.0779 91.2565 42.1063C91.2847 42.1346 91.3183 42.1571 91.3553 42.1725C91.3922 42.1879 91.4319 42.1958 91.4719 42.1959H94.0872C94.1681 42.1958 94.2458 42.1636 94.303 42.1064C94.3603 42.0491 94.3925 41.9715 94.3925 41.8905V39.2764C94.3925 39.1954 94.3603 39.1178 94.303 39.0605C94.2458 39.0033 94.1681 38.9711 94.0872 38.9711Z" fill="#E6E6E6"/>
<path d="M99.5784 21.1443H96.9631C96.8823 21.1446 96.8049 21.1769 96.7479 21.2341C96.6909 21.2913 96.6589 21.3688 96.6589 21.4496V24.0649C96.659 24.1456 96.691 24.2229 96.748 24.28C96.8051 24.337 96.8824 24.3691 96.9631 24.3691H99.5784C99.6592 24.3691 99.7367 24.3371 99.7939 24.2801C99.8512 24.2231 99.8835 24.1457 99.8837 24.0649V21.4496C99.8835 21.3687 99.8513 21.2912 99.794 21.234C99.7368 21.1768 99.6593 21.1445 99.5784 21.1443Z" fill="#E6E6E6"/>
<path d="M99.5784 25.601H96.9631C96.8823 25.6013 96.8049 25.6336 96.7479 25.6908C96.6909 25.748 96.6589 25.8255 96.6589 25.9063V28.5216C96.659 28.6023 96.691 28.6796 96.748 28.7367C96.8051 28.7937 96.8824 28.8258 96.9631 28.8258H99.5784C99.6592 28.8258 99.7367 28.7938 99.7939 28.7368C99.8512 28.6798 99.8835 28.6024 99.8837 28.5216V25.9063C99.8835 25.8254 99.8513 25.7479 99.794 25.6907C99.7368 25.6335 99.6593 25.6012 99.5784 25.601Z" fill="#E6E6E6"/>
<path d="M99.5784 30.0577H96.9631C96.8823 30.0579 96.8049 30.0902 96.7479 30.1475C96.6909 30.2047 96.6589 30.2822 96.6589 30.363V32.9771C96.6588 33.0172 96.6666 33.0568 96.6818 33.0938C96.6971 33.1309 96.7195 33.1645 96.7477 33.1929C96.776 33.2212 96.8095 33.2437 96.8465 33.2591C96.8834 33.2745 96.9231 33.2824 96.9631 33.2824H99.5784C99.6594 33.2824 99.737 33.2502 99.7943 33.193C99.8515 33.1357 99.8837 33.0581 99.8837 32.9771V30.363C99.8835 30.2821 99.8513 30.2046 99.794 30.1474C99.7368 30.0901 99.6593 30.0579 99.5784 30.0577Z" fill="#323F8D"/>
<path d="M99.5784 34.5143H96.9631C96.8823 34.5146 96.8049 34.5469 96.7479 34.6042C96.6909 34.6614 96.6589 34.7389 96.6589 34.8197V37.4338C96.6588 37.4738 96.6666 37.5135 96.6818 37.5505C96.6971 37.5875 96.7195 37.6212 96.7477 37.6496C96.776 37.6779 96.8095 37.7004 96.8465 37.7158C96.8834 37.7312 96.9231 37.7391 96.9631 37.7391H99.5784C99.6594 37.7391 99.737 37.7069 99.7943 37.6497C99.8515 37.5924 99.8837 37.5148 99.8837 37.4338V34.8197C99.8835 34.7388 99.8513 34.6613 99.794 34.604C99.7368 34.5468 99.6593 34.5146 99.5784 34.5143Z" fill="#E6E6E6"/>
<path d="M99.5784 38.9711H96.9631C96.9231 38.9711 96.8834 38.979 96.8465 38.9944C96.8095 39.0098 96.776 39.0323 96.7477 39.0607C96.7195 39.089 96.6971 39.1227 96.6818 39.1597C96.6666 39.1967 96.6588 39.2364 96.6589 39.2764V41.8905C96.6588 41.9306 96.6666 41.9702 96.6818 42.0072C96.6971 42.0443 96.7195 42.0779 96.7477 42.1063C96.776 42.1346 96.8095 42.1571 96.8465 42.1725C96.8834 42.1879 96.9231 42.1958 96.9631 42.1959H99.5784C99.6594 42.1958 99.737 42.1636 99.7943 42.1064C99.8515 42.0491 99.8837 41.9715 99.8837 41.8905V39.2764C99.8837 39.1954 99.8515 39.1178 99.7943 39.0605C99.737 39.0033 99.6594 38.9711 99.5784 38.9711Z" fill="#E6E6E6"/>
<path d="M39.4695 77.5137H39.3967L39.459 77.5055L39.4695 77.5137Z" fill="#2F2E41"/>
<path d="M33.2127 28.7782C37.6439 28.7782 41.2361 25.186 41.2361 20.7548C41.2361 16.3236 37.6439 12.7313 33.2127 12.7313C28.7814 12.7313 25.1892 16.3236 25.1892 20.7548C25.1892 25.186 28.7814 28.7782 33.2127 28.7782Z" fill="#FFB6B6"/>
<path d="M40.2391 14.8721C40.2391 14.8721 42.3376 10.8604 37.7208 10.4957C37.7208 10.4957 33.7849 6.92537 29.7732 9.84299C29.7732 9.84299 27.585 9.84299 26.3884 12.3192C26.3884 12.3192 24.6674 11.6665 24.2892 13.4133C24.2892 13.4133 23.0299 17.0603 24.2892 20.3427C25.5485 23.625 25.9668 23.9897 25.9668 23.9897C25.9668 23.9897 23.8975 17.1081 28.9344 16.7434C33.9713 16.3787 39.6078 13.231 40.0275 17.2427C40.4473 21.2544 41.079 22.2428 41.079 22.2428C41.079 22.2428 45.0659 16.5133 40.2391 14.8721Z" fill="#2F2E41"/>
<path d="M53.9674 40.5283L53.9415 40.6645L53.6515 42.1959L51.6468 52.7886L51.5282 53.4122L51.2793 54.731L50.9387 56.5301L50.1836 60.517L49.9675 61.6597L49.8865 62.0883L49.8583 62.2386L49.634 63.4212L49.5659 63.7782L49.0186 67.8333L48.5407 71.3669L50.1401 72.9664L49.1866 73.92L48.5606 77.5053L48.5618 77.5135H23.016C21.9825 76.8441 20.964 76.154 19.9603 75.4431L20.1705 73.8695C20.1705 73.8695 20.8939 71.0592 20.5897 70.7234C20.2868 70.3875 19.6221 69.7874 19.6221 69.7874L20.4594 67.8333L20.5757 67.562L20.3807 63.5187L20.376 63.4212L20.3114 62.0883L20.3032 61.9169L20.2903 61.6597L20.0425 56.5301L20.0378 56.4455L19.9627 54.8907L19.8922 53.4122L19.8616 52.7886L19.5598 46.5492L19.3555 42.3121L19.177 38.6235L19.8945 38.3804L27.569 35.7721L30.748 31.6395L37.3643 31.6889L40.6032 31.7135L46.0076 36.7257L47.2372 37.3129L47.2465 37.3176L48.1285 37.7392L50.3645 38.8066L52.7285 39.9364L53.9415 40.5153L53.9674 40.5283Z" fill="#CACACA"/>
<path d="M31.603 65.4765C31.1181 65.6643 30.598 65.7436 30.0792 65.7087C29.5604 65.6737 29.0556 65.5255 28.6003 65.2743C28.145 65.0232 27.7503 64.6753 27.444 64.2551C27.1378 63.8349 26.9273 63.3527 26.8276 62.8424L14.3137 61.067L18.6639 56.1462L29.8803 58.5866C30.7487 58.4758 31.6275 58.6874 32.3503 59.1813C33.0731 59.6752 33.5896 60.4171 33.8019 61.2664C34.0143 62.1157 33.9077 63.0133 33.5024 63.7893C33.0971 64.5652 32.4213 65.1656 31.603 65.4765Z" fill="#FFB6B6"/>
<path d="M26.0236 56.5301C25.7918 56.2362 25.4636 56.0337 25.097 55.9582L19.9627 54.8907L19.4355 54.7815C19.129 54.7175 18.8395 54.5896 18.586 54.406C18.3324 54.2225 18.1204 53.9874 17.964 53.7163C17.8017 53.4317 17.7035 53.1151 17.6762 52.7886C17.6518 52.4917 17.6873 52.193 17.7808 51.9102L19.5599 46.5492L20.7143 43.0708C20.8542 42.6512 20.9368 42.2147 20.9598 41.7731C21.0241 40.5509 20.6459 39.3465 19.8946 38.3804C19.2341 37.5312 18.3179 36.917 17.2815 36.6286C16.2451 36.3401 15.1433 36.3927 14.1391 36.7785C14.1097 36.7891 14.0792 36.8009 14.0498 36.8126C13.3296 37.1002 12.6862 37.5513 12.1703 38.1303C11.6545 38.7094 11.2803 39.4004 11.0775 40.1489L9.8233 44.7113L7.23619 54.1168C6.97721 55.0591 6.92489 56.0463 7.08281 57.0107C7.24073 57.9752 7.60516 58.8941 8.15117 59.7046C8.69717 60.5152 9.41186 61.1982 10.2463 61.7069C11.0807 62.2156 12.0152 62.538 12.9859 62.652L20.3808 63.5187L23.8029 63.9203C24.1986 63.9679 24.5977 63.8646 24.9207 63.6311C25.2436 63.3976 25.4668 63.0509 25.5456 62.6602C25.5512 62.639 25.5555 62.6174 25.5585 62.5956L25.6407 62.0883L26.3372 57.816L26.3442 57.7725C26.3805 57.5545 26.3707 57.3314 26.3155 57.1174C26.2603 56.9034 26.1608 56.7033 26.0236 56.5301Z" fill="#CACACA"/>
<path d="M39.5738 65.6134C40.0803 65.731 40.6064 65.7361 41.1151 65.6284C41.6238 65.5207 42.1026 65.3027 42.518 64.9899C42.9333 64.677 43.275 64.2769 43.5189 63.8178C43.7629 63.3586 43.9032 62.8515 43.9301 62.3323L56.0685 58.8099L51.0679 54.5518L40.3077 58.5494C39.4323 58.5622 38.5921 58.8957 37.9462 59.4866C37.3003 60.0775 36.8935 60.8848 36.8031 61.7555C36.7126 62.6262 36.9447 63.4999 37.4554 64.211C37.9661 64.922 38.7198 65.421 39.5738 65.6134Z" fill="#FFB6B6"/>
<path d="M62.0953 50.9307L56.3221 37.6441C55.8499 36.5532 55.0065 35.6649 53.9417 35.1368C53.6125 34.9747 53.2668 34.8487 52.9106 34.761C52.8554 34.7469 52.8002 34.734 52.745 34.7234C51.9896 34.5586 51.2061 34.5731 50.4573 34.7657C49.7729 34.9415 49.1332 35.2597 48.58 35.6994C48.0268 36.1391 47.5724 36.6905 47.2466 37.3176C47.2431 37.3228 47.2399 37.3283 47.2373 37.334C46.8734 38.038 46.6798 38.8176 46.6723 39.61C46.6647 40.4025 46.8434 41.1856 47.1938 41.8964L47.2654 42.0397L51.3452 50.2332C51.4845 50.5134 51.563 50.8198 51.5755 51.1325C51.588 51.4451 51.5343 51.7569 51.4179 52.0473C51.3014 52.3378 51.1249 52.6003 50.8999 52.8177C50.6748 53.0351 50.4064 53.2025 50.1121 53.3088L49.8255 53.4122L44.6724 55.2735C44.2858 55.4115 43.9677 55.6941 43.7853 56.0619C43.6028 56.4297 43.5702 56.8539 43.6942 57.2453L43.7071 57.2864L45.1516 61.9086C45.1586 61.9298 45.1657 61.9509 45.1739 61.9721C45.1866 62.0119 45.2023 62.0508 45.2209 62.0883C45.3744 62.4326 45.6457 62.7108 45.9861 62.8729C46.3264 63.0351 46.7134 63.0704 47.0775 62.9726L49.8584 62.2386L50.4256 62.0883L57.6068 60.1917C58.5517 59.9421 59.4315 59.4911 60.186 58.8698C60.9404 58.2485 61.5517 57.4715 61.9779 56.5921C62.4042 55.7126 62.6353 54.7513 62.6556 53.7742C62.6758 52.7971 62.4847 51.8271 62.0953 50.9307Z" fill="#CACACA"/>
<path d="M5.27271 62.0883C6.93682 64.1181 8.73153 66.0371 10.6454 67.8333H63.7229C64.2343 67.8341 64.7245 68.0377 65.086 68.3994C65.4474 68.7611 65.6507 69.2514 65.6512 69.7628L65.7276 83.2127C68.9928 81.7125 72.0507 79.7969 74.8253 77.5135C75.5957 76.8806 76.3422 76.2202 77.0648 75.5324C77.5381 75.0838 78 74.6242 78.4506 74.1537C81.8285 70.6347 84.5638 66.5512 86.5325 62.0883H5.27271Z" fill="#3F3D56"/>
<path d="M78.4504 74.1537C78.0006 74.6246 77.5387 75.0842 77.0646 75.5324H65.7661V74.1537H78.4504Z" fill="white"/>
<path d="M53.8619 30.0577C53.8061 29.9547 53.7234 29.8686 53.6228 29.8087C53.5221 29.7487 53.4071 29.7171 53.2899 29.7171H14.7898C14.6171 29.7176 14.4517 29.7864 14.3298 29.9086C14.2079 30.0307 14.1393 30.1963 14.1392 30.3689V53.4122H53.9417V30.3689C53.9423 30.26 53.9148 30.1528 53.8619 30.0577Z" fill="#3F3D56"/>
<path d="M14.1042 52.7883V55.6319C14.1042 55.7498 14.1275 55.8665 14.1726 55.9754C14.2177 56.0843 14.2838 56.1833 14.3672 56.2666C14.4505 56.35 14.5495 56.4161 14.6584 56.4612C14.7673 56.5063 14.884 56.5295 15.0019 56.5295H29.6928V62.1414H29.4976C29.4823 62.1414 29.4671 62.1444 29.453 62.1503C29.4388 62.1561 29.426 62.1647 29.4151 62.1755C29.4043 62.1864 29.3957 62.1992 29.3899 62.2134C29.384 62.2275 29.381 62.2427 29.381 62.258V62.6483C29.381 62.6636 29.384 62.6788 29.3899 62.693C29.3957 62.7071 29.4043 62.72 29.4151 62.7308C29.426 62.7416 29.4388 62.7502 29.453 62.7561C29.4671 62.7619 29.4823 62.7649 29.4976 62.7649H38.6175C38.6328 62.7649 38.648 62.7619 38.6621 62.7561C38.6763 62.7502 38.6891 62.7416 38.6999 62.7308C38.7108 62.72 38.7194 62.7071 38.7252 62.693C38.7311 62.6788 38.7341 62.6636 38.7341 62.6483V62.258C38.7341 62.2427 38.7311 62.2275 38.7252 62.2134C38.7194 62.1992 38.7108 62.1864 38.6999 62.1755C38.6891 62.1647 38.6763 62.1561 38.6621 62.1503C38.648 62.1444 38.6328 62.1414 38.6175 62.1414H38.4223V56.5295H53.1132C53.2311 56.5295 53.3478 56.5063 53.4567 56.4612C53.5656 56.4161 53.6646 56.35 53.7479 56.2666C53.8313 56.1833 53.8974 56.0843 53.9425 55.9754C53.9876 55.8665 54.0108 55.7498 54.0108 55.6319V52.7883H14.1042Z" fill="#3F3D56"/>
<path d="M33.5752 44.6268C35.6057 44.6268 37.2517 42.9808 37.2517 40.9503C37.2517 38.9199 35.6057 37.2738 33.5752 37.2738C31.5447 37.2738 29.8987 38.9199 29.8987 40.9503C29.8987 42.9808 31.5447 44.6268 33.5752 44.6268Z" fill="#323F8D"/>
<path d="M42.9426 20.3164H42.3554C42.3554 15.8773 37.9622 12.9684 33.5301 12.966C32.8855 12.9642 32.2423 13.0267 31.61 13.1528C30.8984 13.2949 30.1597 13.4652 29.434 13.6871C26.572 14.5644 23.918 16.2601 23.918 20.3164C23.9174 21.1041 24.0176 21.8887 24.2163 22.651L23.6479 22.799C23.4371 21.9883 23.3305 21.154 23.3308 20.3164C23.3308 16.7721 24.7858 14.3377 27.299 12.8862C28.6201 12.1229 30.2325 11.6308 32.0798 11.3912C32.8485 11.289 33.6256 11.2654 34.3991 11.3208C39.4959 11.6872 42.9426 15.5954 42.9426 20.3164Z" fill="#323F8D"/>
<path d="M43.9208 20.6417L43.6895 18.9318C43.6324 18.5 43.4244 18.1023 43.1023 17.8091C42.8955 17.618 42.648 17.4764 42.3784 17.395C42.1088 17.3136 41.8243 17.2946 41.5463 17.3394L41.1787 17.3898C41.0781 17.4031 40.9812 17.4362 40.8935 17.4872C40.8058 17.5382 40.7291 17.6061 40.6679 17.687C40.6061 17.7676 40.5609 17.8596 40.5349 17.9578C40.5089 18.0559 40.5026 18.1583 40.5164 18.2589L41.0507 22.1977C41.0727 22.3582 41.1447 22.5078 41.2564 22.6252C41.3681 22.7425 41.5139 22.8218 41.6731 22.8518C41.7203 22.8612 41.7683 22.866 41.8164 22.8659C41.851 22.8659 41.8855 22.8635 41.9197 22.8588L42.3308 22.8036C42.5814 22.7704 42.8225 22.6863 43.0394 22.5564C43.2563 22.4265 43.4444 22.2537 43.592 22.0485C43.6237 22.0039 43.6543 21.9581 43.6824 21.9111C43.9025 21.5269 43.9865 21.0796 43.9208 20.6417Z" fill="#323F8D"/>
<path d="M40.9415 17.4615C40.8337 17.5139 40.7399 17.5912 40.6679 17.687C40.6061 17.7676 40.5609 17.8596 40.5349 17.9578C40.5089 18.0559 40.5026 18.1583 40.5164 18.2589L41.0507 22.1977C41.0727 22.3582 41.1447 22.5078 41.2564 22.6252C41.3681 22.7426 41.5139 22.8218 41.6731 22.8518L40.9415 17.4615Z" fill="white"/>
<path d="M43.9208 20.6417L43.6895 18.9318C43.6324 18.5 43.4244 18.1023 43.1023 17.8091L43.6343 21.7279C43.6423 21.7908 43.6584 21.8524 43.6824 21.9111C43.9025 21.5269 43.9865 21.0796 43.9208 20.6417Z" fill="#3F3D56"/>
<path d="M42.0923 21.8736C42.2529 21.8519 42.3337 21.4695 42.2727 21.0196C42.2116 20.5697 42.0319 20.2227 41.8712 20.2445C41.7106 20.2663 41.6298 20.6486 41.6908 21.0985C41.7519 21.5484 41.9316 21.8954 42.0923 21.8736Z" fill="#3F3D56"/>
<path d="M41.74 19.7598C41.9006 19.738 41.9814 19.3556 41.9204 18.9057C41.8594 18.4559 41.6796 18.1088 41.519 18.1306C41.3583 18.1524 41.2775 18.5348 41.3385 18.9847C41.3996 19.4346 41.5793 19.7816 41.74 19.7598Z" fill="#3F3D56"/>
<path d="M43.9714 20.5819C44.1321 20.5601 44.2129 20.1777 44.1518 19.7278C44.0908 19.2779 43.9111 18.9309 43.7504 18.9527C43.5897 18.9745 43.5089 19.3568 43.57 19.8067C43.631 20.2566 43.8107 20.6037 43.9714 20.5819Z" fill="#3F3D56"/>
<path d="M33.53 12.966C32.8853 12.9642 32.2421 13.0267 31.6099 13.1528C30.8982 13.2949 30.1596 13.4652 29.4338 13.6871C28.3006 13.6319 27.4668 13.3383 27.2988 12.8862C28.62 12.1229 30.2324 11.6308 32.0796 11.3912C32.8484 11.289 33.6255 11.2654 34.399 11.3208C34.4809 11.3688 34.5517 11.4336 34.6067 11.5109C34.6618 11.5882 34.6999 11.6763 34.7184 11.7694C34.7736 12.1781 34.3074 12.6126 33.53 12.966Z" fill="#3F3D56"/>
<path d="M26.0329 24.3914L25.1287 20.6323C25.0964 20.4967 25.0248 20.3736 24.9229 20.2785C24.8209 20.1834 24.6931 20.1206 24.5556 20.0979C24.5167 20.0919 24.4775 20.0888 24.4382 20.0885C24.3828 20.0887 24.3276 20.0954 24.2737 20.1085L23.9238 20.1931C23.4732 20.302 23.0843 20.5853 22.8423 20.9807C22.6003 21.3761 22.5251 21.8514 22.6332 22.3022L23.0383 23.9886C23.1308 24.3856 23.3511 24.7413 23.6654 25.0009C23.7164 25.042 23.7697 25.08 23.8251 25.1148C24.022 25.2382 24.2416 25.3209 24.4709 25.358C24.7002 25.3951 24.9347 25.3859 25.1604 25.3309L25.5092 25.2463C25.6014 25.2248 25.6882 25.1844 25.764 25.1277C25.8768 25.0455 25.9626 24.9316 26.0105 24.8005C26.0584 24.6694 26.0662 24.527 26.0329 24.3914Z" fill="#323F8D"/>
<path d="M24.1374 23.692C24.295 23.654 24.3367 23.2654 24.2305 22.824C24.1243 22.3826 23.9104 22.0555 23.7527 22.0935C23.5951 22.1314 23.5534 22.52 23.6596 22.9614C23.7658 23.4028 23.9797 23.7299 24.1374 23.692Z" fill="#3F3D56"/>
<path d="M22.9628 24.0443C23.1205 24.0063 23.1622 23.6177 23.0559 23.1763C22.9497 22.7349 22.7358 22.4079 22.5782 22.4458C22.4205 22.4837 22.3788 22.8723 22.4851 23.3137C22.5913 23.7551 22.8052 24.0822 22.9628 24.0443Z" fill="#3F3D56"/>
<path d="M26.0904 24.3773L25.1862 20.6182C25.1509 20.4714 25.0732 20.3384 24.9627 20.2356C24.8522 20.1328 24.7138 20.0649 24.5649 20.0404L25.7992 25.1747C25.9211 25.0854 26.0138 24.962 26.0656 24.8201C26.1175 24.6782 26.1261 24.5241 26.0904 24.3773Z" fill="white"/>
<path d="M22.8375 21.5577C22.8125 21.4531 22.7657 21.3551 22.7001 21.2699C22.573 21.5991 22.5496 21.9593 22.6331 22.3022L23.0383 23.9886C23.1308 24.3856 23.3511 24.7413 23.6654 25.0009L22.8375 21.5577Z" fill="#3F3D56"/>
</g>
<defs>
<clipPath id="clip0_863_1251">
<rect width="99.8837" height="87" fill="white"/>
</clipPath>
</defs>
</svg>
