<svg width="96" height="87" viewBox="0 0 96 87" fill="none" xmlns="http://www.w3.org/2000/svg">
<g clip-path="url(#clip0_863_1354)">
<path d="M91.4397 29.5576L91.0127 29.4141L94.9323 17.7145C95.534 15.9187 95.3976 13.9574 94.5532 12.2622C93.7087 10.5669 92.2255 9.27654 90.4296 8.67491L90.4293 8.6748L65.6416 0.371825C63.8458 -0.229806 61.8845 -0.0934094 60.1893 0.751009C58.494 1.59543 57.2036 3.0787 56.602 4.87452L56.6019 4.87484L35.1008 69.0597C34.8029 69.9489 34.6831 70.888 34.7482 71.8236C34.8132 72.7591 35.0619 73.6726 35.48 74.512C35.8981 75.3514 36.4775 76.1002 37.185 76.7158C37.8925 77.3313 38.7143 77.8014 39.6035 78.0993L39.6039 78.0994L64.391 86.4028C66.1868 87.0044 68.1481 86.8679 69.8433 86.0235C71.5385 85.179 72.8288 83.6957 73.4304 81.8999L88.2226 37.7426L88.6497 37.8857L91.4397 29.5576Z" fill="#3F3D56"/>
<path d="M90.1115 10.5284L86.8759 9.44454C86.9025 9.85917 86.8267 10.274 86.6552 10.6524C86.4838 11.0309 86.2218 11.3613 85.8926 11.6147C85.5633 11.8681 85.1767 12.0366 84.767 12.1054C84.3572 12.1742 83.9368 12.1412 83.5429 12.0092L69.3428 7.25233C68.9489 7.12025 68.5935 6.89334 68.308 6.59159C68.0224 6.28983 67.8154 5.92248 67.7053 5.5219C67.5951 5.12132 67.5852 4.6998 67.6763 4.29446C67.7674 3.88912 67.9567 3.51241 68.2277 3.19749L65.2057 2.18513C63.8646 1.73587 62.3999 1.83778 61.1339 2.46843C59.8679 3.09908 58.9042 4.20681 58.455 5.54795L36.9847 69.6385C36.5354 70.9796 36.6373 72.4443 37.268 73.7103C37.8986 74.9763 39.0064 75.94 40.3475 76.3893L65.254 84.7327C66.5952 85.1819 68.0599 85.08 69.3259 84.4494C70.5919 83.8187 71.5555 82.711 72.0048 81.3698L93.4745 17.2792C93.9238 15.938 93.8218 14.4733 93.1912 13.2073C92.5605 11.9413 91.4527 10.9777 90.1115 10.5284Z" fill="white"/>
<path d="M83.8827 32.0301L57.3028 23.1262C57.1723 23.0823 57.0646 22.9885 57.0032 22.8653C56.9419 22.7421 56.9319 22.5996 56.9755 22.469L59.1842 15.8754C59.2281 15.745 59.3219 15.6372 59.4451 15.5759C59.5683 15.5145 59.7108 15.5045 59.8413 15.5481L86.4215 24.4522C86.552 24.4961 86.6597 24.5899 86.7211 24.7131C86.7824 24.8363 86.7924 24.9788 86.7488 25.1093L84.5401 31.7027C84.4962 31.8332 84.4024 31.9409 84.2792 32.0022C84.156 32.0636 84.0135 32.0736 83.883 32.03L83.8827 32.0301ZM59.7753 15.7452C59.697 15.7191 59.6115 15.7251 59.5376 15.7619C59.4637 15.7987 59.4074 15.8634 59.3811 15.9416L57.1724 22.535C57.1462 22.6134 57.1522 22.6989 57.189 22.7728C57.2259 22.8467 57.2905 22.903 57.3688 22.9293L83.9489 31.8334C84.0272 31.8595 84.1127 31.8535 84.1866 31.8167C84.2605 31.7799 84.3168 31.7152 84.3431 31.6369L86.5522 25.0439C86.5783 24.9655 86.5723 24.88 86.5355 24.8061C86.4987 24.7322 86.434 24.676 86.3557 24.6496L59.7753 15.7452Z" fill="#3F3D56"/>
<path d="M75.1438 58.118L48.5638 49.214C48.4333 49.1701 48.3256 49.0763 48.2642 48.9531C48.2029 48.83 48.1929 48.6875 48.2364 48.5569L52.3249 36.3524C52.3687 36.2219 52.4625 36.1142 52.5857 36.0529C52.7089 35.9915 52.8514 35.9815 52.982 36.0251L79.5622 44.9288C79.6926 44.9727 79.8003 45.0665 79.8617 45.1897C79.923 45.3129 79.933 45.4554 79.8895 45.5859L75.8008 57.7907C75.757 57.9211 75.6632 58.0288 75.54 58.0902C75.4168 58.1515 75.2744 58.1615 75.1438 58.118ZM52.916 36.2218C52.8376 36.1957 52.7521 36.2017 52.6782 36.2385C52.6043 36.2754 52.548 36.34 52.5217 36.4183L48.4333 48.6228C48.4072 48.7011 48.4132 48.7866 48.45 48.8605C48.4868 48.9344 48.5515 48.9907 48.6298 49.017L75.21 57.9211C75.2883 57.9473 75.3738 57.9413 75.4477 57.9044C75.5216 57.8676 75.5779 57.803 75.6042 57.7247L79.6928 45.5199C79.719 45.4416 79.7129 45.3561 79.6761 45.2822C79.6393 45.2083 79.5746 45.152 79.4964 45.1257L52.916 36.2218Z" fill="#3F3D56"/>
<path d="M80.2559 42.2025L68.4429 38.2446C68.3125 38.2008 68.2047 38.107 68.1434 37.9838C68.082 37.8606 68.072 37.7181 68.1156 37.5875L70.3244 30.9941C70.3682 30.8637 70.462 30.756 70.5852 30.6946C70.7084 30.6332 70.8509 30.6232 70.9815 30.6668L82.7948 34.6246C82.9253 34.6684 83.033 34.7623 83.0943 34.8854C83.1557 35.0086 83.1657 35.1511 83.1221 35.2817L80.9135 41.8751C80.8696 42.0057 80.7758 42.1135 80.6525 42.1749C80.5292 42.2363 80.3865 42.2462 80.2559 42.2025ZM70.9155 30.8642C70.8371 30.838 70.7516 30.844 70.6777 30.8808C70.6038 30.9177 70.5475 30.9823 70.5212 31.0606L68.3126 37.654C68.2865 37.7323 68.2925 37.8178 68.3293 37.8917C68.3661 37.9656 68.4308 38.0219 68.509 38.0482L80.3224 42.0055C80.4007 42.0317 80.4862 42.0257 80.5601 41.9888C80.634 41.952 80.6903 41.8874 80.7166 41.8091L82.9254 35.2157C82.9515 35.1373 82.9455 35.0518 82.9087 34.9779C82.8718 34.904 82.8072 34.8478 82.7289 34.8215L70.9155 30.8642Z" fill="#E6E6E6"/>
<path d="M55.0347 69.1194L43.2217 65.1621C43.0913 65.1182 42.9836 65.0244 42.9222 64.9012C42.8608 64.778 42.8508 64.6355 42.8944 64.505L47.0158 52.2018C47.0597 52.0713 47.1535 51.9636 47.2767 51.9022C47.3999 51.8409 47.5424 51.8309 47.6729 51.8745L59.4862 55.8318C59.6166 55.8756 59.7243 55.9694 59.7857 56.0926C59.847 56.2158 59.857 56.3583 59.8135 56.4889L55.6918 68.7921C55.648 68.9225 55.5541 69.0302 55.431 69.0916C55.3078 69.1529 55.1653 69.1629 55.0347 69.1194ZM47.6066 52.0712C47.5283 52.0451 47.4428 52.0511 47.3689 52.0879C47.2949 52.1247 47.2387 52.1894 47.2124 52.2677L43.0908 64.5708C43.0647 64.6492 43.0707 64.7347 43.1075 64.8086C43.1444 64.8825 43.209 64.9388 43.2873 64.9651L55.1007 68.9225C55.1791 68.9486 55.2646 68.9426 55.3385 68.9058C55.4124 68.869 55.4686 68.8043 55.4949 68.7261L59.6164 56.4229C59.6425 56.3445 59.6365 56.259 59.5997 56.1851C59.5628 56.1112 59.4982 56.0549 59.4199 56.0286L47.6066 52.0712Z" fill="#E6E6E6"/>
<path d="M69.6045 74.0002L57.7911 70.0427C57.6606 69.9989 57.5529 69.9051 57.4915 69.7819C57.4302 69.6587 57.4202 69.5162 57.4637 69.3856L61.5852 57.0824C61.629 56.952 61.7228 56.8443 61.846 56.7829C61.9692 56.7216 62.1117 56.7116 62.2423 56.7551L74.0557 60.7125C74.1862 60.7564 74.2939 60.8502 74.3552 60.9734C74.4166 61.0966 74.4266 61.2391 74.383 61.3697L70.2616 73.6727C70.2178 73.8032 70.124 73.9109 70.0008 73.9723C69.8776 74.0337 69.7351 74.0437 69.6045 74.0002ZM62.1764 56.952C62.098 56.9259 62.0125 56.9319 61.9386 56.9687C61.8647 57.0055 61.8085 57.0702 61.7822 57.1484L57.6606 69.4516C57.6345 69.53 57.6405 69.6155 57.6773 69.6894C57.7141 69.7633 57.7788 69.8196 57.8571 69.8459L69.6705 73.8034C69.7488 73.8295 69.8343 73.8235 69.9082 73.7867C69.9821 73.7499 70.0384 73.6852 70.0647 73.607L74.1861 61.3038C74.2123 61.2254 74.2063 61.1399 74.1695 61.066C74.1326 60.9921 74.068 60.9358 73.9897 60.9095L62.1764 56.952Z" fill="#E6E6E6"/>
<path d="M55.4669 43.7804C56.6348 43.7804 57.5815 42.8337 57.5815 41.6658C57.5815 40.4979 56.6348 39.5512 55.4669 39.5512C54.299 39.5512 53.3523 40.4979 53.3523 41.6658C53.3523 42.8337 54.299 43.7804 55.4669 43.7804Z" fill="#323F8D"/>
<path d="M60.545 41.8804C60.4563 41.8507 60.3595 41.8574 60.2759 41.8991C60.1922 41.9408 60.1285 42.014 60.0988 42.1026C60.0691 42.1912 60.0759 42.288 60.1175 42.3717C60.1592 42.4554 60.2324 42.5191 60.3211 42.5488L76.0751 47.8261C76.119 47.8408 76.1654 47.8468 76.2116 47.8435C76.2577 47.8403 76.3028 47.8281 76.3442 47.8074C76.3857 47.7868 76.4226 47.7582 76.453 47.7233C76.4834 47.6884 76.5066 47.6478 76.5213 47.6039C76.536 47.56 76.5419 47.5137 76.5387 47.4675C76.5355 47.4213 76.5232 47.3762 76.5026 47.3348C76.4819 47.2934 76.4533 47.2564 76.4184 47.226C76.3835 47.1957 76.3429 47.1725 76.2991 47.1578L60.545 41.8804Z" fill="#E6E6E6"/>
<path d="M59.8736 43.8854C59.8297 43.8707 59.7833 43.8648 59.7372 43.868C59.691 43.8712 59.6459 43.8835 59.6045 43.9041C59.5631 43.9247 59.5261 43.9533 59.4957 43.9882C59.4653 44.0232 59.4421 44.0637 59.4274 44.1076C59.4127 44.1515 59.4068 44.1979 59.41 44.244C59.4132 44.2902 59.4255 44.3353 59.4461 44.3767C59.4668 44.4181 59.4954 44.4551 59.5303 44.4855C59.5652 44.5159 59.6058 44.5391 59.6497 44.5538L66.4287 46.8247C66.4726 46.8394 66.5189 46.8453 66.5651 46.8421C66.6113 46.8389 66.6564 46.8266 66.6978 46.806C66.7392 46.7853 66.7762 46.7568 66.8066 46.7218C66.8369 46.6869 66.8601 46.6464 66.8748 46.6025C66.8895 46.5586 66.8955 46.5122 66.8922 46.4661C66.889 46.4199 66.8768 46.3748 66.8561 46.3334C66.8355 46.2919 66.8069 46.255 66.772 46.2246C66.7371 46.1942 66.6965 46.171 66.6526 46.1563L59.8736 43.8854Z" fill="#E6E6E6"/>
<path d="M52.6311 45.0245C52.3769 44.9393 52.1198 45.02 52.0581 45.2047C51.9964 45.3894 52.1531 45.6081 52.4073 45.6933L74.1431 52.9745C74.3973 53.0597 74.6543 52.9791 74.716 52.7943C74.7778 52.6096 74.6211 52.3909 74.3669 52.3057L52.6311 45.0245Z" fill="#E6E6E6"/>
<path d="M51.9595 47.0296C51.7052 46.9444 51.4482 47.0251 51.3865 47.2098C51.3248 47.3945 51.4814 47.6133 51.7357 47.6984L73.4714 54.9797C73.7257 55.0648 73.9827 54.9842 74.0444 54.7995C74.1061 54.6147 73.9495 54.396 73.6952 54.3108L51.9595 47.0296Z" fill="#E6E6E6"/>
<path d="M62.787 22.5824C63.9548 22.5824 64.9016 21.6356 64.9016 20.4678C64.9016 19.2999 63.9548 18.3531 62.787 18.3531C61.6191 18.3531 60.6724 19.2999 60.6724 20.4678C60.6724 21.6356 61.6191 22.5824 62.787 22.5824Z" fill="#323F8D"/>
<path d="M67.8653 20.6822C67.8214 20.6675 67.775 20.6616 67.7289 20.6648C67.6827 20.668 67.6376 20.6803 67.5962 20.7009C67.5548 20.7216 67.5178 20.7502 67.4874 20.7851C67.457 20.82 67.4338 20.8606 67.4191 20.9044C67.4044 20.9483 67.3985 20.9947 67.4017 21.0408C67.4049 21.087 67.4172 21.1321 67.4378 21.1735C67.4585 21.215 67.4871 21.2519 67.522 21.2823C67.5569 21.3127 67.5975 21.3359 67.6414 21.3506L83.3954 26.628C83.4393 26.6427 83.4857 26.6486 83.5319 26.6454C83.578 26.6422 83.6231 26.6299 83.6646 26.6093C83.706 26.5886 83.7429 26.56 83.7733 26.5251C83.8037 26.4902 83.8269 26.4496 83.8416 26.4057C83.8563 26.3619 83.8622 26.3155 83.859 26.2693C83.8558 26.2232 83.8435 26.1781 83.8229 26.1366C83.8022 26.0952 83.7737 26.0583 83.7387 26.0279C83.7038 25.9975 83.6633 25.9743 83.6194 25.9596L67.8653 20.6822Z" fill="#E6E6E6"/>
<path d="M67.1936 22.6873C67.1498 22.6726 67.1034 22.6667 67.0572 22.6699C67.0111 22.6731 66.966 22.6854 66.9246 22.706C66.8831 22.7267 66.8462 22.7553 66.8158 22.7902C66.7854 22.8251 66.7622 22.8657 66.7475 22.9096C66.7328 22.9534 66.7269 22.9998 66.7301 23.046C66.7333 23.0921 66.7456 23.1372 66.7662 23.1787C66.7869 23.2201 66.8155 23.257 66.8504 23.2874C66.8853 23.3178 66.9258 23.341 66.9697 23.3557L73.7488 25.6266C73.7926 25.6413 73.839 25.6473 73.8852 25.644C73.9313 25.6408 73.9764 25.6286 74.0179 25.6079C74.0593 25.5873 74.0962 25.5587 74.1266 25.5238C74.157 25.4889 74.1802 25.4483 74.1949 25.4044C74.2096 25.3605 74.2155 25.3142 74.2123 25.268C74.2091 25.2218 74.1968 25.1767 74.1762 25.1353C74.1556 25.0939 74.127 25.0569 74.092 25.0266C74.0571 24.9962 74.0166 24.973 73.9727 24.9583L67.1936 22.6873Z" fill="#E6E6E6"/>
<path d="M65.6758 37.3195L54.5938 33.6071L58.7149 29.9635C58.7888 29.8982 58.8785 29.8535 58.9752 29.8338C59.0718 29.8142 59.1719 29.8203 59.2654 29.8516C59.3589 29.883 59.4425 29.9383 59.5078 30.0122C59.5731 30.0861 59.6178 30.1758 59.6374 30.2725L60.1051 32.5754L63.0986 29.9285C63.191 29.8467 63.3034 29.7908 63.4244 29.7662C63.5453 29.7417 63.6706 29.7494 63.7877 29.7886C63.9047 29.8278 64.0094 29.8971 64.0911 29.9896C64.1729 30.0821 64.2288 30.1944 64.2534 30.3154L65.6758 37.3195ZM55.0007 33.5245L65.4007 37.0084L64.0499 30.3572C64.0325 30.272 63.9931 30.1928 63.9355 30.1277C63.8778 30.0625 63.8041 30.0137 63.7216 29.9861C63.6392 29.9584 63.5509 29.953 63.4657 29.9703C63.3804 29.9876 63.3013 30.027 63.2361 30.0846L59.9732 32.9693L59.4339 30.3139C59.4215 30.253 59.3934 30.1965 59.3522 30.1499C59.3111 30.1033 59.2584 30.0684 59.1995 30.0487C59.1405 30.029 59.0775 30.0251 59.0166 30.0375C58.9557 30.0498 58.8991 30.078 58.8526 30.1192L55.0007 33.5245Z" fill="#E6E6E6"/>
<path d="M65.6867 37.3217L53.8733 33.3644C53.7429 33.3205 53.6352 33.2267 53.5738 33.1035C53.5124 32.9803 53.5025 32.8379 53.546 32.7073L55.7547 26.1139C55.7985 25.9835 55.8924 25.8757 56.0155 25.8144C56.1387 25.753 56.2812 25.743 56.4118 25.7866L68.2252 29.744C68.3557 29.7879 68.4634 29.8817 68.5248 30.0049C68.5861 30.1281 68.5961 30.2706 68.5526 30.4011L66.3438 36.9944C66.2999 37.1248 66.2061 37.2326 66.0829 37.2939C65.9597 37.3553 65.8172 37.3653 65.6867 37.3217ZM56.3459 25.9834C56.2676 25.9572 56.1821 25.9632 56.1082 26C56.0342 26.0369 55.978 26.1015 55.9517 26.1798L53.743 32.7732C53.7169 32.8515 53.7229 32.937 53.7597 33.0109C53.7965 33.0848 53.8612 33.1411 53.9394 33.1674L65.7529 37.1248C65.8312 37.151 65.9167 37.145 65.9906 37.1081C66.0645 37.0713 66.1208 37.0067 66.1471 36.9284L68.3559 30.335C68.382 30.2567 68.376 30.1712 68.3392 30.0973C68.3024 30.0234 68.2377 29.9671 68.1595 29.9408L56.3459 25.9834Z" fill="#E6E6E6"/>
<path d="M49.3398 55.2547C49.2959 55.24 49.2495 55.234 49.2033 55.2371C49.1571 55.2403 49.112 55.2526 49.0705 55.2732C49.029 55.2938 48.992 55.3224 48.9616 55.3574C48.9312 55.3923 48.908 55.4329 48.8933 55.4768C48.8785 55.5207 48.8726 55.5671 48.8759 55.6133C48.8791 55.6595 48.8914 55.7047 48.9121 55.7461C48.9328 55.7876 48.9614 55.8245 48.9964 55.8549C49.0314 55.8853 49.072 55.9084 49.1159 55.9231L55.8949 58.194C55.9835 58.2236 56.0802 58.2168 56.1638 58.1751C56.2474 58.1334 56.311 58.0602 56.3407 57.9717C56.3703 57.8831 56.3636 57.7864 56.322 57.7028C56.2805 57.6191 56.2074 57.5554 56.1189 57.5257L49.3398 55.2547Z" fill="#E6E6E6"/>
<path d="M48.6802 57.2236C48.6363 57.2088 48.5899 57.2028 48.5437 57.206C48.4975 57.2092 48.4523 57.2214 48.4108 57.242C48.3694 57.2627 48.3324 57.2913 48.3019 57.3262C48.2715 57.3611 48.2483 57.4017 48.2336 57.4457C48.2189 57.4896 48.213 57.536 48.2162 57.5822C48.2194 57.6284 48.2317 57.6735 48.2524 57.715C48.2731 57.7564 48.3017 57.7934 48.3367 57.8237C48.3717 57.8541 48.4123 57.8773 48.4563 57.8919L55.2354 60.1633C55.3239 60.1927 55.4205 60.1858 55.504 60.1441C55.5874 60.1024 55.651 60.0293 55.6806 59.9408C55.7102 59.8523 55.7036 59.7557 55.6621 59.6721C55.6206 59.5886 55.5477 59.5249 55.4593 59.495L48.6802 57.2236Z" fill="#E6E6E6"/>
<path d="M67.9373 70.6198C68.0259 70.6493 68.1226 70.6425 68.2062 70.6008C68.2897 70.5591 68.3533 70.486 68.383 70.3974C68.4127 70.3088 68.406 70.2121 68.3644 70.1285C68.3228 70.0449 68.2497 69.9812 68.1612 69.9514L61.3822 67.6805C61.2936 67.6509 61.1969 67.6577 61.1133 67.6994C61.0297 67.7411 60.9661 67.8143 60.9365 67.9028C60.9068 67.9914 60.9135 68.0881 60.9551 68.1717C60.9967 68.2553 61.0697 68.319 61.1583 68.3488L67.9373 70.6198Z" fill="#E6E6E6"/>
<path d="M68.5968 68.6508C68.6408 68.6656 68.6871 68.6716 68.7334 68.6684C68.7796 68.6652 68.8247 68.653 68.8662 68.6323C68.9077 68.6117 68.9447 68.5831 68.9751 68.5482C69.0055 68.5132 69.0287 68.4727 69.0434 68.4287C69.0581 68.3848 69.0641 68.3384 69.0608 68.2922C69.0576 68.246 69.0453 68.2009 69.0246 68.1594C69.0039 68.118 68.9753 68.081 68.9403 68.0506C68.9053 68.0203 68.8647 67.9971 68.8208 67.9824L62.0417 65.7115C61.9978 65.6967 61.9514 65.6907 61.9052 65.6939C61.859 65.6971 61.8139 65.7093 61.7724 65.73C61.7309 65.7506 61.6939 65.7792 61.6635 65.8141C61.6331 65.8491 61.6099 65.8897 61.5952 65.9336C61.5804 65.9775 61.5745 66.0239 61.5778 66.0701C61.581 66.1163 61.5933 66.1614 61.614 66.2029C61.6347 66.2443 61.6633 66.2813 61.6983 66.3117C61.7333 66.342 61.7739 66.3652 61.8178 66.3799L68.5968 68.6508Z" fill="#E6E6E6"/>
<path d="M79.1845 37.1131C79.2284 37.1279 79.2748 37.1339 79.321 37.1307C79.3672 37.1275 79.4123 37.1153 79.4538 37.0947C79.4953 37.074 79.5323 37.0454 79.5627 37.0105C79.5931 36.9756 79.6164 36.935 79.6311 36.891C79.6458 36.8471 79.6517 36.8007 79.6485 36.7545C79.6452 36.7083 79.6329 36.6632 79.6123 36.6217C79.5916 36.5803 79.5629 36.5433 79.528 36.5129C79.493 36.4826 79.4524 36.4594 79.4084 36.4447L72.6294 34.1738C72.5855 34.159 72.5391 34.1531 72.4929 34.1562C72.4467 34.1594 72.4015 34.1716 72.3601 34.1923C72.3186 34.2129 72.2816 34.2415 72.2512 34.2764C72.2207 34.3114 72.1975 34.352 72.1828 34.3959C72.1681 34.4398 72.1622 34.4862 72.1654 34.5324C72.1686 34.5786 72.1809 34.6237 72.2016 34.6652C72.2223 34.7066 72.2509 34.7436 72.2859 34.774C72.3209 34.8043 72.3615 34.8275 72.4055 34.8422L79.1845 37.1131Z" fill="#E6E6E6"/>
<path d="M78.6213 38.69C78.6652 38.7048 78.7116 38.7108 78.7578 38.7076C78.804 38.7044 78.8491 38.6922 78.8906 38.6715C78.9321 38.6509 78.9691 38.6223 78.9995 38.5874C79.0299 38.5524 79.0531 38.5118 79.0678 38.4679C79.0826 38.424 79.0885 38.3776 79.0852 38.3314C79.082 38.2852 79.0697 38.2401 79.049 38.1986C79.0283 38.1572 78.9997 38.1202 78.9647 38.0898C78.9297 38.0595 78.8891 38.0363 78.8452 38.0216L72.0662 35.7507C72.0223 35.7359 71.9759 35.7299 71.9297 35.7331C71.8834 35.7363 71.8383 35.7485 71.7968 35.7692C71.7553 35.7898 71.7183 35.8184 71.6879 35.8533C71.6575 35.8883 71.6343 35.9289 71.6196 35.9728C71.6049 36.0167 71.5989 36.0631 71.6022 36.1093C71.6054 36.1555 71.6177 36.2006 71.6384 36.2421C71.6591 36.2835 71.6877 36.3205 71.7227 36.3509C71.7577 36.3812 71.7983 36.4044 71.8422 36.4191L78.6213 38.69Z" fill="#E6E6E6"/>
<path d="M21.8501 34.8073C23.8301 34.8073 25.4352 33.2021 25.4352 31.2221C25.4352 29.2421 23.8301 27.6369 21.8501 27.6369C19.87 27.6369 18.2649 29.2421 18.2649 31.2221C18.2649 33.2021 19.87 34.8073 21.8501 34.8073Z" fill="#9F616A"/>
<path d="M19.7778 31.6657C20.062 31.6487 20.3395 31.7445 20.6218 31.7822C21.6315 31.9163 22.6819 31.1836 22.9049 30.1897C22.9228 30.0573 22.9622 29.9288 23.0217 29.8092C23.1771 29.5554 23.531 29.5071 23.8227 29.5655C24.1145 29.6238 24.3911 29.7603 24.6882 29.776C25.147 29.8001 25.5874 29.5176 25.8319 29.1287C26.0629 28.7274 26.1612 28.2634 26.1126 27.803L25.8926 28.0338C25.8033 27.8447 25.7688 27.6344 25.793 27.4267C25.6765 27.3956 25.5539 27.395 25.4371 27.4249C25.3202 27.4548 25.213 27.5142 25.1257 27.5974C24.9317 27.618 25.0782 27.2378 24.9342 27.1063C24.8641 27.0633 24.7806 27.0477 24.6997 27.0625C24.2871 27.0664 23.9534 26.751 23.6283 26.497C23.0651 26.0578 22.4064 25.7574 21.7055 25.6199C21.2397 25.529 20.7443 25.5145 20.3026 25.6875C19.9459 25.8476 19.6241 26.0759 19.3551 26.3596C18.6634 27.0241 18.0509 27.8061 17.7632 28.7215C17.5293 29.4713 17.5227 30.2736 17.7442 31.0271C17.8601 31.4184 18.2096 32.7587 18.7212 32.7899C19.3635 32.8294 18.9778 31.7134 19.7778 31.6657Z" fill="#2F2E41"/>
<path d="M14.813 59.9266C15.0118 59.7903 15.1783 59.612 15.3008 59.4044C15.4233 59.1967 15.4988 58.9648 15.5219 58.7248C15.545 58.4849 15.5153 58.2427 15.4347 58.0155C15.3541 57.7883 15.2247 57.5816 15.0556 57.4098L15.6953 43.1314L12.4387 43.4969L12.6279 57.4636C12.358 57.7668 12.2088 58.1585 12.2085 58.5645C12.2082 58.9704 12.3568 59.3623 12.6261 59.666C12.8955 59.9697 13.2669 60.164 13.67 60.2121C14.073 60.2602 14.4797 60.1588 14.813 59.927V59.9266Z" fill="#A0616A"/>
<path d="M20.7542 84.0966L22.6077 84.4225L24.4396 77.4279L22.011 76.9469L20.7542 84.0966Z" fill="#A0616A"/>
<path d="M25.8666 86.7747L20.0408 85.7456L20.4384 83.4947L24.0134 84.1263C24.6103 84.2317 25.141 84.57 25.4885 85.0667C25.8361 85.5634 25.9721 86.1778 25.8666 86.7747Z" fill="#2F2E41"/>
<path d="M15.6666 85.0245H17.5484L18.4436 77.7658H15.6663L15.6666 85.0245Z" fill="#A0616A"/>
<path d="M21.1763 86.7719H15.2617V84.4868H18.8911C19.4972 84.4868 20.0784 84.7275 20.507 85.1561C20.9355 85.5846 21.1763 86.1659 21.1763 86.7719Z" fill="#2F2E41"/>
<path d="M23.5183 82.4227C23.489 82.4228 23.4596 82.4211 23.4305 82.4176L21.2154 82.2353C21.0181 82.2121 20.838 82.1115 20.7149 81.9556C20.5918 81.7997 20.5356 81.6012 20.5588 81.4039C20.5603 81.3914 20.5621 81.379 20.5641 81.3666L22.7637 70.5169L21.3816 63.2295C21.3704 63.1702 21.3382 63.117 21.2908 63.0797C21.2434 63.0423 21.1841 63.0234 21.1239 63.0264C21.0636 63.0294 21.0065 63.0541 20.9631 63.096C20.9196 63.1378 20.8928 63.1939 20.8875 63.254L18.8523 81.7707C18.8333 81.9658 18.7393 82.1458 18.5901 82.2729C18.4409 82.4 18.2482 82.4641 18.0526 82.4518L15.9658 82.3741C15.783 82.3611 15.6112 82.2817 15.4829 82.1507C15.3546 82.0198 15.2787 81.8464 15.2695 81.6633L15.4362 59.2877L26.2553 57.9354L27.0111 69.6077L27.0081 69.6201L24.2463 81.8503C24.2065 82.0135 24.1132 82.1586 23.9812 82.2623C23.8492 82.3661 23.6862 82.4226 23.5183 82.4227Z" fill="#2F2E41"/>
<path d="M22.5557 60.9905C21.9659 60.9941 21.3874 60.8287 20.8887 60.5137C19.0624 59.3723 16.9881 59.826 15.9142 60.1984C15.8076 60.2357 15.694 60.2484 15.5818 60.2357C15.4696 60.2229 15.3617 60.1849 15.2663 60.1246C15.172 60.0654 15.0922 59.9855 15.0331 59.8911C14.974 59.7967 14.937 59.6902 14.9249 59.5794L12.9724 42.1373C12.6451 39.215 14.4054 36.4675 17.158 35.6045C17.2614 35.5721 17.3665 35.5413 17.4734 35.5122C18.33 35.28 19.227 35.2383 20.1014 35.3901C20.9759 35.5419 21.8064 35.8835 22.5346 36.3908C23.2764 36.9036 23.8968 37.5727 24.3522 38.3511C24.8076 39.1295 25.0868 39.9982 25.1703 40.8962L26.8147 58.4548C26.8258 58.5685 26.8104 58.6833 26.7696 58.79C26.7288 58.8967 26.6638 58.9926 26.5797 59.0699C26.0033 59.6031 24.3306 60.9903 22.5557 60.9905Z" fill="#323F8D"/>
<path d="M16.6089 45.8774L12.2028 45.3931C12.0775 45.3793 11.9565 45.3387 11.8483 45.2739C11.7401 45.2092 11.6471 45.1219 11.5756 45.018C11.5042 44.9141 11.4559 44.796 11.4342 44.6718C11.4125 44.5475 11.4179 44.4201 11.4499 44.2981L12.5714 40.0236C12.6052 39.7051 12.7015 39.3965 12.8547 39.1152C13.0079 38.834 13.215 38.5857 13.4642 38.3845C13.7134 38.1834 13.9999 38.0333 14.3071 37.9429C14.6143 37.8525 14.9364 37.8236 15.2548 37.8577C15.5732 37.8918 15.8818 37.9883 16.1629 38.1418C16.4441 38.2952 16.6922 38.5026 16.8931 38.752C17.094 39.0013 17.2439 39.2879 17.334 39.5952C17.4241 39.9025 17.4528 40.2246 17.4184 40.543C17.4174 40.5522 17.4164 40.5614 17.4153 40.5705L17.5818 44.9722C17.5865 45.0982 17.564 45.2238 17.5158 45.3403C17.4677 45.4569 17.3949 45.5617 17.3026 45.6476C17.2103 45.7335 17.1005 45.7985 16.9808 45.8382C16.8611 45.8778 16.7342 45.8912 16.6089 45.8774Z" fill="#323F8D"/>
<path d="M26.7963 59.3152C26.9773 59.1559 27.1211 58.9589 27.2177 58.738C27.3143 58.5171 27.3613 58.2777 27.3554 58.0367C27.3494 57.7957 27.2907 57.5589 27.1834 57.3431C27.076 57.1272 26.9226 56.9375 26.734 56.7873L25.6483 42.536L22.4573 43.2544L24.3305 57.133C24.0993 57.4666 23.9984 57.8733 24.047 58.2763C24.0956 58.6792 24.2904 59.0503 24.5943 59.3193C24.8982 59.5883 25.2903 59.7364 25.6961 59.7356C26.102 59.7349 26.4935 59.5853 26.7964 59.3152L26.7963 59.3152Z" fill="#A0616A"/>
<path d="M21.2339 44.9816C21.1414 44.8956 21.0687 44.7908 21.0205 44.6741C20.9723 44.5575 20.9499 44.4318 20.9548 44.3057L21.1212 39.9041C21.0526 39.2637 21.2403 38.6223 21.6431 38.1198C22.046 37.6173 22.6313 37.2947 23.2713 37.2225C23.9112 37.1502 24.5538 37.3342 25.0586 37.7342C25.5633 38.1341 25.8893 38.7176 25.9652 39.3571L27.0867 43.6316C27.1187 43.7536 27.124 43.8811 27.1023 44.0053C27.0806 44.1295 27.0324 44.2476 26.9609 44.3515C26.8895 44.4555 26.7965 44.5428 26.6882 44.6075C26.58 44.6722 26.4591 44.7129 26.3337 44.7267L21.9277 45.211C21.8023 45.2248 21.6754 45.2115 21.5557 45.1718C21.4359 45.1321 21.3262 45.0671 21.2339 44.9811V44.9816Z" fill="#323F8D"/>
<path d="M83.1491 86.7747H0V87H83.1491V86.7747Z" fill="#CACACA"/>
</g>
<defs>
<clipPath id="clip0_863_1354">
<rect width="95.3041" height="87" fill="white"/>
</clipPath>
</defs>
</svg>
